<svg xmlns="http://www.w3.org/2000/svg" width="15" height="15" viewBox="0 0 15 15"><defs><style>.a{fill:#ececed;}.b{fill:#777;}</style></defs><circle class="a" cx="7.5" cy="7.5" r="7.5"/><path class="b" d="M.343,9.5A2.686,2.686,0,0,1,.421,8.98q.046-.2.137-.536l.8-3.008q.013-.052.023-.1a.534.534,0,0,0,.01-.1q0-.268-.17-.334A2.255,2.255,0,0,0,.6,4.815V4.462q.379-.026,1.1-.108T2.73,4.213L3.305,4.1,2.265,7.914q-.131.49-.177.68a3.556,3.556,0,0,0-.118.628q0,.144.065.186a.259.259,0,0,0,.144.043q.2,0,.5-.347a5.227,5.227,0,0,0,.53-.726l.294.19a9.121,9.121,0,0,1-1,1.295,1.733,1.733,0,0,1-1.216.549,1.045,1.045,0,0,1-.657-.226A.818.818,0,0,1,.343,9.5Zm2.59-8.384a.893.893,0,0,1,.9.9.875.875,0,0,1-.262.638.858.858,0,0,1-.634.265.869.869,0,0,1-.638-.265.869.869,0,0,1-.265-.638.858.858,0,0,1,.265-.634A.875.875,0,0,1,2.932,1.113Z" transform="translate(5.135 1.36)"/></svg>