<svg xmlns="http://www.w3.org/2000/svg" width="196" height="59" viewBox="0 0 196 59"><defs><style>.a{fill:#fff;}</style></defs><g transform="translate(-164 -1857)"><rect width="196" height="59" rx="29.5" transform="translate(164 1857)"/><path class="a" d="M4.169,3.3H1.012V11H4.136A3.808,3.808,0,0,0,8.151,7.15,3.786,3.786,0,0,0,4.169,3.3ZM4.2,9.834H2.31V4.466H4.147a2.625,2.625,0,0,1,2.7,2.7A2.581,2.581,0,0,1,4.2,9.834ZM11.968,5.1A2.862,2.862,0,0,0,8.91,8.063a2.873,2.873,0,0,0,3.058,2.981,2.87,2.87,0,0,0,3.047-2.981A2.859,2.859,0,0,0,11.968,5.1Zm0,1.078a1.767,1.767,0,0,1,1.782,1.9,1.791,1.791,0,1,1-3.575,0A1.769,1.769,0,0,1,11.968,6.182Zm3.223-1.034L17.347,11h1.3L20.13,6.666,21.615,11h1.309l2.134-5.852H23.771l-1.5,4.6-1.485-4.6H19.481l-1.474,4.6-1.518-4.6ZM29.425,5.1A2.21,2.21,0,0,0,27.269,6.27V5.148H26V11h1.265V7.887a1.639,1.639,0,0,1,1.661-1.6,1.3,1.3,0,0,1,1.408,1.419V11H31.6V7.359A2.044,2.044,0,0,0,29.425,5.1Zm3.927-2.266V11h1.265V2.838ZM39.05,5.1a2.862,2.862,0,0,0-3.058,2.959,3.053,3.053,0,0,0,6.105,0A2.859,2.859,0,0,0,39.05,5.1Zm0,1.078a1.767,1.767,0,0,1,1.782,1.9,1.791,1.791,0,1,1-3.575,0A1.769,1.769,0,0,1,39.05,6.182ZM48.169,11l-.011-3.839C48.147,5.874,47.3,5.1,45.793,5.1a4.286,4.286,0,0,0-2.519.737l.517.88a3.085,3.085,0,0,1,1.727-.594c.924,0,1.4.44,1.4,1.177V7.48H45.144c-1.408.011-2.211.693-2.211,1.76a1.853,1.853,0,0,0,2.057,1.815,2.373,2.373,0,0,0,1.936-.77V11Zm-2.915-.946c-.7,0-1.133-.341-1.133-.869,0-.561.385-.781,1.21-.781h1.584v.539C46.849,9.581,46.156,10.054,45.254,10.054Zm8.921-7.216V6.16A2.314,2.314,0,0,0,52.1,5.093a2.735,2.735,0,0,0-2.783,2.959,2.758,2.758,0,0,0,2.805,3A2.268,2.268,0,0,0,54.175,10v1H55.44V2.838ZM52.382,10a1.784,1.784,0,0,1-1.8-1.9,1.8,1.8,0,0,1,1.8-1.925A1.782,1.782,0,0,1,54.175,8.1,1.775,1.775,0,0,1,52.382,10ZM63.173,5.1a2.862,2.862,0,0,0-3.058,2.959,3.053,3.053,0,0,0,6.105,0A2.859,2.859,0,0,0,63.173,5.1Zm0,1.078a1.767,1.767,0,0,1,1.782,1.9,1.791,1.791,0,1,1-3.575,0A1.769,1.769,0,0,1,63.173,6.182ZM70.961,5.1A2.21,2.21,0,0,0,68.805,6.27V5.148H67.54V11h1.265V7.887a1.639,1.639,0,0,1,1.661-1.6,1.3,1.3,0,0,1,1.408,1.419V11h1.265V7.359A2.044,2.044,0,0,0,70.961,5.1ZM81.125,9.658a2.042,2.042,0,0,1-.88.253c-.4,0-.627-.187-.627-.792v-2.8h1.727V5.368H79.618V3.762H78.364V5.368h-.825v.946h.825V9.35A1.542,1.542,0,0,0,80,11.055a2.81,2.81,0,0,0,1.441-.429ZM86.1,5.1A2.214,2.214,0,0,0,83.93,6.292V2.838H82.665V11H83.93V8.118A1.672,1.672,0,0,1,85.6,6.292,1.3,1.3,0,0,1,87.01,7.711V11h1.265V7.359A2.044,2.044,0,0,0,86.1,5.1Zm6.281,0a2.841,2.841,0,0,0-2.959,2.981,2.815,2.815,0,0,0,2.992,2.959,3.184,3.184,0,0,0,2.42-.99l-.671-.715a2.275,2.275,0,0,1-1.65.682,1.782,1.782,0,0,1-1.815-1.463h4.422C95.271,6.446,94.435,5.1,92.378,5.1Zm-1.705,2.53a1.658,1.658,0,0,1,1.716-1.518,1.5,1.5,0,0,1,1.628,1.518ZM11.609,30H14L8.189,16.7H5.89L.019,30H2.356l1.273-3h6.707ZM4.465,25l2.508-5.909L9.481,25Zm16.986-5.187a3.95,3.95,0,0,0-3.534,1.824V19.892H15.732V33.686h2.185V28.252a3.971,3.971,0,0,0,3.572,1.824c2.888,0,4.788-2.071,4.788-5.092C26.277,21.906,24.32,19.816,21.451,19.816ZM21,28.214a3.058,3.058,0,0,1-3.078-3.306,3.084,3.084,0,1,1,6.156,0A3.068,3.068,0,0,1,21,28.214Zm13.376-8.4a3.95,3.95,0,0,0-3.534,1.824V19.892H28.652V33.686h2.185V28.252a3.971,3.971,0,0,0,3.572,1.824c2.888,0,4.788-2.071,4.788-5.092C39.2,21.906,37.24,19.816,34.371,19.816Zm-.456,8.4a3.058,3.058,0,0,1-3.078-3.306,3.084,3.084,0,1,1,6.156,0A3.068,3.068,0,0,1,33.915,28.214ZM55.4,19.949l.931-1.976A8.662,8.662,0,0,0,51.68,16.6c-2.888,0-4.845,1.425-4.845,3.705,0,4.731,7.182,3.078,7.182,6.042,0,1.026-.931,1.615-2.489,1.615a7.012,7.012,0,0,1-4.5-1.938l-.969,1.938a8.181,8.181,0,0,0,5.434,2.109c2.926,0,5.016-1.463,5.016-3.838.019-4.788-7.163-3.23-7.163-6.137,0-.893.855-1.387,2.166-1.387A7.95,7.95,0,0,1,55.4,19.949Zm8.759,7.733a3.527,3.527,0,0,1-1.52.437c-.684,0-1.083-.323-1.083-1.368V21.906h2.983V20.272H61.56V17.5H59.394v2.774H57.969v1.634h1.425V27.15a2.663,2.663,0,0,0,2.831,2.945,4.854,4.854,0,0,0,2.489-.741Zm6.783-7.866a4.943,4.943,0,0,0-5.282,5.111,5.274,5.274,0,0,0,10.545,0A4.938,4.938,0,0,0,70.946,19.816Zm0,1.862a3.052,3.052,0,0,1,3.078,3.287,3.094,3.094,0,1,1-6.175,0A3.056,3.056,0,0,1,70.946,21.678Zm9.728.228V19.892H78.489V30h2.185V24.718a3.061,3.061,0,0,1,3.5-2.812v-2.09A3.675,3.675,0,0,0,80.674,21.906Zm9.462-2.09a4.908,4.908,0,0,0-5.111,5.149,4.862,4.862,0,0,0,5.168,5.111,5.5,5.5,0,0,0,4.18-1.71l-1.159-1.235a3.93,3.93,0,0,1-2.85,1.178,3.077,3.077,0,0,1-3.135-2.527h7.638C95.133,22.134,93.689,19.816,90.136,19.816Zm-2.945,4.37a2.864,2.864,0,0,1,2.964-2.622,2.6,2.6,0,0,1,2.812,2.622Z" transform="translate(230 1869)"/><path class="a" d="M28.564,26.993A18.831,18.831,0,0,1,26.7,30.341a17.011,17.011,0,0,1-2.4,2.9A4.653,4.653,0,0,1,21.22,34.6a7.727,7.727,0,0,1-2.848-.68,8.171,8.171,0,0,0-3.066-.678,8.449,8.449,0,0,0-3.153.678,8.483,8.483,0,0,1-2.724.716A4.381,4.381,0,0,1,6.276,33.24a17.862,17.862,0,0,1-2.509-3,20.76,20.76,0,0,1-2.653-5.27A19.3,19.3,0,0,1,0,18.687a11.47,11.47,0,0,1,1.506-6A8.836,8.836,0,0,1,4.661,9.5a8.486,8.486,0,0,1,4.265-1.2,10.042,10.042,0,0,1,3.3.768,10.6,10.6,0,0,0,2.616.769,15.656,15.656,0,0,0,2.9-.906,9.59,9.59,0,0,1,3.944-.7,8.373,8.373,0,0,1,6.559,3.454,7.3,7.3,0,0,0-3.87,6.628,7.312,7.312,0,0,0,2.4,5.509,7.89,7.89,0,0,0,2.4,1.574q-.289.837-.611,1.606ZM21.88.693A7.389,7.389,0,0,1,19.986,5.54a6.454,6.454,0,0,1-5.36,2.646,5.393,5.393,0,0,1-.04-.656,7.592,7.592,0,0,1,2.01-4.9A7.737,7.737,0,0,1,19.043.794,7.3,7.3,0,0,1,21.844,0a6.291,6.291,0,0,1,.036.693Z" transform="translate(188.607 1866.561)"/></g></svg>