<svg xmlns="http://www.w3.org/2000/svg" xmlns:xlink="http://www.w3.org/1999/xlink" width="1920" height="945" viewBox="0 0 1920 945"><defs><style>.a{fill:#57c1a6;}.b{clip-path:url(#a);}.c{fill:rgba(77,183,156,0.5);}</style><clipPath id="a"><rect class="a" width="1920" height="945"/></clipPath></defs><rect class="a" width="1920" height="945"/><g class="b"><path class="c" d="M1213.7,43.32c39.583,106.98-43.862,305.963,0,461.084,44.932,154.051,219.309,262.1,247.124,368.012s-92,208.611-218.24,209.681c-127.306,1.07-262.1-99.492-379.779-124.1-116.608-24.605-217.17,28.885-370.151,36.373C338.6,1001.862,131.059,964.419,16.59,842.462c-115.539-121.957-138-329.5-50.281-470.713,86.654-142.284,283.5-218.239,448.247-284.567S711.961-34.776,860.664-56.172,1174.116-63.66,1213.7,43.32Z" transform="translate(248.161 -35.902)"/></g></svg>