<svg xmlns="http://www.w3.org/2000/svg" width="26.477" height="26.477" viewBox="0 0 26.477 26.477"><defs><style>.a{fill:#57c1a6;stroke:#57c1a6;stroke-width:0.5px;}</style></defs><path class="a" d="M18.912,7.547l1.142,1.142-9.5,9.5-4.63-4.63,1.142-1.142,3.488,3.488ZM12.988,0a12.794,12.794,0,0,1,3.45.463,13.135,13.135,0,0,1,3.108,1.306,12.964,12.964,0,0,1,4.661,4.661,13.135,13.135,0,0,1,1.306,3.108,13.086,13.086,0,0,1,0,6.9,13.135,13.135,0,0,1-1.306,3.108,12.964,12.964,0,0,1-4.661,4.661,13.135,13.135,0,0,1-3.108,1.306,13.086,13.086,0,0,1-6.9,0,13.135,13.135,0,0,1-3.108-1.306,12.964,12.964,0,0,1-4.661-4.661,13.163,13.163,0,0,1-1.306-3.1,13.11,13.11,0,0,1,0-6.906A13.135,13.135,0,0,1,1.769,6.431,12.964,12.964,0,0,1,6.431,1.769,13.163,13.163,0,0,1,9.532.463,12.772,12.772,0,0,1,12.988,0Zm0,24.353A11.139,11.139,0,0,0,16,23.947a11.425,11.425,0,0,0,7.946-7.94,11.405,11.405,0,0,0,0-6.031A11.413,11.413,0,0,0,16,2.029a11.382,11.382,0,0,0-6.025,0A11.413,11.413,0,0,0,2.029,9.976a11.382,11.382,0,0,0,0,6.025,11.425,11.425,0,0,0,7.94,7.946A11.118,11.118,0,0,0,12.988,24.353Z" transform="translate(0.25 0.25)"/></svg>