<svg xmlns="http://www.w3.org/2000/svg" width="39.78" height="30" viewBox="0 0 39.78 30"><defs><style>.a{fill:#57c1a6;}.b{fill:#fff;}.c{fill:#1a545d;}</style></defs><g transform="translate(-16 -78.009)"><path class="a" d="M12602.271-12965.859s-9.409-4.4-3.86-21.845c3.692-5.991,6.3-5.28,6.3-5.28s1.3-1.477,5.949-.524c4.165-1.436,4.945-.378,4.945-.378s4.687,1.291,7.869.9a11.867,11.867,0,0,1,6.032,1.034s3.417,2.87,3.736,6.642a25.4,25.4,0,0,1-.991,8.088l-.5,2.179-.766,8.531h-7.1s-.771-3.936,2.568-3.943a6.97,6.97,0,0,0-.276-2.163,11.553,11.553,0,0,1-2.292-2.9c-1.691.143-4.125,1.371-9.23-.38,0,3.155,0,9.387,0,9.387h-7.386s-.693-3.536,2.093-3.943c0-1.838,0-6.432,0-6.432s-2.432.945-3.426.612c.071-1.839,0-3.564,0-3.564l-4.7.987s-2,4.568,3.019,10.613C12602.07-12965.324,12602.271-12965.859,12602.271-12965.859Z" transform="translate(-12580 13073.009)"/><path class="b" d="M51.478,82c-2.016-2.351-5.269-3.192-9.671-2.5a16.925,16.925,0,0,1-6.284-1.255.662.662,0,0,0-.087-.036,7.052,7.052,0,0,0-4.923.591A11.07,11.07,0,0,0,21.626,80.6C17.893,83.419,16,88.848,16,96.737a16.229,16.229,0,0,0,.778,4.512,10.467,10.467,0,0,0,5.583,6.7.663.663,0,0,0,.8-.208l1.989-2.652a.663.663,0,0,0-.133-.928,9.781,9.781,0,0,1-2.23-2.625,8.742,8.742,0,0,1-.96-6.858l3.456-.494v2.551a.663.663,0,0,0,.616.661,9.044,9.044,0,0,0,2.7-.322v5.048a2.657,2.657,0,0,0-1.989,2.568v1.989a.663.663,0,0,0,.663.663h7.293a.663.663,0,0,0,.663-.663V97.957c1.364.675,4.018,1.393,8.286.228a9.51,9.51,0,0,0,2.322,2.9v.954a2.655,2.655,0,0,0-2.652,2.652v1.989a.663.663,0,0,0,.663.663h7.293a.663.663,0,0,0,.661-.612l.657-8.543a32.6,32.6,0,0,0,1.19-6.012,25.082,25.082,0,0,0,.129-2.508,36.337,36.337,0,0,1,.677,7.731.663.663,0,0,0,1.326,0c0-7.941-1.435-11.185-2.7-12.5A8.654,8.654,0,0,0,51.478,82ZM51.171,97.86a.66.66,0,0,0-.03.153l-.616,8.007H44.509v-1.326a1.328,1.328,0,0,1,1.326-1.326H46.5a.663.663,0,0,0,.663-.663v-1.989a.663.663,0,0,0-.366-.593A8.2,8.2,0,0,1,44.439,97.1a.662.662,0,0,0-.783-.338A12.938,12.938,0,0,1,37,97.2a4.8,4.8,0,0,1-1.967-.935.663.663,0,0,0-1.132.469v9.282H27.934v-1.326a1.328,1.328,0,0,1,1.326-1.326.663.663,0,0,0,.663-.663V96.628a10.185,10.185,0,0,0,6.529-7.191,11.161,11.161,0,0,0,.082-4.79.663.663,0,0,0-.315-.419l-4.025-2.3a1.985,1.985,0,0,0-1.876-.052L28.3,82.884a.663.663,0,0,0,.593,1.186l2.017-1.009a.662.662,0,0,1,.626.017L35.3,85.228a10.206,10.206,0,0,1-.147,3.952c-.727,2.985-2.786,5.129-6.121,6.373a8.813,8.813,0,0,1-2.421.512V90.77a.663.663,0,0,0-1.326,0v2.077l-4.072.582a.663.663,0,0,0-.541.466,10.2,10.2,0,0,0,.976,8.318,11.669,11.669,0,0,0,2.072,2.579l-1.29,1.719a9.215,9.215,0,0,1-4.376-5.632,15.178,15.178,0,0,1-.725-4.142,28.193,28.193,0,0,1,1.553-10.1,11.143,11.143,0,0,1,3.532-4.965,9.267,9.267,0,0,1,5.645-1.8,9.718,9.718,0,0,1,2.348.264.662.662,0,0,0,.479-.045,5.943,5.943,0,0,1,4.1-.637,18.309,18.309,0,0,0,6.875,1.37.654.654,0,0,0,.1-.008c3.942-.63,6.8.056,8.508,2.042C54.444,87.492,51.205,97.753,51.171,97.86Z" transform="translate(0 0)"/><circle class="c" cx="0.5" cy="0.5" r="0.5" transform="translate(23.477 86.435)"/></g></svg>