<svg xmlns="http://www.w3.org/2000/svg" xmlns:xlink="http://www.w3.org/1999/xlink" width="181" height="151" viewBox="0 0 181 151"><defs><style>.a,.b,.c,.j,.l{fill:none;}.b{opacity:0.441;}.c{stroke:#1a545d;stroke-width:2.079px;}.c,.j,.l{stroke-miterlimit:10;}.d{fill:#c92d2d;}.e{fill:#a52121;}.f{fill:#1a545d;}.g{fill:#aec7c6;}.h{fill:#e8eff2;}.i{clip-path:url(#a);}.j{stroke:#bcbcbc;opacity:0.15;}.j,.l{stroke-width:0.693px;}.k{clip-path:url(#b);}.l{stroke:#b5b5b5;opacity:0.1;}.m{fill:#aec7c9;}.n{fill:#9eb2b2;}.o{fill:#57c1a6;}.p{fill:#fff;}</style><clipPath id="a"><rect class="a" width="9.543" height="84.64"/></clipPath><clipPath id="b"><rect class="a" width="101.651" height="12.447"/></clipPath></defs><g transform="translate(-368.091 -1297.43)"><rect class="b" width="181" height="151" transform="translate(368.091 1297.43)"/><line class="c" x2="6.3" y2="12.149" transform="translate(463.909 1342.663)"/><line class="c" x1="6.3" y2="12.149" transform="translate(523.409 1342.663)"/><rect class="d" width="63.895" height="38.586" transform="translate(466.644 1351.227)"/><rect class="e" width="3.319" height="38.586" transform="translate(463.325 1351.227)"/><circle class="f" cx="1.245" cy="1.245" r="1.245" transform="translate(469.548 1354.961)"/><circle class="f" cx="1.245" cy="1.245" r="1.245" transform="translate(521.826 1354.961)"/><line class="c" x2="3.319" y2="13.277" transform="translate(467.474 1342.514)"/><line class="c" x1="3.319" y2="13.277" transform="translate(522.825 1342.514)"/><rect class="g" width="2.075" height="84.64" transform="translate(448.388 1316.79)"/><rect class="h" width="9.543" height="84.64" transform="translate(450.048 1316.79)"/><g transform="translate(450.048 1316.79)"><g class="i"><g transform="translate(-1.185 -0.923)"><path class="j" d="M495.391,1315.248a32.491,32.491,0,0,0-.979,7.51,14.836,14.836,0,0,0,.16,2.648,9.762,9.762,0,0,0,3.882,6.241" transform="translate(-487.929 -1315.248)"/><path class="j" d="M487.588,1359.742c-.545,3.35,1.07,6.67,2.986,9.471,1.325,1.938,2.983,3.872,5.261,4.438" transform="translate(-485.148 -1333.109)"/><path class="j" d="M484.793,1383.419c4.1,4.559,8.384,9.528,9.127,15.611a33.6,33.6,0,0,1-.611,8.964q-.7,4.738-1.1,9.515c-.287,3.447-.288,7.366,2.178,9.792" transform="translate(-484.069 -1342.613)"/><path class="j" d="M484.018,1401.405c.819,2.685,2.6,4.981,3.553,7.619a22.893,22.893,0,0,1,1.108,6.168,10.041,10.041,0,0,1-.2,3.586,3.706,3.706,0,0,1-2.313,2.579c-.844.251-1.93.179-2.385.933a1.939,1.939,0,0,0-.2,1.03c.057,5.02,4.419,9.1,4.969,14.089" transform="translate(-483.583 -1349.833)"/></g></g></g><rect class="h" width="101.651" height="12.447" transform="translate(432.622 1330.482)"/><g transform="translate(432.622 1330.482)"><g class="k"><g transform="translate(1.212 -1.535)"><path class="l" d="M458.475,1339.277a4.028,4.028,0,0,0,2.173,3.311,10.776,10.776,0,0,0,3.972,1.106,30.039,30.039,0,0,0,3.842.317,6.315,6.315,0,0,0,2.216-.3c1.949-.718,3.14-2.956,5.179-3.349" transform="translate(-458.475 -1337.974)"/><path class="l" d="M491.878,1339.35a11.277,11.277,0,0,0-4.321,5.984l-1.583,3.687a16.374,16.374,0,0,1-2.2,4.031" transform="translate(-468.632 -1338.003)"/><path class="l" d="M512.511,1339.122a10.654,10.654,0,0,1,1.165,4.853c0,1.946-.52,4.017.35,5.758a1.423,1.423,0,0,0,1.089.9" transform="translate(-480.166 -1337.911)"/><path class="l" d="M525.066,1339.037a36.621,36.621,0,0,0,3.214,4.442,9.517,9.517,0,0,0,1.99,1.891c2.073,1.358,4.759,1.163,7.225.917a8.634,8.634,0,0,0,3.632-.91,6.453,6.453,0,0,0,1.95-1.978,12.739,12.739,0,0,0,1.929-4.566" transform="translate(-485.206 -1337.796)"/><path class="l" d="M555.758,1352.455a8.129,8.129,0,0,1,2.731-3.389,13.2,13.2,0,0,1,3.092-1.181,20,20,0,0,0,11.809-10.291" transform="translate(-497.526 -1337.298)"/><path class="l" d="M596.8,1337.534a13.96,13.96,0,0,1,.017,3.568,4.7,4.7,0,0,1-1.7,3.05c-1.033.761-2.386.895-3.576,1.374a1.889,1.889,0,0,0-.589.338,1.488,1.488,0,0,0-.107,1.841,3.683,3.683,0,0,0,1.56,1.213,6.821,6.821,0,0,1,1.716,1.016c.657.614,1.065,1.572,1.926,1.833" transform="translate(-511.507 -1337.274)"/><path class="l" d="M614,1337.1c-.527,1.563.448,3.2,1.38,4.559a17.874,17.874,0,0,0,2.494,3.117,9,9,0,0,0,5.909,2.367" transform="translate(-520.847 -1337.1)"/></g></g></g><rect class="m" width="2.075" height="12.447" transform="translate(430.755 1330.689)"/><circle class="n" cx="1.66" cy="1.66" r="1.66" transform="translate(453.575 1335.253)"/><path class="o" d="M397.28,1465.771a13.245,13.245,0,0,1,3.309-10.916,21.05,21.05,0,0,1,9.982-6.007c1.614-.479,3.674-.684,4.686.662,2.335-5.716,9.195-8.729,15.3-7.813s11.344,5.089,14.891,10.142a13.42,13.42,0,0,1,17.449.753,3.142,3.142,0,0,0,1.337.967,2.574,2.574,0,0,0,1.313-.115c2.617-.738,5.09-2.148,7.807-2.251a12.483,12.483,0,0,1,6.048,1.605,24.84,24.84,0,0,1,11.939,13.557" transform="translate(0 -50.075)"/><path class="p" d="M2.355,6.774V18.252h3V14.109h5.141v-2.39H5.351V9.164h5.567l.016-2.39ZM23.231,18.252,20.84,14.5a3.88,3.88,0,0,0,2.047-3.7c0-2.554-1.736-4.028-4.781-4.028H12.948V18.252h3V15.075h2.227l1.67,3.176ZM15.945,9.164h2.178c1.212,0,1.916.606,1.916,1.736a1.677,1.677,0,0,1-1.916,1.785H15.945Zm9.513-2.39V18.252h9.218v-2.39H28.454V13.7l5.469-.016V11.309H28.454V9.164h6.058V6.774Zm11.707,0V18.252h9.218v-2.39H40.161V13.7l5.469-.016V11.309H40.161V9.164h6.058V6.774Z" transform="translate(474.247 1358.774)"/></g></svg>