<svg xmlns="http://www.w3.org/2000/svg" xmlns:xlink="http://www.w3.org/1999/xlink" width="50" height="50" viewBox="0 0 50 50"><defs><style>.a,.b,.c,.k,.m{fill:none;}.b{opacity:0.139;}.c{stroke:#57c1a6;stroke-width:0.998px;}.c,.k,.m{stroke-miterlimit:10;}.d{fill:#fde76c;}.e{fill:#ceb941;}.f{fill:#1a545d;}.g{fill:#57c1a6;}.h{fill:#aec7c6;}.i{fill:#e8eff2;}.j{clip-path:url(#a);}.k{stroke:#bcbcbc;opacity:0.15;}.k,.m{stroke-width:0.333px;}.l{clip-path:url(#b);}.m{stroke:#b5b5b5;opacity:0.1;}.n{fill:#aec7c9;}.o{fill:#9eb2b2;}</style><clipPath id="a"><rect class="a" width="3.46" height="30.691"/></clipPath><clipPath id="b"><rect class="a" width="36.859" height="4.513"/></clipPath></defs><g transform="translate(-458.671 -1350.164)"><rect class="b" width="50" height="50" transform="translate(458.671 1350.164)"/><line class="c" x2="2.285" y2="4.405" transform="translate(482.9 1366.382)"/><line class="c" x1="2.285" y2="4.405" transform="translate(504.475 1366.382)"/><rect class="d" width="23.169" height="13.992" transform="translate(483.891 1369.487)"/><rect class="e" width="1.204" height="13.992" transform="translate(482.688 1369.487)"/><g transform="translate(488.115 1371.412)"><path class="f" d="M532.364,1392.547h-.746v.4h.679v.524h-.679v.936H531v-2.382h1.365Z" transform="translate(-526.837 -1391.955)"/><path class="f" d="M534.591,1393.132a1.241,1.241,0,0,1,.1-.494,1.222,1.222,0,0,1,.272-.4,1.235,1.235,0,0,1,.415-.267,1.509,1.509,0,0,1,1.063,0,1.251,1.251,0,0,1,.419.267,1.219,1.219,0,0,1,.273.4,1.294,1.294,0,0,1,0,.989,1.223,1.223,0,0,1-.273.4,1.26,1.26,0,0,1-.419.267,1.516,1.516,0,0,1-1.063,0,1.244,1.244,0,0,1-.415-.267,1.226,1.226,0,0,1-.272-.4A1.241,1.241,0,0,1,534.591,1393.132Zm.648,0a.634.634,0,0,0,.053.262.664.664,0,0,0,.146.209.651.651,0,0,0,.213.138.7.7,0,0,0,.515,0,.671.671,0,0,0,.215-.138.654.654,0,0,0,.147-.209.67.67,0,0,0,0-.524.659.659,0,0,0-.147-.209.694.694,0,0,0-.73-.137.656.656,0,0,0-.213.137.669.669,0,0,0-.146.209A.631.631,0,0,0,535.239,1393.132Z" transform="translate(-528.805 -1391.875)"/><path class="f" d="M543.273,1394.4h-.77l-.591-.916v.916h-.619v-2.382h.964a.946.946,0,0,1,.347.058.653.653,0,0,1,.39.393.818.818,0,0,1,.049.284.7.7,0,0,1-.131.441.658.658,0,0,1-.387.229Zm-1.361-1.318h.117a.45.45,0,0,0,.281-.076.291.291,0,0,0,0-.436.451.451,0,0,0-.281-.076h-.117Z" transform="translate(-532.476 -1391.955)"/><path class="f" d="M524.489,1404.236a1.457,1.457,0,0,0-.385-.232,1.026,1.026,0,0,0-.373-.076.6.6,0,0,0-.373.109.337.337,0,0,0-.144.282.282.282,0,0,0,.072.2.628.628,0,0,0,.189.135,1.6,1.6,0,0,0,.265.1c.1.028.2.058.292.09a1.826,1.826,0,0,1,.845.515,1.27,1.27,0,0,1,.268.84,1.635,1.635,0,0,1-.117.632,1.316,1.316,0,0,1-.343.484,1.58,1.58,0,0,1-.553.313,2.3,2.3,0,0,1-.743.111,2.73,2.73,0,0,1-1.595-.511l.505-.951a2.035,2.035,0,0,0,.523.349,1.256,1.256,0,0,0,.511.115.61.61,0,0,0,.43-.133.409.409,0,0,0,.105-.478.382.382,0,0,0-.12-.138.975.975,0,0,0-.22-.117q-.136-.054-.328-.12-.229-.072-.448-.16a1.4,1.4,0,0,1-.391-.231,1.076,1.076,0,0,1-.277-.364,1.288,1.288,0,0,1-.105-.556,1.6,1.6,0,0,1,.112-.611,1.353,1.353,0,0,1,.313-.469,1.392,1.392,0,0,1,.493-.3,1.872,1.872,0,0,1,.653-.108,2.871,2.871,0,0,1,.7.093,3.088,3.088,0,0,1,.7.274Z" transform="translate(-521.793 -1397.942)"/><path class="f" d="M532.913,1406.976h-1.685l-.271.788H529.7l1.727-4.537h1.288l1.727,4.537h-1.257Zm-.313-.9-.53-1.511-.529,1.511Z" transform="translate(-526.124 -1398.094)"/><path class="f" d="M542.512,1403.227v3.539h1.414v1h-2.593v-4.537Z" transform="translate(-532.498 -1398.094)"/><path class="f" d="M550.995,1404.226h-1.4v.758h1.324v1h-1.324v.783h1.4v1h-2.582v-4.537h2.582Z" transform="translate(-536.377 -1398.094)"/></g><circle class="g" cx="0.451" cy="0.451" r="0.451" transform="translate(484.945 1370.841)"/><circle class="g" cx="0.451" cy="0.451" r="0.451" transform="translate(503.901 1370.841)"/><line class="c" x2="1.204" y2="4.814" transform="translate(484.192 1366.328)"/><line class="c" x1="1.204" y2="4.814" transform="translate(504.263 1366.328)"/><rect class="h" width="0.752" height="30.691" transform="translate(477.272 1357)"/><rect class="i" width="3.46" height="30.691" transform="translate(477.874 1357)"/><g transform="translate(477.874 1357)"><g class="j"><g transform="translate(-0.429 -0.335)"><path class="k" d="M503.745,1359.26a11.8,11.8,0,0,0-.355,2.723,5.4,5.4,0,0,0,.058.96,3.538,3.538,0,0,0,1.408,2.263" transform="translate(-501.04 -1359.26)"/><path class="k" d="M500.1,1380.619a4.913,4.913,0,0,0,1.083,3.434,3.555,3.555,0,0,0,1.908,1.61" transform="translate(-499.218 -1370.962)"/><path class="k" d="M498.773,1391.986c1.485,1.653,3.04,3.455,3.31,5.66a12.188,12.188,0,0,1-.222,3.251q-.256,1.718-.4,3.45c-.1,1.25-.1,2.671.79,3.55" transform="translate(-498.511 -1377.189)"/><path class="k" d="M498.35,1400.62c.3.973.941,1.806,1.289,2.762a8.3,8.3,0,0,1,.4,2.237,3.623,3.623,0,0,1-.071,1.3,1.342,1.342,0,0,1-.839.935c-.306.091-.7.065-.865.339a.7.7,0,0,0-.073.373c.02,1.821,1.6,3.3,1.8,5.109" transform="translate(-498.193 -1381.92)"/></g></g></g><rect class="i" width="36.859" height="4.513" transform="translate(471.555 1361.965)"/><g transform="translate(471.555 1361.965)"><g class="l" transform="translate(0 0)"><g transform="translate(0.439 -0.556)"><path class="m" d="M486.139,1370.8a1.46,1.46,0,0,0,.788,1.2,3.9,3.9,0,0,0,1.44.4,10.986,10.986,0,0,0,1.393.115,2.294,2.294,0,0,0,.8-.109c.706-.26,1.138-1.072,1.878-1.214" transform="translate(-486.139 -1370.323)"/><path class="m" d="M501.223,1370.83a4.093,4.093,0,0,0-1.567,2.17l-.574,1.337a5.937,5.937,0,0,1-.8,1.462" transform="translate(-492.793 -1370.342)"/><path class="m" d="M512.079,1370.721a3.865,3.865,0,0,1,.423,1.759,4.6,4.6,0,0,0,.127,2.088.517.517,0,0,0,.4.327" transform="translate(-500.351 -1370.282)"/><path class="m" d="M518.107,1370.656a13.267,13.267,0,0,0,1.165,1.61,3.436,3.436,0,0,0,.722.686,4.018,4.018,0,0,0,2.62.332,3.131,3.131,0,0,0,1.317-.33,2.336,2.336,0,0,0,.707-.717,4.618,4.618,0,0,0,.7-1.656" transform="translate(-503.653 -1370.206)"/><path class="m" d="M532.84,1375.376a2.951,2.951,0,0,1,.99-1.229,4.8,4.8,0,0,1,1.121-.428,7.252,7.252,0,0,0,4.282-3.731" transform="translate(-511.725 -1369.88)"/><path class="m" d="M551.814,1369.958a5.089,5.089,0,0,1,.006,1.294,1.708,1.708,0,0,1-.615,1.106,5.566,5.566,0,0,1-1.3.5.688.688,0,0,0-.214.123.54.54,0,0,0-.038.667,1.338,1.338,0,0,0,.566.44,2.462,2.462,0,0,1,.622.368c.238.223.386.57.7.665" transform="translate(-520.885 -1369.864)"/><path class="m" d="M560.783,1369.75a1.982,1.982,0,0,0,.5,1.653,6.5,6.5,0,0,0,.9,1.13,3.267,3.267,0,0,0,2.143.859" transform="translate(-527.005 -1369.75)"/></g></g></g><rect class="n" width="0.752" height="4.513" transform="translate(470.878 1362.04)"/><circle class="o" cx="0.602" cy="0.602" r="0.602" transform="translate(479.152 1363.695)"/><path class="g" d="M456.74,1428.672a4.8,4.8,0,0,1,1.2-3.958,7.637,7.637,0,0,1,3.62-2.178c.586-.173,1.332-.248,1.7.24a5.2,5.2,0,0,1,5.548-2.833,8.406,8.406,0,0,1,5.4,3.677,4.866,4.866,0,0,1,6.327.274,1.142,1.142,0,0,0,.485.35.933.933,0,0,0,.476-.042,12.581,12.581,0,0,1,2.831-.816,4.532,4.532,0,0,1,2.193.582,9.007,9.007,0,0,1,4.33,4.916" transform="translate(2 -35.809)"/></g></svg>