<svg xmlns="http://www.w3.org/2000/svg" xmlns:xlink="http://www.w3.org/1999/xlink" width="196" height="59" viewBox="0 0 196 59"><defs><style>.a,.b,.i{fill:#fff;}.a{stroke:#fff;stroke-miterlimit:10;stroke-width:0.2px;}.c{fill:url(#a);}.d{fill:url(#b);}.e{fill:url(#c);}.f{fill:url(#d);}.g{opacity:0.2;}.g,.h,.i{isolation:isolate;}.h{opacity:0.12;}.i{opacity:0.25;}</style><linearGradient id="a" x1="0.915" y1="6.614" x2="-0.383" y2="5.945" gradientUnits="objectBoundingBox"><stop offset="0" stop-color="#00a0ff"/><stop offset="0.007" stop-color="#00a1ff"/><stop offset="0.26" stop-color="#00beff"/><stop offset="0.512" stop-color="#00d2ff"/><stop offset="0.76" stop-color="#00dfff"/><stop offset="1" stop-color="#00e3ff"/></linearGradient><linearGradient id="b" x1="1.076" y1="17.098" x2="-1.305" y2="17.098" gradientUnits="objectBoundingBox"><stop offset="0" stop-color="#ffe000"/><stop offset="0.409" stop-color="#ffbd00"/><stop offset="0.775" stop-color="orange"/><stop offset="1" stop-color="#ff9c00"/></linearGradient><linearGradient id="c" x1="0.862" y1="10.863" x2="-0.501" y2="9.093" gradientUnits="objectBoundingBox"><stop offset="0" stop-color="#ff3a44"/><stop offset="1" stop-color="#c31162"/></linearGradient><linearGradient id="d" x1="-0.188" y1="13.583" x2="0.421" y2="12.793" gradientUnits="objectBoundingBox"><stop offset="0" stop-color="#32a071"/><stop offset="0.068" stop-color="#2da771"/><stop offset="0.476" stop-color="#15cf74"/><stop offset="0.801" stop-color="#06e775"/><stop offset="1" stop-color="#00f076"/></linearGradient></defs><g transform="translate(-383 -1857)"><rect width="196" height="59" rx="29.5" transform="translate(383 1857)"/><g transform="translate(395.027 1856.134)"><g transform="translate(54.883 16.866)"><path class="a" d="M58.1,20.623a3.013,3.013,0,0,1-.829,2.228,3.235,3.235,0,0,1-2.452.988,3.438,3.438,0,0,1-3.468-3.487,3.438,3.438,0,0,1,3.468-3.487,3.456,3.456,0,0,1,1.371.279,2.746,2.746,0,0,1,1.044.747l-.586.586a2.258,2.258,0,0,0-1.828-.791,2.581,2.581,0,0,0-2.592,2.666,2.625,2.625,0,0,0,4.457,1.921,2.1,2.1,0,0,0,.56-1.353H54.82v-.8h3.235A2.845,2.845,0,0,1,58.1,20.623Z" transform="translate(-51.352 -16.866)"/><path class="a" d="M62.422,17.82H59.382v2.117h2.741v.8H59.382v2.117h3.041v.82h-3.9V17h3.9Z" transform="translate(-50.545 -16.851)"/><path class="a" d="M65.554,23.675H64.7V17.82H62.832V17h4.587v.82H65.554Z" transform="translate(-50.06 -16.851)"/><path class="a" d="M69.938,23.675V17h.857v6.675Z" transform="translate(-49.261 -16.851)"/><path class="a" d="M74.4,23.675h-.858V17.82H71.681V17h4.587v.82H74.4Z" transform="translate(-49.064 -16.851)"/><path class="a" d="M84.2,22.828a3.466,3.466,0,0,1-4.894,0,3.607,3.607,0,0,1,0-4.951,3.455,3.455,0,0,1,4.89,0,3.6,3.6,0,0,1,0,4.946Zm-4.261-.56a2.568,2.568,0,0,0,3.627,0,2.844,2.844,0,0,0,0-3.832,2.568,2.568,0,0,0-3.627,0,2.847,2.847,0,0,0,0,3.832Z" transform="translate(-48.317 -16.866)"/><path class="a" d="M85.575,23.675V17H86.62l3.244,5.192H89.9l-.037-1.286V17h.858v6.675h-.894L86.433,18.23H86.4l.037,1.287v4.158Z" transform="translate(-47.501 -16.851)"/></g><path class="b" d="M81.185,32.281a4.732,4.732,0,1,0,4.749,4.732A4.664,4.664,0,0,0,81.185,32.281Zm0,7.6a2.875,2.875,0,1,1,2.67-2.867A2.737,2.737,0,0,1,81.185,39.88Zm-10.361-7.6a4.732,4.732,0,1,0,4.749,4.732A4.664,4.664,0,0,0,70.824,32.281Zm0,7.6a2.875,2.875,0,1,1,2.67-2.867A2.737,2.737,0,0,1,70.824,39.88ZM58.5,33.733V35.74h4.8a4.189,4.189,0,0,1-1.093,2.527,4.918,4.918,0,0,1-3.71,1.47,5.341,5.341,0,0,1,0-10.681,5.117,5.117,0,0,1,3.62,1.434l1.416-1.416A7,7,0,0,0,58.5,27.047a7.35,7.35,0,1,0,0,14.7,6.715,6.715,0,0,0,5.125-2.062,6.633,6.633,0,0,0,1.739-4.7,6.485,6.485,0,0,0-.108-1.254ZM108.9,35.292a4.4,4.4,0,0,0-4.051-3.01,4.5,4.5,0,0,0-4.462,4.732,4.63,4.63,0,0,0,4.7,4.732,4.706,4.706,0,0,0,3.943-2.1l-1.613-1.076a2.7,2.7,0,0,1-2.33,1.308,2.408,2.408,0,0,1-2.3-1.433l6.327-2.618Zm-6.453,1.578a2.6,2.6,0,0,1,2.473-2.76,1.83,1.83,0,0,1,1.757,1Zm-5.143,4.588h2.078V27.549H97.309ZM93.9,33.338h-.071a3.279,3.279,0,0,0-2.491-1.057,4.736,4.736,0,0,0,0,9.463,3.224,3.224,0,0,0,2.491-1.076H93.9v.682c0,1.81-.967,2.778-2.527,2.778a2.619,2.619,0,0,1-2.384-1.685l-1.81.753a4.509,4.509,0,0,0,4.194,2.8c2.438,0,4.5-1.434,4.5-4.928v-8.5H93.9ZM91.519,39.88a2.878,2.878,0,0,1,0-5.735,2.666,2.666,0,0,1,2.527,2.886A2.643,2.643,0,0,1,91.519,39.88Zm27.125-12.33h-4.974V41.458h2.075V36.189h2.9a4.326,4.326,0,1,0,0-8.639Zm.053,6.7h-2.953V29.486H118.7a2.384,2.384,0,1,1,0,4.767Zm12.83-2a3.9,3.9,0,0,0-3.7,2.128l1.843.77a1.966,1.966,0,0,1,1.9-1.02,2,2,0,0,1,2.183,1.79v.142a4.592,4.592,0,0,0-2.165-.536c-1.986,0-4.008,1.091-4.008,3.131a3.214,3.214,0,0,0,3.453,3.061,2.929,2.929,0,0,0,2.649-1.361h.071v1.074h2V36.1C135.749,33.633,133.906,32.256,131.527,32.256Zm-.25,7.622c-.681,0-1.629-.339-1.629-1.18,0-1.074,1.18-1.485,2.2-1.485a3.7,3.7,0,0,1,1.9.465A2.516,2.516,0,0,1,131.276,39.878Zm11.773-7.318-2.38,6.03H140.6l-2.47-6.03h-2.236l3.7,8.427-2.112,4.688h2.165l5.708-13.116Zm-18.7,8.9h2.076V27.55h-2.076Z" transform="translate(3.496 1.146)"/><g transform="translate(19.973 17.171)"><path class="c" d="M20.487,17.546a2.233,2.233,0,0,0-.514,1.563v24.6a2.231,2.231,0,0,0,.514,1.563l.082.08L34.352,31.574v-.325L20.569,17.465Z" transform="translate(-19.973 -17.104)"/><path class="d" d="M37.493,35.242l-4.595-4.6V30.32l4.6-4.6.1.06,5.444,3.093c1.554.883,1.554,2.329,0,3.212L37.6,35.182Z" transform="translate(-18.519 -16.175)"/><path class="e" d="M39,34.7,34.3,30,20.435,43.866a1.81,1.81,0,0,0,2.313.068L39,34.7" transform="translate(-19.921 -15.693)"/><path class="f" d="M39,26.749,22.748,17.515a1.81,1.81,0,0,0-2.313.068L34.3,31.448Z" transform="translate(-19.921 -17.14)"/><g transform="translate(0 18.904)"><path class="g" d="M38.9,34.132,22.748,43.307a1.852,1.852,0,0,1-2.23.012h0l-.083.082h0l.082.081h0a1.852,1.852,0,0,0,2.23-.012L39,34.235Z" transform="translate(-19.921 -34.132)"/><path class="h" d="M20.487,42.476a2.231,2.231,0,0,1-.514-1.563v.164a2.228,2.228,0,0,0,.514,1.562l.083-.082Z" transform="translate(-19.973 -33.369)"/></g><path class="h" d="M42.576,31.445,37.029,34.6l.1.1,5.444-3.093A1.953,1.953,0,0,0,43.742,30h0A2.07,2.07,0,0,1,42.576,31.445Z" transform="translate(-18.054 -15.693)"/><path class="i" d="M22.8,17.677,44.5,30a2.07,2.07,0,0,1,1.166,1.444h0A1.95,1.95,0,0,0,44.5,29.842L22.8,17.515c-1.555-.883-2.827-.149-2.827,1.631v.164C19.973,17.528,21.245,16.794,22.8,17.677Z" transform="translate(-19.973 -17.14)"/></g></g></g></svg>