<svg xmlns="http://www.w3.org/2000/svg" xmlns:xlink="http://www.w3.org/1999/xlink" width="181" height="167.515" viewBox="0 0 181 167.515"><defs><style>.a{fill:none;opacity:0.441;}.b{fill:rgba(87,193,166,0.17);}.c{fill:url(#a);}.d{fill:#57c1a6;}.e{fill:url(#b);}.f{fill:url(#z);}.g{fill:#b25b70;}.h{fill:#311649;}.i{fill:#4a236e;}.j{fill:#45215f;}.k{fill:#462261;}.l{fill:url(#aa);}.m{fill:url(#ab);}.n{fill:url(#ac);}.o{fill:url(#ad);}.p{fill:#fde76b;}.q{fill:#f68895;}.r{fill:url(#ae);}.s{fill:#f17785;}.t{fill:url(#af);}.u{fill:url(#ag);}.v{fill:#391850;}</style><linearGradient id="a" x1="1.207" y1="0.213" x2="2.39" y2="-0.266" gradientUnits="objectBoundingBox"><stop offset="0" stop-color="#1a545d"/><stop offset="1" stop-color="#236f7b"/></linearGradient><linearGradient id="b" y1="0.5" x2="1" y2="0.5" gradientUnits="objectBoundingBox"><stop offset="0" stop-color="#fde76c"/><stop offset="1" stop-color="#ffef98"/></linearGradient><linearGradient id="z" x1="6.374" y1="-2.063" x2="2.918" y2="-0.588" gradientUnits="objectBoundingBox"><stop offset="0" stop-color="#f7df5a"/><stop offset="1" stop-color="#fde76c"/></linearGradient><linearGradient id="aa" x1="1.263" y1="1.466" x2="5.215" y2="6.472" gradientUnits="objectBoundingBox"><stop offset="0" stop-color="#09005d"/><stop offset="1" stop-color="#1a0f91"/></linearGradient><linearGradient id="ab" x1="-0.202" y1="0.238" x2="1.147" y2="0.854" gradientUnits="objectBoundingBox"><stop offset="0" stop-color="#e1473d"/><stop offset="1" stop-color="#e9605a"/></linearGradient><linearGradient id="ac" x1="0.997" y1="-0.146" x2="0.521" y2="0.433" gradientUnits="objectBoundingBox"><stop offset="0" stop-color="#ff928e"/><stop offset="1" stop-color="#feb3b1"/></linearGradient><linearGradient id="ad" x1="1.385" y1="-0.765" x2="0.685" y2="0.213" xlink:href="#ac"/><linearGradient id="ae" x1="-0.816" y1="-0.19" x2="6.041" y2="2.878" xlink:href="#ab"/><linearGradient id="af" x1="119.865" y1="0.774" x2="120.869" y2="0.774" xlink:href="#aa"/><linearGradient id="ag" x1="102.455" y1="0.816" x2="103.46" y2="0.816" xlink:href="#aa"/></defs><g transform="translate(-686 -454.548)"><rect class="a" width="181" height="151" transform="translate(686 467)"/><path class="b" d="M1412.236,214.113s-43.912,1.908-46.4,40.528-14.015,75.366,14.014,77.559,93.742,6.454,103.085-16.554S1496.946,206.011,1412.236,214.113Z" transform="translate(-597.383 1013.493) rotate(-30)"/><g transform="translate(720.171 478.093)"><g transform="translate(4.317 0.054)"><rect class="c" width="49.301" height="80.603" transform="translate(0.421 0.421)"/><path class="d" d="M758.464,580.539H708.322V499.095h50.142Zm-49.3-.841h48.46V499.936h-48.46Z" transform="translate(-708.322 -499.095)"/></g><path class="d" d="M862.3,577.1l-.373-78.344,1.344.012.373,78.344Z" transform="translate(-833.271 -498.757)"/><path class="d" d="M3.569,0H54.684A4.82,4.82,0,0,1,59.5,4.82v0a.645.645,0,0,1-.645.645H.645A.645.645,0,0,1,0,4.82V3.569A3.569,3.569,0,0,1,3.569,0Z" transform="translate(0 76.979)"/></g><g transform="translate(787.562 483.897)"><g transform="translate(0 0)"><path class="e" d="M431.5,602.949c-2.772-6.606-12.813-26.633-30.575-20.448a.271.271,0,0,0,.041.522c3.917.726,18.429,4.392,30.068,20.188A.269.269,0,0,0,431.5,602.949Z" transform="translate(-399.558 -574.05)"/><path class="e" d="M425.062,649.258c-3.993-3.764-15.883-18.325-31.673-11.67a.182.182,0,0,0,.049.35c3.9.412,23.278,2.867,31.549,11.64C425.206,649.81,425.3,649.478,425.062,649.258Z" transform="translate(-393.276 -619.945)"/><path class="e" d="M512.69,563.043c-.379-4.979-2.6-23.778-14.711-27.655a.1.1,0,0,0-.11.148c1.459,2.057,12.072,17.258,14.632,27.537A.1.1,0,0,0,512.69,563.043Z" transform="translate(-481.279 -535.383)"/><path class="e" d="M461.482,707.048a.1.1,0,0,0,.124-.165c-2.139-2.131-10.993-9.96-22.235-6.1C426.635,705.145,448.935,700.24,461.482,707.048Z" transform="translate(-428.866 -673.682)"/><path class="e" d="M585.471,575.9a.323.323,0,0,1-.638.053c-1.343-5.9-4.189-22.189,4.095-26.331C598.732,544.716,586.8,556.588,585.471,575.9Z" transform="translate(-553.148 -546.432)"/><path class="e" d="M593.546,664.912c1.392-3.626,6.757-14.885,17.921-8.8a.215.215,0,0,1-.087.4,26.262,26.262,0,0,0-17.474,8.613A.213.213,0,0,1,593.546,664.912Z" transform="translate(-561.796 -635.488)"/><path class="e" d="M595.474,704.016c.513-2.239,3.184-6.73,16.774-2.617a.071.071,0,0,1-.025.138c-2.67-.277-11.694-.891-16.117,2.865A.392.392,0,0,1,595.474,704.016Z" transform="translate(-563.423 -673.682)"/><path class="e" d="M595.807,780.067l0-.459v-.493l-.007-.987-.013-1.974-.058-3.948q-.053-3.947-.143-7.893c-.12-5.261-.271-10.52-.511-15.773s-.56-10.5-1.066-15.729c-.259-2.613-.571-5.22-.992-7.808a44.111,44.111,0,0,0-1.811-7.636l.235-.1a28.437,28.437,0,0,1,1.305,3.752l.265.958c.083.32.155.643.233.964l.23.966.2.971c.525,2.593.931,5.206,1.249,7.828s.568,5.25.783,7.881.352,5.265.483,7.9q.171,3.953.261,7.906c.041,2.636.082,5.272.068,7.908s-.043,5.272-.109,7.906l-.14,3.952-.087,1.975-.059.988-.033.494c-.015.166-.018.32-.051.527Z" transform="translate(-559.844 -688.448)"/><g transform="translate(28.603 23.118)"><path class="e" d="M657.881,731.791c2.073-4.94,9.581-19.916,22.863-15.29a.2.2,0,0,1-.031.39c-2.929.543-13.781,3.284-22.484,15.1A.2.2,0,0,1,657.881,731.791Z" transform="translate(-644.536 -710.18)"/><path class="e" d="M658.147,766.419c2.986-2.814,11.877-13.7,23.685-8.727a.136.136,0,0,1-.036.261c-2.918.308-17.407,2.144-23.592,8.7C658.04,766.832,657.973,766.583,658.147,766.419Z" transform="translate(-644.689 -744.5)"/><path class="e" d="M660.459,701.949c.284-3.723,1.948-17.78,11-20.68a.073.073,0,0,1,.082.111c-1.091,1.538-9.027,12.9-10.942,20.592A.072.072,0,0,1,660.459,701.949Z" transform="translate(-646.72 -681.265)"/><path class="e" d="M654.154,809.633a.078.078,0,0,1-.093-.124c1.6-1.593,8.221-7.448,16.627-4.565C680.212,808.21,663.537,804.542,654.154,809.633Z" transform="translate(-641.317 -784.683)"/><path class="e" d="M627.2,711.561a.242.242,0,0,0,.477.039c1-4.416,3.133-16.592-3.062-19.69C617.287,688.245,626.208,697.122,627.2,711.561Z" transform="translate(-614.146 -689.528)"/><path class="e" d="M587.251,778.125c-1.041-2.712-5.052-11.131-13.4-6.582a.16.16,0,0,0,.065.3,19.637,19.637,0,0,1,13.067,6.441A.159.159,0,0,0,587.251,778.125Z" transform="translate(-573.765 -756.122)"/><path class="e" d="M590.626,807.365c-.384-1.674-2.381-5.033-12.543-1.957a.053.053,0,0,0,.018.1c2-.207,8.745-.666,12.052,2.142A.293.293,0,0,0,590.626,807.365Z" transform="translate(-577.367 -784.683)"/></g><path class="e" d="M635.794,864.241c-.027-.166-.028-.278-.039-.4l-.024-.37-.042-.739c-.028-.492-.045-.985-.064-1.477l-.1-2.955c-.065-1.97-.07-3.941-.082-5.913s-.008-3.943.03-5.915.089-3.943.174-5.914.193-3.941.332-5.911.327-3.936.57-5.9l.19-1.471.224-1.467c.158-.977.325-1.953.537-2.921q.145-.728.329-1.45c.061-.24.118-.481.183-.721l.207-.715a20.63,20.63,0,0,1,1.013-2.8l.235.1a27.133,27.133,0,0,0-.767,2.828l-.152.717c-.047.24-.086.482-.129.723l-.131.722-.115.725c-.075.484-.151.967-.212,1.453s-.14.969-.192,1.457c-.117.973-.22,1.948-.322,2.924-.376,3.906-.648,7.826-.842,11.753s-.322,7.858-.423,11.792c-.052,1.967-.067,3.934-.108,5.9l-.036,2.952-.009,1.476,0,.738,0,.7Z" transform="translate(-597.067 -772.541)"/><g transform="translate(6.16 35.543)"><path class="e" d="M451.975,811.982c-2.372-3.872-10.489-15.433-19.75-9.583a.181.181,0,0,0,.087.326c2.3.031,10.933.762,19.432,9.474C451.882,812.341,452.08,812.155,451.975,811.982Z" transform="translate(-432.15 -794.262)"/><path class="e" d="M454.325,840.929c-2.713-1.943-11.2-9.846-19.294-3.915a.121.121,0,0,0,.07.216c2.252-.166,13.481-.732,19.221,3.909C454.473,841.263,454.483,841.042,454.325,840.929Z" transform="translate(-434.535 -822.931)"/><path class="e" d="M492.035,782.616c-.824-3.106-4.381-14.744-11.685-15.872-.053-.008-.083.064-.044.106,1.075,1.141,8.923,9.588,11.626,15.806A.055.055,0,1,0,492.035,782.616Z" transform="translate(-472.66 -765.622)"/><path class="e" d="M482.524,872.553c.067.025.109-.074.05-.118-1.467-1.113-7.421-5.094-13.289-1.428C462.636,875.159,474.613,869.621,482.524,872.553Z" transform="translate(-461.771 -852.084)"/><path class="e" d="M541.99,777.7a.184.184,0,0,1-.353.1c-1.481-3.586-5.08-13.567-.915-17.09C545.651,756.543,540.376,765.351,541.99,777.7Z" transform="translate(-521.88 -759.665)"/><path class="e" d="M556.973,830.9c.341-2.444,1.988-10.147,9.03-7.522a.142.142,0,0,1,0,.264A14.432,14.432,0,0,0,557.2,831C557.135,831.127,556.952,831.051,556.973,830.9Z" transform="translate(-537.191 -812.83)"/><path class="e" d="M558.758,857.358c.015-1.471.972-4.6,9.141-3.487.049.007.052.086,0,.09-1.54.116-6.705.715-8.74,3.572A.229.229,0,0,1,558.758,857.358Z" transform="translate(-538.694 -838.744)"/></g><path class="e" d="M565.191,910.512l-.231-1.215-.246-1.245-.5-2.488-1.042-4.968q-.532-2.481-1.1-4.955t-1.14-4.944q-1.185-4.932-2.584-9.8l-.355-1.215-.37-1.21c-.247-.806-.5-1.611-.777-2.406a35.188,35.188,0,0,0-1.919-4.66l.217-.131a19.413,19.413,0,0,1,1.238,2.242c.186.384.371.769.531,1.164s.331.785.482,1.183c.624,1.584,1.179,3.193,1.676,4.817,1,3.248,1.811,6.544,2.583,9.846q.573,2.478,1.107,4.964.512,2.49.991,4.987c.318,1.664.631,3.33.91,5l.415,2.508.2,1.256.091.63.044.316c.013.107.031.2.038.348Z" transform="translate(-529.308 -818.046)"/></g><g transform="translate(29.281 87.861)"><path class="f" d="M579.333,1089.805h10.818c.709,0,1.234,1.068,1.074,2.188a80.427,80.427,0,0,1-3.219,14.789c-.314.924-.91,1.5-1.561,1.5h-3.53c-.641,0-1.229-.57-1.533-1.485a72.475,72.475,0,0,1-3.314-14.51C577.917,1091,578.523,1089.805,579.333,1089.805Z" transform="translate(-578.045 -1089.805)"/></g></g><g transform="translate(733.962 508.021)"><path class="g" d="M1524.682,1188.023a15.553,15.553,0,0,0,3.66,2.586,30.052,30.052,0,0,1-6.518,5.986l-.789,1.849-2.671-3.1A14.229,14.229,0,0,0,1524.682,1188.023Z" transform="translate(-1469.514 -1146.733)"/><path class="h" d="M1481.111,1492.3a.648.648,0,0,1,.015-.17c.795-3.379,4.974-5.543,4.974-5.543l1.671.1a11.584,11.584,0,0,1,.773,5.585c0,.023-.011.044-.016.067A39.623,39.623,0,0,1,1481.111,1492.3Z" transform="translate(-1439.009 -1391.209)"/><path class="i" d="M1488.529,1518.166a.723.723,0,0,1-.521.544,22.9,22.9,0,0,1-6.382.012.608.608,0,0,1-.514-.6A39.63,39.63,0,0,0,1488.529,1518.166Z" transform="translate(-1439.01 -1417.035)"/><path class="g" d="M1508.743,1473.373l-.652,3.415a.557.557,0,0,1-.468.466,4.747,4.747,0,0,1-1.1,0,.7.7,0,0,1-.567-.813l.443-3.03Z" transform="translate(-1459.349 -1380.391)"/><path class="i" d="M1406.831,1517.1a9.968,9.968,0,0,0,3.283-.523c0,.183.006.37,0,.563a.364.364,0,0,1-.341.376l-10.125.1a.462.462,0,0,1-.383-.667C1400.6,1517.037,1403.982,1517.228,1406.831,1517.1Z" transform="translate(-1371.957 -1415.769)"/><path class="h" d="M1399.465,1495.48a.466.466,0,0,1,.039-.077,12.9,12.9,0,0,1,7.593-4.939l2.157-.1a10.361,10.361,0,0,1,1.056,4.75,9.973,9.973,0,0,1-3.283.523C1404.179,1495.759,1400.794,1495.568,1399.465,1495.48Z" transform="translate(-1372.154 -1394.301)"/><path class="g" d="M1442.741,1470.1c-.021.161-.278,2.612-.377,3.562a.47.47,0,0,1-.39.431,4.95,4.95,0,0,1-1.483,0,.639.639,0,0,1-.494-.633l-.062-3.839Z" transform="translate(-1405.293 -1377.322)"/><path class="j" d="M1441,1224.927a192.227,192.227,0,0,0-4.392,44.768.964.964,0,0,0,.78.927,11.238,11.238,0,0,0,2.418.24.9.9,0,0,0,.84-.76c.661-4.293,4.462-28.478,6.786-32.432,0,0,1.917,21.455,1.594,32.607a.529.529,0,0,0,.475.542,8.867,8.867,0,0,0,1.938-.037.707.707,0,0,0,.62-.61c.462-3.632,3.107-25.246,2.73-40.78-.021-.876-2.392-4.648-2.392-4.648Z" transform="translate(-1402.54 -1176.801)"/><path d="M1418.915,1061.593l2.443-4.192c6.4-4.778,16.191-2.569,19.971-2.155a5.038,5.038,0,0,1,3.211,1.658c3.292,3.689,10.55,13.816,2.368,24.27a15.566,15.566,0,0,1-3.66-2.586c.882-2.619.9-5.947-1.1-10a9.561,9.561,0,0,1-.232.963,59.382,59.382,0,0,0-2.529,17.152.536.536,0,0,1-.328.506c-3.489,1.464-10.261.735-12.536.433a.763.763,0,0,1-.652-.856c.984-8.085-4.945-21.265-6.508-24.565A2.2,2.2,0,0,0,1418.915,1061.593Z" transform="translate(-1388.08 -1037.298)"/><path class="g" d="M1481.673,1021.633l.788,6.9s-3.871,1.234-6.732-.716l1.887-6.316Z" transform="translate(-1434.602 -1010.38)"/><g transform="translate(37.425)"><path class="g" d="M1465.625,977.746c-.092.09-3.827,7.727-3.827,7.727l4.406,2.04,4.615-6.712S1467.169,976.245,1465.625,977.746Z" transform="translate(-1460.62 -974.301)"/><path class="k" d="M1463.56,966.813a.7.7,0,0,1-.042.613l-2.122,3.67a.677.677,0,0,1-.117.151,1.145,1.145,0,0,1-1.834.017,6.149,6.149,0,0,0-1.752-1.835.7.7,0,0,0-.936.325,26.047,26.047,0,0,0-1.435,3.564.694.694,0,0,0,.417.845,19.334,19.334,0,0,0,4.207,1.154.7.7,0,0,0,.655-.291c.653-.926,2.495-3.513,3.127-4.164.587-.6,1.693-.4,2.191-.263a.7.7,0,0,0,.556-.082,1.537,1.537,0,0,0,.541-2.348.7.7,0,0,1,.2-.951,1.543,1.543,0,0,0,.556-2.2,2.175,2.175,0,0,0-2.374-1.115.724.724,0,0,1-.767-.41.462.462,0,0,0-.365-.277.677.677,0,0,1-.561-.786,1.786,1.786,0,0,0-1.03-2.03c-1.9-1.007-3.528.71-3.925,2.143s1.728,2.407,3.057,2.554C1462.785,965.206,1463.337,966.261,1463.56,966.813Z" transform="translate(-1455.292 -960.099)"/><path class="g" d="M1497.454,1016.123s.8-2.468,1.875-2.4,1.937,1.129.626,2.353C1498.323,1017.6,1497.454,1016.123,1497.454,1016.123Z" transform="translate(-1489.816 -1004.011)"/></g><path class="l" d="M1496.626,1274.813a.2.2,0,0,0,.187-.15c.4-1.672,3.609-3.554,3.641-3.573a.2.2,0,0,0-.2-.339c-.138.08-3.381,1.986-3.825,3.82a.2.2,0,0,0,.145.237A.192.192,0,0,0,1496.626,1274.813Z" transform="translate(-1451.55 -1214.452)"/><g transform="translate(7.258 17.667)"><path d="M1342.352,1066.639c7.343.981,12.042-3.717,15.554-6.578,4.637-3.777,8.321-2.035,8.321-2.035l-4.855,9.64c-7.367,7.173-15.061,5.73-19.933,3.523A9.325,9.325,0,0,1,1342.352,1066.639Z" transform="translate(-1331.886 -1057.624)"/><path class="g" d="M1288.868,1084.179l2.45,1.268a21.261,21.261,0,0,0,7.915,2.936,9.324,9.324,0,0,0-.912,4.549,22.427,22.427,0,0,1-5.059-3.12C1287.707,1086.62,1288.868,1084.179,1288.868,1084.179Z" transform="translate(-1288.767 -1079.368)"/></g><path class="g" d="M1248.961,1076.88a1.791,1.791,0,0,1,1.029-1.163l4.9-2.062s.064-.633-1.059-1.045a1.483,1.483,0,0,1-.882-1.666s1.536.671,3.786,1.738a5.226,5.226,0,0,1,2.414,2.545l-1.242,1.689a22.558,22.558,0,0,1-9.2.874Z" transform="translate(-1248.703 -1050.864)"/><g transform="translate(52.223 1.346)"><path class="m" d="M1556.314,990.314c.75-1.238,2.057-2.051,2.846-3.264a5.907,5.907,0,0,0,.377-5.255c-.54-1.413-1.5-2.633-2.053-4.041a6.856,6.856,0,0,1-.417-4.615,6.108,6.108,0,0,1,2.558-4.423,9.614,9.614,0,0,1,6.7-.984,12.465,12.465,0,0,1,6.388,3.124,8.983,8.983,0,0,1,2.829,6.427c-.019,1.628-.543,3.307-.022,4.849a3.813,3.813,0,0,0,2.693,2.445c1.37.32,2.795-.148,4.2-.13a6.127,6.127,0,0,1,3.842,1.437,5.069,5.069,0,0,1,1.8,3.143,3.791,3.791,0,0,1-1.21,3.343c-.644.547-1.55.917-1.788,1.728a2.021,2.021,0,0,0,1.385,2.187c.87.368,1.85.4,2.736.73a5.071,5.071,0,0,1,3.028,5.081,7.151,7.151,0,0,1-3.24,5.206,12.4,12.4,0,0,1-5.982,1.893,49.447,49.447,0,0,1-6.339-.1,26.072,26.072,0,0,1-7.173-.921,19.57,19.57,0,0,1-6.187-3.865,6.75,6.75,0,0,1-2.177-2.656c-.288-.79-.289-1.668-.621-2.441-.711-1.659-2.682-2.364-3.822-3.763A4.59,4.59,0,0,1,1556.314,990.314Z" transform="translate(-1552.302 -967.53)"/><path class="n" d="M1634.741,1000.295h.013a2.981,2.981,0,0,0,1.823-4.752c-.921-1.2-2.542-1.505-4.125-1.719l-2.867-.389c-1.618-.219-3.275-.534-4.206-1.729-.993-1.275-.794-3.018-.6-4.7.022-.193.043-.384.063-.573a12.333,12.333,0,0,0-.749-6.219,7.031,7.031,0,0,0-4.549-4.129.072.072,0,0,0-.089.053.073.073,0,0,0,.053.088,6.886,6.886,0,0,1,4.451,4.046,12.194,12.194,0,0,1,.738,6.146c-.02.188-.042.38-.063.572-.195,1.714-.4,3.487.633,4.809.964,1.239,2.653,1.561,4.3,1.784l2.867.389c1.552.21,3.141.512,4.028,1.663a2.835,2.835,0,0,1-1.733,4.519.073.073,0,0,0,.013.145Z" transform="translate(-1604.511 -974.529)"/><path class="o" d="M1650.071,1040.161a.146.146,0,0,0,.1-.039,4.365,4.365,0,0,0,.983-1.172,1.573,1.573,0,0,0-.021-1.565,2.075,2.075,0,0,0-.949-.666,11.854,11.854,0,0,0-2.735-.792c-.611-.1-1.237-.152-1.842-.2a17.911,17.911,0,0,1-2.362-.3,4.762,4.762,0,0,1-3.3-2.215,6.239,6.239,0,0,1-.137-3.867,8.627,8.627,0,0,0,.115-3.388.146.146,0,0,0-.284.068,8.415,8.415,0,0,1-.119,3.273,6.546,6.546,0,0,0,.164,4.045,5.045,5.045,0,0,0,3.5,2.37,18.127,18.127,0,0,0,2.4.309c.6.05,1.219.1,1.819.2a11.583,11.583,0,0,1,2.667.773,1.823,1.823,0,0,1,.822.562,1.283,1.283,0,0,1,0,1.269,4.072,4.072,0,0,1-.922,1.09.146.146,0,0,0-.006.207A.144.144,0,0,0,1650.071,1040.161Z" transform="translate(-1620.745 -1015.275)"/><path class="p" d="M1547.357,1075.873a9.364,9.364,0,0,1,9.2,2.188,2.353,2.353,0,0,1,.715,2.333c-.96,3.772-3.473,14.913-1.035,19.677,0,0-4.085,4.652-8.683,1.03,0,0-2.179-8.841-4.908-12.693-1.884-2.66,2.773-10.146,3.953-11.956A1.414,1.414,0,0,1,1547.357,1075.873Z" transform="translate(-1541.257 -1055.911)"/><path class="q" d="M1578.677,1036.191s2.121,5.7,2.314,8.234a4.339,4.339,0,0,1-4.366-.631,63.755,63.755,0,0,0-.651-6.748Z" transform="translate(-1568.911 -1023.753)"/><path class="q" d="M1560.964,992.986s-5.186,7.51-1.98,9.616,6.9-3.232,6.9-3.232,1.166-4.084-.144-5.442S1560.964,992.986,1560.964,992.986Z" transform="translate(-1554.141 -988.326)"/><path class="r" d="M1575.514,982.718s-2.428.617-2.752,1.725,3.491,2.07,4.556,2.1l.929,4.436s2.467-4.227,1.424-6.629S1575.514,982.718,1575.514,982.718Z" transform="translate(-1566.264 -979.872)"/><path class="q" d="M1596.066,1019.271s2.027-2.425,2.873-.879-1.815,2.76-2.755,2.009Z" transform="translate(-1585.362 -1008.756)"/><path class="s" d="M1539.412,1320.3c.022.4-.634,3.609-.991,5.32a2.8,2.8,0,0,0,.335,2.009l13.692,22.221a3.062,3.062,0,0,1,.364.867,19.256,19.256,0,0,1,.583,5.973l-.667,1.443,2.972-.725.52-8.02-.853-.5a4.014,4.014,0,0,1-1.653-1.873c-1.253-2.909-4.366-10.314-5.2-13.933-.943-4.114-5.581-7.393-5.581-7.393l.775-1.917Z" transform="translate(-1538.111 -1256.39)"/><path class="t" d="M1619.871,1483.346a18.219,18.219,0,0,1-1.857-3.518c-.206-.991-.761-2.738-1.746-2.193a58.321,58.321,0,0,0-.2,6.72c.192,1.884-2.1,1.86-2.1,1.86a2.143,2.143,0,0,0-1.086.57.537.537,0,0,0,.375.9,12.931,12.931,0,0,0,3.192-.233.978.978,0,0,0,.774-.915l.241-5.562,2.073,2.532Z" transform="translate(-1599.013 -1385.142)"/><path class="q" d="M1578.375,1336.744s.793,20.061.9,22.911-.3,9.174-3.129,11.108l1.258.9a16.609,16.609,0,0,0,3.01-3.912,23.449,23.449,0,0,1,2.166-3.412l-.584-1.15a2.548,2.548,0,0,1-.233-1.631c.568-3,2.468-12.972,3-15.121a9.643,9.643,0,0,0-1.738-8.7C1580.671,1334.948,1578.375,1336.744,1578.375,1336.744Z" transform="translate(-1569.053 -1269.393)"/><path class="u" d="M1575.348,1497.643a.176.176,0,0,0,.174-.153,25.958,25.958,0,0,1,.75-4.059c.358-.8,1.517-4.169-.072-4.427,0,0-3.845,5.816-4.588,6.6a1.482,1.482,0,0,1-1.706.3,2.846,2.846,0,0,0-1.277.948.521.521,0,0,0,.424.831l2.652-.017a1.866,1.866,0,0,0,1.73-1.2,9.964,9.964,0,0,1,2.145-3.67l-.411,4.658a.177.177,0,0,0,.177.192Z" transform="translate(-1562.811 -1394.535)"/><path class="v" d="M1542.615,1198.5a9.414,9.414,0,0,1-.239,5.047l-5.375,19.98a.616.616,0,0,0,.4.743,38,38,0,0,0,14.978,1.572.868.868,0,0,0,.78-.688c.467-2.276,2.061-10.039,2.39-11.635,1.251-6.078,2.651-12.634-4.036-16.477C1548.479,1198.4,1545.644,1199.219,1542.615,1198.5Z" transform="translate(-1536.98 -1155.468)"/><path class="q" d="M1601.376,1091.89s6.567,5.281,8.293,12.614-9.338,8.293-9.338,8.293-1.531-1.655-3.307-1.027-.185-2.928,1.9-2.953,1.148,1.643,4.081.257c2.858-1.35,4.572-5.412-2.871-11.406a3.324,3.324,0,0,1-.991-1.305C1597.663,1092.794,1598.757,1090.422,1601.376,1091.89Z" transform="translate(-1585.52 -1069)"/></g></g></g></svg>