<svg xmlns="http://www.w3.org/2000/svg" width="183" height="137" viewBox="0 0 183 137"><defs><style>.a{fill:none;opacity:0.376;}.b,.j{fill:#57c1a6;}.b{opacity:0.488;}.c,.m{fill:#fff;}.d{fill:#62d5b7;}.e{fill:#426369;}.f{fill:#419a83;}.g{fill:#47a78e;}.h{fill:#4162a7;}.i{fill:#1a545d;}.k{fill:#603e4f;}.l{fill:#82ebd0;}.m{opacity:0.4;}</style></defs><g transform="translate(36.045 10.519)"><rect class="a" width="183" height="137" transform="translate(-36.045 -10.519)"/><path class="b" d="M32.016-27.019c9.54,12.19,19.4,21.413,22.9,34.239,3.5,12.72.636,29.045-8.9,36.147S20.144,48.455.745,51.635c-19.5,3.286-42.3,11.766-54.167,4.664C-65.188,49.2-66.248,26.406-64.976,4.994S-60.1-36.665-48.228-48.75C-36.462-60.94-16.215-65.074-1.481-59.668,13.254-54.156,22.476-39.1,32.016-27.019Z" transform="translate(69.494 62)"/><path class="c" d="M252.737,1391.261h35.021a4.118,4.118,0,0,0-4.073-4.115,4.039,4.039,0,0,0-.432.024c.013-.163.024-.326.024-.492a5.821,5.821,0,0,0-5.757-5.883,5.624,5.624,0,0,0-2.309.5,4.066,4.066,0,0,0-8.119.016,6.4,6.4,0,0,0-1.952-.3,6.594,6.594,0,0,0-6.521,6.664c0,.119.011.236.017.354a3.982,3.982,0,0,0-1.852-.458A4.108,4.108,0,0,0,252.737,1391.261Z" transform="translate(-252.737 -1341.193)"/><path class="c" d="M5428.238,883.151a4.658,4.658,0,0,0-1.912.411,3.365,3.365,0,0,0-6.72.013,5.291,5.291,0,0,0-1.616-.252,5.428,5.428,0,0,0-5.276,4.354h20.271A4.805,4.805,0,0,0,5428.238,883.151Z" transform="translate(-5357.974 -874.167)"/><g transform="translate(11.428 7.448)"><rect class="d" width="84.095" height="34.252" transform="translate(10.139 67.735)"/><rect class="e" width="3.288" height="34.252" transform="translate(2.192 67.735)"/><path class="f" d="M902.333-1.974H877.6L874.334,27.62H905.6Z" transform="translate(-811.31 40.115)"/><path class="f" d="M516-1.974,506.954,27.62h63.024L560.936-1.974Z" transform="translate(-506.954 40.115)"/><path class="g" d="M516-1.974,506.954,27.62h1.678l9.093-29.594Z" transform="translate(-506.954 40.115)"/><path class="g" d="M543.705-1.974,534.663,27.62h1.677l9.093-29.594Z" transform="translate(-529.909 40.115)"/><path class="g" d="M571.414-1.974,562.371,27.62h1.677l9.093-29.594Z" transform="translate(-552.864 40.115)"/><path class="g" d="M599.122-1.974,590.079,27.62h1.678L600.85-1.974Z" transform="translate(-575.819 40.115)"/><path class="g" d="M626.831-1.974,617.788,27.62h1.678l9.093-29.594Z" transform="translate(-598.774 40.115)"/><path class="g" d="M654.539-1.974,645.5,27.62h1.677l9.093-29.594Z" transform="translate(-621.729 40.115)"/><path class="g" d="M682.247-1.974,673.2,27.62h1.678l9.093-29.594Z" transform="translate(-644.684 40.115)"/><path class="h" d="M960.609-1.974l9.043,29.594h-1.678L958.881-1.974Z" transform="translate(-881.353 40.115)"/><rect class="i" width="12.605" height="23.84" transform="translate(17.263 77.599)"/><path class="j" d="M769.939-112.472H722.191v-80.836l23.874-18.452,23.874,18.452Z" transform="translate(-685.267 213.911)"/><path class="k" d="M751.392-200.207a1.226,1.226,0,0,1-.767-.268l-26.394-21.016-26.394,21.016a1.234,1.234,0,0,1-1.733-.2,1.233,1.233,0,0,1,.2-1.733l27.162-21.628a1.233,1.233,0,0,1,1.536,0L752.161-202.4a1.233,1.233,0,0,1,.2,1.733A1.232,1.232,0,0,1,751.392-200.207Z" transform="translate(-663.433 224.301)"/><path class="l" d="M768.114-36.633h31.992V-57.62H768.114Z" transform="translate(-723.312 86.214)"/><path class="m" d="M793.64-38.413h-3.149l7.548-21.6h3.149Z" transform="translate(-741.85 88.2)"/><path class="m" d="M826.277-38.413h-2.12l7.548-21.6h2.12Z" transform="translate(-769.741 88.2)"/><path class="m" d="M842.076-38.413h-.919l7.548-21.6h.919Z" transform="translate(-783.825 88.2)"/><path class="c" d="M796.958-39.781H763.322V-62.412h33.636ZM764.144-40.6h31.992V-61.59H764.144Z" transform="translate(-719.342 90.184)"/><rect class="c" width="0.822" height="21.809" transform="translate(51.344 28.183)"/><rect class="c" width="0.822" height="21.809" transform="translate(69.43 28.183)"/><rect class="c" width="32.814" height="0.822" transform="translate(44.391 38.677)"/><path class="l" d="M886.514,229.813h12.57V211.8h-12.57Z" transform="translate(-821.4 -136.983)"/><path class="c" d="M895.937,226.665H881.722V207h14.215Zm-13.393-.822h12.571V207.826H882.544Z" transform="translate(-817.43 -133.013)"/><rect class="c" width="0.822" height="18.839" transform="translate(70.988 74.402)"/><path class="m" d="M888.436,209.065l-3.781,10.821v8.042h.339l6.591-18.862Z" transform="translate(-819.86 -134.721)"/><path class="m" d="M908.534,209.065l-6.591,18.862h2.12l6.591-18.862Z" transform="translate(-834.182 -134.721)"/><path class="m" d="M925.534,209.065l-6.591,18.862h.919l6.591-18.862Z" transform="translate(-848.266 -134.721)"/><path class="l" d="M762.922,229.813h12.571V211.8H762.922Z" transform="translate(-719.01 -136.983)"/><path class="c" d="M772.345,226.665H758.13V207h14.215Zm-13.393-.822h12.571V207.826H758.952Z" transform="translate(-715.04 -133.013)"/><rect class="c" width="0.822" height="18.839" transform="translate(49.786 74.402)"/><path class="m" d="M764.844,209.065l-3.781,10.821v8.042h.339l6.591-18.862Z" transform="translate(-717.471 -134.721)"/><path class="m" d="M784.942,209.065l-6.591,18.862h2.12l6.591-18.862Z" transform="translate(-731.793 -134.721)"/><path class="m" d="M801.942,209.065l-6.591,18.862h.919l6.591-18.862Z" transform="translate(-745.877 -134.721)"/><path class="f" d="M751.54,99.455H703.792l-3.81,12.194H755.35Z" transform="translate(-666.868 -43.914)"/></g><path class="c" d="M5428.238,883.151a4.658,4.658,0,0,0-1.912.411,3.365,3.365,0,0,0-6.72.013,5.291,5.291,0,0,0-1.616-.252,5.428,5.428,0,0,0-5.276,4.354h20.271A4.805,4.805,0,0,0,5428.238,883.151Z" transform="translate(-5393.123 -866.964)"/></g></svg>