<svg xmlns="http://www.w3.org/2000/svg" xmlns:xlink="http://www.w3.org/1999/xlink" width="40.629" height="46.103" viewBox="0 0 40.629 46.103"><defs><style>.a{fill-rule:evenodd;fill:url(#a);}.b{fill:#fff;}.c{filter:url(#b);}</style><linearGradient id="a" x1="1.163" x2="0" y2="1" gradientUnits="objectBoundingBox"><stop offset="0" stop-color="#2a7581"/><stop offset="1" stop-color="#1a545d"/></linearGradient><filter id="b" x="0" y="0" width="40.629" height="46.103" filterUnits="userSpaceOnUse"><feOffset dy="3" input="SourceAlpha"/><feGaussianBlur stdDeviation="2.5" result="c"/><feFlood flood-opacity="0.518"/><feComposite operator="in" in2="c"/><feComposite in="SourceGraphic"/></filter></defs><g transform="translate(-801.5 -1037.5)"><g class="c" transform="matrix(1, 0, 0, 1, 801.5, 1037.5)"><path class="a" d="M3.659,3.729A12.881,12.881,0,1,1,21.875,21.945l-9.108,9.108L3.659,21.945A13.232,13.232,0,0,1,3.659,3.729Z" transform="translate(7.47 4.55)"/></g><g transform="translate(816.01 1049.009)"><path class="b" d="M9.648,18.391V15.285a.47.47,0,0,1,.465-.465h1.765a.47.47,0,0,1,.465.465v3.106a.47.47,0,0,0,.465.465h2.429a.47.47,0,0,0,.465-.465V13.48h.81a.462.462,0,0,0,.305-.81L11.294,7.719a.467.467,0,0,0-.624,0L5.175,12.683a.463.463,0,0,0,.305.81h.81V18.4a.47.47,0,0,0,.465.465H9.183A.491.491,0,0,0,9.648,18.391Z" transform="translate(-5.018 -7.6)"/></g></g></svg>