<svg xmlns="http://www.w3.org/2000/svg" width="53.117" height="33.678" viewBox="0 0 53.117 33.678"><defs><style>.a{fill:#d9c65c;}.b{fill:#388471;}.c{fill:#fde76c;}.d{fill:#57c1a6;}.e{fill:#1a545d;}.f{fill:#f1edf1;}.g{fill:#fff;}.h{fill:#c9c9c9;}.i{fill:#e3e3e3;}.j{fill:#dee0e0;}</style></defs><g transform="translate(0)"><g transform="translate(0 0)"><path class="a" d="M516.508,903.116s-.959.7-.959,1.526.137-3.424-1.643-3.972-2.192.821-2.192.821a4.85,4.85,0,0,0,.274,3.013c-.822-.958-.411-1.644-2.466-1.644s0,2.329,0,2.329-2.328-1.1-2.055.822c-1.1,0-1.369.548-1.369.548h10.409Z" transform="translate(-506.099 -873.018)"/><path class="a" d="M551.244,875.751h-20.7v1l20.7,1.17Z" transform="translate(-522.356 -858.782)"/><rect class="b" width="2.602" height="3.15" transform="translate(19.151 0)"/><path class="c" d="M530.549,878.1V893.67h20.7V879.265Z" transform="translate(-522.356 -860.129)"/><rect class="d" width="4.246" height="3.15" transform="translate(15.247 0)"/><path class="b" d="M604.642,842.615l8.492,14.518h-3.013l-6.836-12.159Z" transform="translate(-564.125 -839.753)"/><path class="a" d="M595.889,858.665l-6.985-12.19-10.64,12.874v1.721l17.625,11Z" transform="translate(-549.757 -841.97)"/><path class="c" d="M578.264,880.759V895.2h17.625v-3.44Z" transform="translate(-549.757 -861.658)"/><path class="d" d="M593.927,890.374v10.347h6.437v-6.329Z" transform="translate(-558.751 -867.18)"/><path class="e" d="M600.364,888.941h-6.437v.61l6.437,4.018Z" transform="translate(-558.751 -866.357)"/><path class="d" d="M619.664,905.447s1.1-1.764,2.328-.8,0,2.466,0,2.466,1.918-.822,2.328,0a1.639,1.639,0,0,1,0,1.506s1.78-.274,2.328.274h-6.985Z" transform="translate(-573.531 -875.209)"/><circle class="f" cx="0.411" cy="0.411" r="0.411" transform="translate(40.106 27.652)"/><rect class="g" width="8.081" height="7.259" transform="translate(14.083 20.119)"/><rect class="h" width="3.424" height="6.643" transform="translate(14.494 20.53)"/><rect class="i" width="3.424" height="6.711" transform="translate(18.466 20.53)"/><rect class="j" width="2.191" height="5.889" transform="translate(15.727 21.352)"/><rect class="h" width="3.424" height="0.822" transform="translate(18.466 20.53)"/><rect class="g" width="7.944" height="0.548" transform="translate(14.22 23.132)"/><rect class="d" width="2.876" height="7.259" transform="translate(11.207 20.119)"/><rect class="d" width="2.876" height="7.259" transform="translate(22.164 20.119)"/><path class="d" d="M519.289,857.133h28.763l8.354-14.518H527.644Z" transform="translate(-515.89 -839.753)"/></g></g></svg>