<svg xmlns="http://www.w3.org/2000/svg" width="50" height="50" viewBox="0 0 50 50"><defs><style>.a{fill:#fde76c;}.b{fill:none;opacity:0.139;}</style></defs><g transform="translate(-617.092 -288.021)"><path class="a" d="M633.808,329.448l2.572-10.97-8.105-7.871,11.243-.906,4.962-10.109L648.858,310l11.172,1.624-8.542,7.339,1.945,11.113-9.652-5.874Z" transform="translate(-1.781 -1.78)"/><path class="a" d="M651.653,329.86a1.561,1.561,0,0,1-.812-.228l-8.9-5.413-9.189,4.832a1.562,1.562,0,0,1-2.248-1.739l2.37-10.109-7.471-7.255a1.562,1.562,0,0,1,.963-2.677l10.358-.835,4.571-9.311a1.562,1.562,0,0,1,2.842.083l4.035,9.6,10.3,1.5a1.562,1.562,0,0,1,.793,2.73l-7.868,6.761,1.793,10.238a1.563,1.563,0,0,1-1.539,1.831Zm-9.652-9a1.561,1.561,0,0,1,.812.228l6.707,4.082-1.351-7.717a1.562,1.562,0,0,1,.521-1.454l5.939-5.1-7.775-1.13a1.562,1.562,0,0,1-1.215-.94l-3.047-7.247-3.45,7.029a1.562,1.562,0,0,1-1.277.869l-7.808.629,5.633,5.47a1.563,1.563,0,0,1,.432,1.478l-1.791,7.638,6.943-3.651A1.56,1.56,0,0,1,642,320.862Z" transform="translate(0 0)"/><rect class="b" width="50" height="50" transform="translate(617.092 288.021)"/></g></svg>