<svg xmlns="http://www.w3.org/2000/svg" width="181" height="151" viewBox="0 0 181 151"><defs><style>.a{fill:none;opacity:0.441;}.b{fill:#1a545d;}.c{fill:#fff;}.d{fill:#51bca1;}.e{fill:#fde76c;}.f{fill:#462261;}.g{fill:#76d0ba;}.h{fill:#663f7f;}.i{fill:#f68895;}.j{fill:#9e9eed;}.k{fill:#7878ce;}.l{fill:#ff4c77;}.m{fill:#57c1a6;}</style></defs><g transform="translate(-497.05 -39.795)"><rect class="a" width="181" height="151" transform="translate(497.051 39.795)"/><path class="b" d="M654.638,129.153a85.256,85.256,0,0,1-35.841,38.2,85.253,85.253,0,0,1,6.436-51.981c2.536-5.409,12.918-26.1,35.841-38.195A85.26,85.26,0,0,1,654.638,129.153Z"/><path class="c" d="M626.074,150.6l-7.445,15.85c.058.316.115.619.168.894.218-.12.453-.251.7-.389l3.353-7.138,13.044-4.923q.907-.849,1.823-1.757l-14.257,5.381,9.494-20.211,21.232-8.226c.15-.311.3-.616.453-.932.06-.128.114-.255.173-.383L633.569,137l10.7-22.779,17.388-8.383c.06-.4.115-.8.168-1.19l-16.882,8.139,16.3-34.7c-.059-.324-.117-.634-.171-.914-.23.121-.451.249-.678.372l-11.5,24.485-2.2-15q-.453.39-.9.784l2.33,15.856-10.481,22.312-5.859-22.09c-.255.376-.5.746-.74,1.113l5.915,22.3.07-.019-10.267,21.856-5.509-23.592q-.306.961-.582,1.911Z"/><path class="d" d="M653.359,167.938a61.715,61.715,0,0,1-36.079,10.143,62.761,62.761,0,0,1,23.311-30.713c3.614-2.506,17.872-11.84,36.936-11.066A61.9,61.9,0,0,1,653.359,167.938Z"/><path class="c" d="M637.037,165.064l16.8,2.544c.4-.275.807-.55,1.2-.83l-16.817-2.546,20.749-14.556,11.612.874q.315-.48.616-.956l-10.937-.823,17.106-12c.057-.166.11-.323.159-.469-.4-.017-.794-.022-1.19-.029l-7.429,5.211,1.979-5.051c-.374.03-.744.065-1.114.1l-2.346,5.989-20.2,14.167,4.07-15.263c-.4.175-.794.351-1.176.527L645.979,157.5l.069.018L626.28,171.389,631,155.6c-.534.563-1.053,1.127-1.55,1.691l-4.491,15.021-7.5,5.264q-.094.266-.176.5c.766.028,1.742.048,2.888.033l-1.412-.226Z"/><path class="e" d="M539.327,158.618c-.4-.927-1.05-.943-1.652-.249a2.529,2.529,0,0,0-.452,1.689,6.234,6.234,0,0,0,.478,2.8c-.2-.31-.4-.613-.617-.9-.38-.513-.81-1.027-1.255-1.525-.641-2.963,1.652-3.351,1.515-4.882a1.1,1.1,0,0,0-.2-.57,1.452,1.452,0,0,0-1.464-.443c-.819.2-1.161,1.142-1.274,1.452a4.2,4.2,0,0,0,.612,3.574c-.775-.8-1.529-1.516-2.1-2.041a3.82,3.82,0,0,1,.388-3,3.613,3.613,0,0,0,.708-1.363c.183-.751.049-1.274-.607-1.6a1.667,1.667,0,0,0-1.483.006c-.864.511-.647,2.156-.5,3.3a4.394,4.394,0,0,0,.628,1.875c-1-.889-1.882-1.62-2.869-2.586.148-.895.66-4.162.377-5.147a1.642,1.642,0,0,0-1.708-1.185c-.586.191-.711,1.143-.769,1.587a5.423,5.423,0,0,0,1,3.609c-.089-.1-.174-.186-.266-.289a25.67,25.67,0,0,1-2.055-2.563c-.093-1.4-.526-5.942-2.307-6.306a1.554,1.554,0,0,0-1.435.48c-.588.748.046,2.094.336,2.709a7.748,7.748,0,0,0,3.153,3.309,22.545,22.545,0,0,0,2.886,3.453c-2.75-.686-3.226-2.581-4.291-2.5a1.469,1.469,0,0,0-1.265,1.228c-.077.965,1.4,1.675,1.765,1.849a5.835,5.835,0,0,0,4.41.026c.861.817,1.749,1.593,2.634,2.371a3.884,3.884,0,0,0-2.282-.244c-.824.152-2.259.59-2.328,1.43a1.194,1.194,0,0,0,.717,1.109c.583.24,1.176-.186,1.955-.548a9.011,9.011,0,0,1,3.037-.773c.719.649,1.425,1.316,2.1,2.022a3.137,3.137,0,0,0-1.585-.2c-.752.061-3.031.243-3.338,1.388a1,1,0,0,0,.207.952c.343.321.962.148,1.824-.1a17.8,17.8,0,0,1,3.688-1.162,18.134,18.134,0,0,1,2.79,4.225,3.212,3.212,0,0,0-3.856-.774c-.08.062-.752.575-.612,1.21a1.154,1.154,0,0,0,.91.8c.973.192,1.488-1.207,3.858-.552a20.08,20.08,0,0,1,1.409,5.782.155.155,0,0,0,.308-.031,19.851,19.851,0,0,0-2.151-7.425,16.15,16.15,0,0,1,.843-3.1A3.243,3.243,0,0,0,539.327,158.618Z"/><path class="e" d="M537.795,176.668a22.674,22.674,0,0,0-5.967-6.5,18.487,18.487,0,0,1-.712-3.6,3.7,3.7,0,0,0-.917-2.311c-.884-.742-1.553-.43-1.815.585a2.886,2.886,0,0,0,.394,1.955,7.1,7.1,0,0,0,1.912,2.62c-.359-.216-.721-.422-1.091-.611-.648-.332-1.349-.639-2.057-.921-2.159-2.7-.013-4.264-.929-5.76a1.266,1.266,0,0,0-.495-.481,1.66,1.66,0,0,0-1.721.291,2.442,2.442,0,0,0-.565,2.13,4.788,4.788,0,0,0,2.439,3.343c-1.2-.428-2.332-.773-3.182-1.02a4.357,4.357,0,0,1-1.129-3.268,4.133,4.133,0,0,0,.032-1.753c-.194-.86-.6-1.327-1.431-1.325a1.9,1.9,0,0,0-1.513.758c-.625.962.433,2.533,1.168,3.63a5.024,5.024,0,0,0,1.595,1.6c-1.47-.4-2.747-.7-4.245-1.187-.317-1.031-1.447-4.6-2.228-5.452a1.877,1.877,0,0,0-2.347-.345c-.5.493-.147,1.53.019,2.013a6.182,6.182,0,0,0,2.859,3.179c-.141-.054-.273-.1-.419-.16a29.432,29.432,0,0,1-3.4-1.576c-.8-1.381-3.554-5.806-5.558-5.275a1.775,1.775,0,0,0-1.224,1.219c-.221,1.063,1.11,2.117,1.719,2.6a8.849,8.849,0,0,0,4.9,1.781,25.648,25.648,0,0,0,4.7,2.064c-3.159.695-4.607-1-5.655-.376a1.675,1.675,0,0,0-.67,1.9c.411,1.027,2.284,1,2.743.994a6.656,6.656,0,0,0,4.521-2.212c1.265.389,2.537.725,3.806,1.062a4.516,4.516,0,0,0-2.367.934c-.764.574-2.009,1.75-1.654,2.644a1.364,1.364,0,0,0,1.3.768c.718-.05,1.108-.786,1.72-1.551a10.244,10.244,0,0,1,2.712-2.332c1.049.293,2.094.612,3.128.984a3.688,3.688,0,0,0-1.679.616c-.737.444-2.974,1.787-2.707,3.113a1.147,1.147,0,0,0,.7.868c.513.154,1.058-.337,1.812-1.032,1.087-1,1.5-1.93,3.179-3.06a20.693,20.693,0,0,1,5,2.9c-1.775-.7-3.815.112-4.334,1.165-.051.1-.477.97-.011,1.548a1.32,1.32,0,0,0,1.337.358c1.093-.3.891-2,3.654-2.531a22.957,22.957,0,0,1,4.384,5.2A.176.176,0,0,0,537.795,176.668Z"/><path class="d" d="M571.425,178.346h-56.3a13.891,13.891,0,0,1,6.789-5.751c3.963-1.407,5.568.57,9.24-.97,3.637-1.524,3.014-3.862,8.426-7.042a13.166,13.166,0,0,1,5.742-2.043,11.972,11.972,0,0,1,4.656.529c3.789,1.227,3.9,3.454,7.063,5.212,4.472,2.485,7.365-.291,10.682,2.054C569.241,171.4,570.93,173.556,571.425,178.346Z"/><rect class="f" width="78.953" height="138.552" rx="6.938" transform="translate(548.59 39.795)"/><path class="c" d="M624.239,50.861V165.909a3.788,3.788,0,0,1-3.27,3.78,2.965,2.965,0,0,1-.42.03h-64.96a3.773,3.773,0,0,1-3.7-3.81V50.861a3.766,3.766,0,0,1,3.7-3.8H620.55A3.766,3.766,0,0,1,624.239,50.861Z"/><path class="g" d="M624.239,50.861v1.58H551.89v-1.58a3.762,3.762,0,0,1,3.7-3.8H620.55A3.759,3.759,0,0,1,624.239,50.861Z"/><rect class="c" width="0.992" height="1.323" transform="translate(607.495 50.275)"/><rect class="c" width="0.992" height="1.991" transform="translate(609.127 49.607)"/><rect class="c" width="0.992" height="2.703" transform="translate(610.759 48.896)"/><rect class="c" width="0.992" height="3.414" transform="translate(612.391 48.185)"/><path class="c" d="M616.591,48.783v.505h-.806v1.206h.806V51h4.681V48.783Z"/><path class="h" d="M598.561,44.1H577.568a.8.8,0,1,1,0-1.6h20.993a.8.8,0,1,1,0,1.6Z"/><path class="h" d="M574.935,43.305a1.288,1.288,0,1,1-1.287-1.287A1.287,1.287,0,0,1,574.935,43.305Z"/><path class="h" d="M603.768,43.305a1.287,1.287,0,1,1-1.287-1.287A1.287,1.287,0,0,1,603.768,43.305Z"/><rect class="h" width="17.197" height="4.493" rx="2.206" transform="translate(579.468 171.753)"/><path class="b" d="M556.9,77.567H505.1a4.454,4.454,0,0,0-4.442,4.441V94.484a4.455,4.455,0,0,0,4.442,4.442H507.5v4.253a.935.935,0,0,0,1.6.661l4.914-4.914H556.9a4.455,4.455,0,0,0,4.442-4.442V82.008A4.454,4.454,0,0,0,556.9,77.567Z"/><rect class="c" width="44.812" height="1" transform="translate(508.594 83.416)"/><rect class="c" width="44.812" height="1" transform="translate(508.594 87.746)"/><rect class="c" width="23.365" height="1" transform="translate(508.594 92.076)"/><path class="i" d="M521.817,125.765q-2.49,2.625-4.97,5.25a6.986,6.986,0,0,0-3.74-1.9c-.85-.11-1.09.05-3.42,0a16.2,16.2,0,0,1-3.9-.32c-1.39-.38-2.24-1.08-3.89-2.46-1.89-1.59-5.41-4.91-4.77-5.96a1.314,1.314,0,0,1,.88-.48,1.621,1.621,0,0,1,1.07.3c2.4,1.52,4.99,3.06,5.52,3.36,3.25,1.8,7.56.42,7.63-.24.03-.3-.8-.75-2.46-1.67-.72-.39-1.33-.68-1.59-1.35a1.194,1.194,0,0,1,0-1.03c.25-.36.87-.4,1.83-.24a13.988,13.988,0,0,1,4.61,1.75c1.95,1.04,2.93,1.57,3.24,1.77A23.812,23.812,0,0,1,521.817,125.765Z"/><path class="j" d="M627.979,160.829a46.069,46.069,0,0,1-5.62,8.86l-14.62.03c1.34-1.96,3.01-4.43,4.91-7.32,2.84-4.33,6.25-9.82,5.57-13.91-.02-.14-.05-.25-.07-.34-.35-1.4-1.48-2.85-3.75-5.75a61,61,0,0,0-6.3-6.91q-.2,17.115-.38,34.23H567.1q.21-17.985.43-35.96a45.271,45.271,0,0,1-9.68,10.44,23.637,23.637,0,0,1-5.96,3.86c-8.35,3.34-17.58-1.76-21.81-4.06a41.916,41.916,0,0,1-13.88-12.3l5.98-6.31a48.641,48.641,0,0,0,11.56,6.73c5.09,2.08,9.79,4,13.7,1.97a12.184,12.184,0,0,0,4.45-4.29c5.75-8.19,13.87-16.66,21.01-20.89a32.694,32.694,0,0,1,6.08-2.81,35.89,35.89,0,0,1,4.83-1.32q5.19.225,10.39.46c1.75.63,3.49,1.26,5.24,1.89a101.652,101.652,0,0,1,24.8,23.08,98.953,98.953,0,0,1,6.84,10.22s.16.49.3.99C633.589,149.3,629.949,156.739,627.979,160.829Z"/><path class="f" d="M589.769,113.719q.255,22.77.52,45.56c-1.4,1.49-2.81,2.98-4.21,4.47-1.34-1.55-2.67-3.1-4.01-4.65l4.26-45.54c-.5-1.03-.99-2.06-1.47-3.08q1.845-1.755,3.68-3.49c.98,1.27,1.95,2.54,2.93,3.82C590.9,111.779,590.329,112.749,589.769,113.719Z"/><path class="k" d="M599.439,107.129l-6.06,6.18c-.64-.83-3.86-5.05-4.84-6.32-1.22,1.16-5.39,5.12-6.25,5.93q-1.65-3.42-3.31-6.82a35.89,35.89,0,0,1,4.83-1.32q5.19.225,10.39.46C595.949,105.869,597.689,106.5,599.439,107.129Z"/><path class="i" d="M594.614,101.4c-.12.79-.235,1.94-.415,3.84a9.847,9.847,0,0,1-10.49-.53c.18-1.65.37-3.29.55-4.94a5.4,5.4,0,0,1-2.05-.39,7.582,7.582,0,0,1-3.43-3.76c-1.44-3.01-1.15-10.17,1.38-19.03a24.6,24.6,0,0,0,7.36,1.7c6.52.46,6.8.51,7.08.88,1.35,1.77-.03,4.39-1.45,9.56-.26.96-.62,2.38-.97,4.13-.13.41-1.59,5.26.93,7.68A2.831,2.831,0,0,0,594.614,101.4Z"/><path class="f" d="M602.509,90.249a22.851,22.851,0,0,1-2.09,5.55c-.8,1.46-3.265,5.95-5.8,5.6a2.831,2.831,0,0,1-1.505-.86c-2.52-2.42-1.06-7.27-.93-7.68.35-1.75.71-3.17.97-4.13,1.42-5.17,2.8-7.79,1.45-9.56-.28-.37-.56-.42-7.08-.88a24.39,24.39,0,0,1-7.32-1.69,4.689,4.689,0,0,1-1.95-1.65c-1.62-2.47-.97-6.64,1.23-8.13.57-.38,1.29-.62,5.4-.03,2.14.3,3.95.65,5.46,1.01,1.288.311,2.338.622,3.239.922a16.635,16.635,0,0,1,4.291,2.068,11.1,11.1,0,0,1,1.49,1.11C605.469,77.839,602.949,88.589,602.509,90.249Z"/><path class="l" d="M597.411,87.276l-1.174-.437c.487-1.324,2.736-8.283-1.175-14.4a14.952,14.952,0,0,0-4.7-4.624,4.813,4.813,0,0,1,3.211.911,15.537,15.537,0,0,1,2.546,3.038C600.335,78.381,597.936,85.852,597.411,87.276Z"/><path class="m" d="M597.072,84.036c-2.246-.576-4.7,1.436-5.49,4.5-.674,2.628.11,5.163,1.766,6.194-.476.858-.668,1.09-.953,1.271-.243.153-.745.477-3.735.079-.531-.07-1.066-.162-1.6-.257a.9.9,0,0,0-.727-.814l-2.316-.411a.9.9,0,0,0-.317,1.782l2.317.411a.9.9,0,0,0,.881-.362c.561.1,1.122.2,1.679.27a18.847,18.847,0,0,0,2.408.195,2.947,2.947,0,0,0,1.744-.366,3.621,3.621,0,0,0,1.187-1.535,2.815,2.815,0,0,0,.311.127c2.246.577,4.7-1.436,5.489-4.495S599.318,84.613,597.072,84.036Z"/></g></svg>