<svg xmlns="http://www.w3.org/2000/svg" xmlns:xlink="http://www.w3.org/1999/xlink" width="183" height="137" viewBox="0 0 183 137"><defs><style>.a{fill:none;opacity:0.376;}.b{fill:#fde76c;}.c{fill:#1a545d;}.d,.j,.p{fill:#57c1a6;}.e,.h{fill:#54af95;}.f{fill:#abddce;}.g,.r{fill:#fff;}.h,.i{opacity:0.47;}.j{opacity:0.156;}.k{fill:#7c96c4;opacity:0.2;}.l{fill:#462261;}.m{fill:#ffa7a6;}.n{fill:#0056ec;}.o{fill:#172b36;}.p{opacity:0.176;}.q{fill:url(#a);}.r{opacity:0.5;}.s{fill:url(#b);}.t{fill:url(#c);}.u{fill:url(#d);}.v{fill:#f7ede2;}.w{fill:#fff5dc;}.x{fill:#f0daa5;}</style><linearGradient id="a" x1="-90.675" y1="0.516" x2="-91.539" y2="0.489" gradientUnits="objectBoundingBox"><stop offset="0" stop-color="#e85f5a"/><stop offset="1" stop-color="#eec9c8"/></linearGradient><linearGradient id="b" x1="0.376" y1="0.495" x2="1.328" y2="0.51" gradientUnits="objectBoundingBox"><stop offset="0" stop-color="#172b36"/><stop offset="1" stop-color="#325d75"/></linearGradient><linearGradient id="c" y1="0.5" x2="1" y2="0.5" gradientUnits="objectBoundingBox"><stop offset="0" stop-color="#fff5dc"/><stop offset="0.342" stop-color="#fff6df"/><stop offset="0.672" stop-color="#fff9eb"/><stop offset="0.996" stop-color="#fffefe"/><stop offset="1" stop-color="#fff"/></linearGradient><linearGradient id="d" x1="0.388" y1="0.492" x2="1.334" y2="0.516" xlink:href="#b"/></defs><g transform="translate(-202.272 -75.728)"><g transform="translate(213.186 89.835)"><rect class="a" width="183" height="137" transform="translate(-10.913 -14.107)"/><path class="b" d="M293.261,159.856l1.164-2.016,1.164,2.016Z" transform="translate(-272.425 -138.088)"/><path class="b" d="M715.029,146.075l1.164-2.016,1.164,2.016Z" transform="translate(-571.691 -128.31)"/><path class="c" d="M317.27,177.714l-1.164,2.016-1.164-2.016Z" transform="translate(-287.809 -152.189)"/><path class="d" d="M315.842,144.285l-2.016-1.164,2.016-1.164Z" transform="translate(-287.017 -126.819)"/><path class="c" d="M722.846,165.765l1.164-2.016,1.164,2.016Z" transform="translate(-577.238 -142.281)"/><path class="c" d="M749.383,134.911l2.016,1.164-2.016,1.164Z" transform="translate(-596.068 -121.819)"/><g transform="translate(145.042 26.095)"><g transform="translate(5.611 1.202)"><path class="e" d="M744.367,190.921a.145.145,0,0,1-.054-.01l-4.007-1.6a.145.145,0,0,1-.092-.135v-5.21a.145.145,0,0,1,.187-.139l3.966,1.19,3.966-1.19a.145.145,0,0,1,.187.139v5.21a.145.145,0,0,1-.092.135l-4.008,1.6A.143.143,0,0,1,744.367,190.921Zm-3.862-1.846,3.862,1.545,3.862-1.545v-4.916l-3.821,1.146a.141.141,0,0,1-.083,0l-3.821-1.146Z" transform="translate(-740.214 -183.818)"/></g><g transform="translate(5.611)"><path class="e" d="M748.375,181.171a.148.148,0,0,1-.042-.006l-3.966-1.19-3.966,1.19a.145.145,0,0,1-.083-.278l4.007-1.2a.14.14,0,0,1,.083,0l4.008,1.2a.145.145,0,0,1-.042.284Z" transform="translate(-740.214 -179.678)"/></g><path class="e" d="M754.512,191.1v-5.611l4.008-1.173v5.21Z" transform="translate(-744.749 -182.97)"/><g transform="translate(11.221 9.618)"><path class="e" d="M762.883,218.294a.145.145,0,0,1-.065-.015l-3.206-1.6a.146.146,0,0,1-.08-.13v-3.607a.145.145,0,0,1,.062-.119.144.144,0,0,1,.134-.017l3.155,1.183,3.155-1.183a.145.145,0,0,1,.2.136v3.607a.146.146,0,0,1-.08.13l-3.206,1.6A.145.145,0,0,1,762.883,218.294Zm-3.061-1.838,3.061,1.53,3.061-1.53v-3.308l-3.01,1.129a.147.147,0,0,1-.1,0l-3.01-1.129Z" transform="translate(-759.531 -212.793)"/></g><g transform="translate(11.221 8.416)"><path class="e" d="M766.089,210.147a.142.142,0,0,1-.051-.009l-3.155-1.183-3.155,1.183a.145.145,0,0,1-.1-.272l3.206-1.2a.147.147,0,0,1,.1,0l3.206,1.2a.145.145,0,0,1-.051.281Z" transform="translate(-759.532 -208.655)"/></g><path class="e" d="M771.07,218.474v-4.008l3.206-1.173V216.9Z" transform="translate(-756.497 -203.53)"/><g transform="translate(0 10.42)"><path class="e" d="M725.851,223.858a.148.148,0,0,1-.046-.008l-4.809-1.6a.144.144,0,0,1-.1-.138V215.7a.145.145,0,0,1,.06-.118.143.143,0,0,1,.131-.02l4.763,1.588,4.763-1.588a.145.145,0,0,1,.191.138v6.412a.145.145,0,0,1-.1.138l-4.809,1.6A.149.149,0,0,1,725.851,223.858Zm-4.664-1.853,4.664,1.555,4.664-1.555V215.9l-4.618,1.539a.147.147,0,0,1-.092,0l-4.618-1.539Z" transform="translate(-720.897 -215.552)"/></g><g transform="translate(0 8.817)"><path class="e" d="M730.66,211.928a.139.139,0,0,1-.046-.008l-4.763-1.588-4.763,1.588a.145.145,0,1,1-.092-.275l4.809-1.6a.146.146,0,0,1,.092,0l4.809,1.6a.145.145,0,0,1-.046.283Z" transform="translate(-720.896 -210.034)"/></g><path class="e" d="M737.954,217.627v6.412l4.809-1.573v-6.412Z" transform="translate(-733 -205.488)"/></g><path class="f" d="M457.933,180.531,358.005,172.9a1.468,1.468,0,0,1-1.184-1.543V105.642a1.468,1.468,0,0,1,1.184-1.543l99.927-7.632a1.628,1.628,0,0,1,1.779,1.649v80.765A1.628,1.628,0,0,1,457.933,180.531Z" transform="translate(-317.524 -94.537)"/><path class="g" d="M445.515,174.4l-99.927-7.632a1.468,1.468,0,0,1-1.185-1.543V99.516a1.468,1.468,0,0,1,1.185-1.543l99.927-7.632a1.628,1.628,0,0,1,1.779,1.649v80.765A1.628,1.628,0,0,1,445.515,174.4Z" transform="translate(-308.713 -90.191)"/><path class="f" d="M447.294,91.99a1.628,1.628,0,0,0-1.779-1.649l-99.927,7.632a1.468,1.468,0,0,0-1.185,1.543v6.127L447.294,99.52Z" transform="translate(-308.713 -90.191)"/><g transform="translate(35.545)"><path class="c" d="M445.3,174.2c-.049,0-.1,0-.148-.006l-99.927-7.632a1.616,1.616,0,0,1-1.319-1.687V99.161a1.616,1.616,0,0,1,1.319-1.687l99.927-7.632a1.775,1.775,0,0,1,1.936,1.794V172.4A1.775,1.775,0,0,1,445.3,174.2Zm0-84.074c-.041,0-.083,0-.125,0l-99.927,7.632a1.325,1.325,0,0,0-1.05,1.4v65.714a1.324,1.324,0,0,0,1.05,1.4l99.927,7.632a1.486,1.486,0,0,0,1.623-1.5V91.635A1.487,1.487,0,0,0,445.3,90.126Z" transform="translate(-343.904 -89.835)"/></g><path class="c" d="M352.98,127.269a.829.829,0,0,1-.679.874.705.705,0,0,1-.677-.782.83.83,0,0,1,.677-.874A.7.7,0,0,1,352.98,127.269Z" transform="translate(-313.836 -115.84)"/><path class="b" d="M360.731,126.73a.834.834,0,0,1-.686.879.71.71,0,0,1-.683-.786.836.836,0,0,1,.683-.879A.709.709,0,0,1,360.731,126.73Z" transform="translate(-319.327 -115.456)"/><path class="c" d="M368.56,126.187a.84.84,0,0,1-.693.883.715.715,0,0,1-.69-.789.841.841,0,0,1,.69-.883A.714.714,0,0,1,368.56,126.187Z" transform="translate(-324.872 -115.068)"/><path class="f" d="M556.423,131.764v6.688l39.977-1.7V129.54Z" transform="translate(-459.152 -118.008)"/><path class="f" d="M583.948,223.487l-27.525-2.02V164.152l27.525-1.069Z" transform="translate(-459.152 -141.808)"/><path class="f" d="M473.813,174.16l-30.349-.49V139.359l30.349-1.689Z" transform="translate(-379.002 -123.777)"/><path class="d" d="M353.182,206.91l-5.517-.409V148.066l5.517-.307Z" transform="translate(-311.027 -130.935)"/><g transform="translate(100.053 54.326)"><path class="e" d="M625.437,279.608l-.713-.017a.994.994,0,0,1-.947-1.007v-.738a.944.944,0,0,1,.947-.967l.713.013a1,1,0,0,1,.953,1.007v.742A.945.945,0,0,1,625.437,279.608Z" transform="translate(-606.996 -276.878)"/><path class="e" d="M637.47,279.853l-.722-.017a1,1,0,0,1-.96-1.014v-.743a.954.954,0,0,1,.96-.973l.722.014a1,1,0,0,1,.966,1.014v.747A.954.954,0,0,1,637.47,279.853Z" transform="translate(-615.519 -277.039)"/><path class="g" d="M567.559,290.484l-.668-.021a.957.957,0,0,1-.888-.981v-.715a.894.894,0,0,1,.888-.93l.668.017a.957.957,0,0,1,.894.981v.718A.894.894,0,0,1,567.559,290.484Z" transform="translate(-566.002 -284.654)"/><path class="g" d="M578.839,290.79l-.677-.021a.966.966,0,0,1-.9-.987v-.719a.9.9,0,0,1,.9-.936l.677.017a.966.966,0,0,1,.905.987v.723A.9.9,0,0,1,578.839,290.79Z" transform="translate(-573.992 -284.859)"/><path class="g" d="M590.264,291.1l-.685-.021a.975.975,0,0,1-.911-.994v-.724a.911.911,0,0,1,.911-.942l.685.018a.974.974,0,0,1,.917.994v.728A.91.91,0,0,1,590.264,291.1Z" transform="translate(-582.084 -285.067)"/><path class="g" d="M601.837,291.415l-.695-.021a.984.984,0,0,1-.923-1v-.729a.919.919,0,0,1,.923-.948l.695.018a.984.984,0,0,1,.929,1v.733A.919.919,0,0,1,601.837,291.415Z" transform="translate(-590.281 -285.278)"/><path class="g" d="M613.56,291.733l-.7-.021a.993.993,0,0,1-.935-1.007v-.733a.928.928,0,0,1,.935-.954l.7.018a.993.993,0,0,1,.941,1.007v.737A.928.928,0,0,1,613.56,291.733Z" transform="translate(-598.585 -285.491)"/><path class="e" d="M625.437,292.056l-.713-.022a1,1,0,0,1-.947-1.013v-.738a.937.937,0,0,1,.947-.96l.713.018a1,1,0,0,1,.953,1.014v.742A.937.937,0,0,1,625.437,292.056Z" transform="translate(-606.996 -285.708)"/><path class="e" d="M637.47,292.383l-.722-.022a1.013,1.013,0,0,1-.96-1.021V290.6a.946.946,0,0,1,.96-.966l.722.019a1.012,1.012,0,0,1,.966,1.02v.747A.946.946,0,0,1,637.47,292.383Z" transform="translate(-615.519 -285.927)"/><path class="g" d="M567.559,302.537l-.668-.025a.965.965,0,0,1-.888-.986v-.715a.887.887,0,0,1,.888-.924l.668.022a.965.965,0,0,1,.894.987v.719A.887.887,0,0,1,567.559,302.537Z" transform="translate(-566.002 -293.203)"/><path class="g" d="M578.839,302.921l-.677-.026a.974.974,0,0,1-.9-.993v-.719a.9.9,0,0,1,.9-.93l.677.022a.974.974,0,0,1,.905.993v.723A.9.9,0,0,1,578.839,302.921Z" transform="translate(-573.992 -293.464)"/><path class="g" d="M590.264,303.309l-.685-.026a.983.983,0,0,1-.911-1v-.724a.9.9,0,0,1,.911-.936l.685.022a.983.983,0,0,1,.917,1v.728A.9.9,0,0,1,590.264,303.309Z" transform="translate(-582.084 -293.727)"/><path class="g" d="M601.837,303.7l-.695-.026a.992.992,0,0,1-.923-1.006v-.729a.912.912,0,0,1,.923-.942l.695.022a.992.992,0,0,1,.929,1.006v.733A.912.912,0,0,1,601.837,303.7Z" transform="translate(-590.281 -293.994)"/><path class="g" d="M613.56,304.1l-.7-.026a1,1,0,0,1-.935-1.013v-.734a.92.92,0,0,1,.935-.948l.7.023a1,1,0,0,1,.941,1.013v.737A.92.92,0,0,1,613.56,304.1Z" transform="translate(-598.585 -294.263)"/><path class="e" d="M625.437,304.5l-.713-.027a1.011,1.011,0,0,1-.947-1.02v-.738a.929.929,0,0,1,.947-.954l.713.023a1.011,1.011,0,0,1,.953,1.02v.742A.929.929,0,0,1,625.437,304.5Z" transform="translate(-606.996 -294.537)"/><path class="e" d="M637.47,304.914l-.722-.027a1.021,1.021,0,0,1-.96-1.027v-.743a.938.938,0,0,1,.96-.96l.722.023a1.021,1.021,0,0,1,.966,1.027v.747A.938.938,0,0,1,637.47,304.914Z" transform="translate(-615.519 -294.814)"/><path class="g" d="M567.559,314.591l-.668-.03a.973.973,0,0,1-.888-.993v-.715a.88.88,0,0,1,.888-.918l.668.026a.973.973,0,0,1,.894.993v.719A.88.88,0,0,1,567.559,314.591Z" transform="translate(-566.002 -301.753)"/><path class="g" d="M578.839,315.051l-.677-.03a.982.982,0,0,1-.9-1v-.72a.888.888,0,0,1,.9-.924l.677.026a.982.982,0,0,1,.905,1v.723A.888.888,0,0,1,578.839,315.051Z" transform="translate(-573.992 -302.067)"/><path class="g" d="M590.264,315.517l-.685-.031a.991.991,0,0,1-.911-1.006v-.724a.9.9,0,0,1,.911-.93l.685.027a.991.991,0,0,1,.917,1.006v.728A.9.9,0,0,1,590.264,315.517Z" transform="translate(-582.084 -302.386)"/><path class="g" d="M601.837,315.99l-.695-.031a1,1,0,0,1-.923-1.013v-.729a.9.9,0,0,1,.923-.936l.695.027a1,1,0,0,1,.929,1.013v.732A.9.9,0,0,1,601.837,315.99Z" transform="translate(-590.281 -302.708)"/><path class="g" d="M613.56,316.468l-.7-.031a1.01,1.01,0,0,1-.935-1.019v-.734a.913.913,0,0,1,.935-.941l.7.028a1.01,1.01,0,0,1,.941,1.02v.737A.913.913,0,0,1,613.56,316.468Z" transform="translate(-598.585 -303.035)"/><path class="e" d="M625.437,316.953l-.713-.032a1.019,1.019,0,0,1-.947-1.026v-.738a.922.922,0,0,1,.947-.947l.713.028a1.02,1.02,0,0,1,.953,1.027v.742A.922.922,0,0,1,625.437,316.953Z" transform="translate(-606.996 -303.366)"/><path class="e" d="M637.47,317.444l-.722-.032a1.03,1.03,0,0,1-.96-1.034v-.743a.931.931,0,0,1,.96-.953l.722.028a1.03,1.03,0,0,1,.966,1.034v.747A.931.931,0,0,1,637.47,317.444Z" transform="translate(-615.519 -303.702)"/><path class="g" d="M567.559,326.644l-.668-.034a.982.982,0,0,1-.888-1V324.9a.873.873,0,0,1,.888-.913l.668.031a.981.981,0,0,1,.894,1v.718A.873.873,0,0,1,567.559,326.644Z" transform="translate(-566.002 -310.302)"/><path class="g" d="M578.839,327.181l-.677-.035a.99.99,0,0,1-.9-1.005v-.719a.881.881,0,0,1,.9-.918l.677.031a.99.99,0,0,1,.905,1.006v.723A.881.881,0,0,1,578.839,327.181Z" transform="translate(-573.992 -310.671)"/><path class="g" d="M590.264,327.725l-.685-.035a1,1,0,0,1-.911-1.012v-.724a.889.889,0,0,1,.911-.924l.685.032a1,1,0,0,1,.917,1.012v.728A.889.889,0,0,1,590.264,327.725Z" transform="translate(-582.084 -311.044)"/><path class="g" d="M601.837,328.277l-.695-.036a1.009,1.009,0,0,1-.923-1.019v-.729a.9.9,0,0,1,.923-.929l.695.032a1.009,1.009,0,0,1,.929,1.019v.732A.9.9,0,0,1,601.837,328.277Z" transform="translate(-590.281 -311.423)"/><path class="g" d="M613.56,328.835l-.7-.036a1.018,1.018,0,0,1-.935-1.026v-.734a.906.906,0,0,1,.935-.935l.7.033a1.018,1.018,0,0,1,.941,1.026v.737A.906.906,0,0,1,613.56,328.835Z" transform="translate(-598.585 -311.806)"/><path class="e" d="M625.437,329.4l-.713-.037a1.028,1.028,0,0,1-.947-1.033v-.738a.914.914,0,0,1,.947-.941l.713.033a1.028,1.028,0,0,1,.953,1.033v.742A.915.915,0,0,1,625.437,329.4Z" transform="translate(-606.996 -312.195)"/><path class="e" d="M637.47,329.974l-.722-.037a1.038,1.038,0,0,1-.96-1.04v-.743a.923.923,0,0,1,.96-.947l.722.033a1.038,1.038,0,0,1,.966,1.04v.747A.924.924,0,0,1,637.47,329.974Z" transform="translate(-615.519 -312.589)"/><path class="g" d="M567.559,338.7l-.668-.039a.989.989,0,0,1-.888-1v-.715a.866.866,0,0,1,.888-.906l.668.035a.99.99,0,0,1,.894,1.005v.718A.866.866,0,0,1,567.559,338.7Z" transform="translate(-566.002 -318.851)"/></g><path class="g" d="M637.137,139.731l-1.78.077A2.19,2.19,0,0,1,633,137.653V135.96a2.465,2.465,0,0,1,2.355-2.386l1.78-.1a2.194,2.194,0,0,1,2.392,2.153v1.713A2.469,2.469,0,0,1,637.137,139.731Z" transform="translate(-513.489 -120.798)"/><path class="g" d="M668.645,138.089l-1.842.08a2.248,2.248,0,0,1-2.436-2.19v-1.722a2.531,2.531,0,0,1,2.436-2.429l1.842-.1a2.253,2.253,0,0,1,2.475,2.188v1.743A2.535,2.535,0,0,1,668.645,138.089Z" transform="translate(-535.744 -119.556)"/><path class="e" d="M669.935,137.165v2.389l.948-.045v.825l.964-.871,1.576-.075v-2.4Z" transform="translate(-539.695 -123.29)"/><path class="e" d="M641.642,141.99h-.005a2.985,2.985,0,0,1-2.592-2.544.769.769,0,0,1,.327-.552l.256-.168a.322.322,0,0,1,.16-.053.291.291,0,0,1,.253.118l.466.645a.3.3,0,0,1-.071.414l-.276.213a2.254,2.254,0,0,0,.379.445,2.3,2.3,0,0,0,.474.348l.2-.28a.328.328,0,0,1,.421-.09l.688.425a.289.289,0,0,1,.089.4l-.159.26A1.034,1.034,0,0,1,641.642,141.99Z" transform="translate(-517.776 -124.489)"/><path class="h" d="M532.094,353.666a.887.887,0,0,1-.919.941,1.05,1.05,0,0,1-.916-1.069.888.888,0,0,1,.916-.941A1.049,1.049,0,0,1,532.094,353.666Z" transform="translate(-440.587 -276.277)"/><path class="h" d="M520.66,352.884a.879.879,0,0,1-.907.935,1.04,1.04,0,0,1-.9-1.061.879.879,0,0,1,.9-.935A1.039,1.039,0,0,1,520.66,352.884Z" transform="translate(-432.491 -275.727)"/><path class="h" d="M510.124,352.162a.871.871,0,0,1-.9.929,1.031,1.031,0,0,1-.893-1.054.872.872,0,0,1,.893-.93A1.03,1.03,0,0,1,510.124,352.162Z" transform="translate(-425.031 -275.22)"/><path class="h" d="M499.633,351.443a.864.864,0,0,1-.885.924,1.022,1.022,0,0,1-.882-1.047.865.865,0,0,1,.882-.925A1.022,1.022,0,0,1,499.633,351.443Z" transform="translate(-417.603 -274.715)"/><path class="h" d="M490.406,350.812a.858.858,0,0,1-.875.92,1.015,1.015,0,0,1-.872-1.042.858.858,0,0,1,.872-.92A1.014,1.014,0,0,1,490.406,350.812Z" transform="translate(-411.069 -274.272)"/><g class="i" transform="translate(89.059 75.632)"><path class="e" d="M529.8,353.633c-.035,0-.07,0-.106,0a1.771,1.771,0,0,1-1.546-1.794,1.516,1.516,0,0,1,1.566-1.6,1.767,1.767,0,0,1,1.556,1.794A1.523,1.523,0,0,1,529.8,353.633Zm-.183-3.107a1.236,1.236,0,0,0-1.179,1.31,1.476,1.476,0,0,0,1.277,1.5,1.224,1.224,0,0,0,1.264-1.307,1.473,1.473,0,0,0-1.284-1.5Z" transform="translate(-528.151 -350.235)"/></g><path class="e" d="M471.138,295.691c-.168-1.464-2.02-9.46-6.932-9.606-3.9-.116-5.889,5.1-6.946,5.194s-1.816-2.535-3.383-2.214-1.932,2.835-3.1,3.546-1.954.058-3.985-.17c-1.493-.168-2.712,1.2-3.243,1.916Z" transform="translate(-379.06 -229.084)"/><g transform="translate(62.349 52.787)"><path class="e" d="M468.823,287.724l-32.634-1.707V271.579l.148,0,32.486.734Zm-32.344-1.983,32.053,1.677V272.6l-32.053-.724Z" transform="translate(-436.189 -271.579)"/></g><g transform="translate(70.213 17.879)"><path class="g" d="M473.692,151.392c-5.8.331-10.387,5.747-10.427,12.163l10.427-.262Z" transform="translate(-463.265 -151.392)"/><path class="e" d="M468.4,193.186c.04,5.484,3.986,9.919,8.935,9.945V192.965Z" transform="translate(-466.911 -180.89)"/><path class="e" d="M507.369,171.55c-.043-4.7-3.487-8.37-7.668-8.241v8.434Z" transform="translate(-489.118 -159.845)"/><path class="g" d="M499.7,199.283c3.311-.084,6.028-3.129,6.071-6.848l-6.071.15Z" transform="translate(-489.118 -180.514)"/></g><g transform="translate(65.723 15.01)"><path class="e" d="M448.661,168.62a.145.145,0,0,1,0-.29h.527a.145.145,0,1,1,0,.29Zm2.537,0a.145.145,0,1,1,0-.29h.527a.145.145,0,1,1,0,.29Zm2.538,0a.145.145,0,1,1,0-.29h.526a.145.145,0,1,1,0,.29Zm2.537,0a.145.145,0,1,1,0-.29h.527a.145.145,0,0,1,0,.29Zm2.537,0a.145.145,0,0,1,0-.29h.527a.145.145,0,0,1,0,.29Zm2.538,0a.145.145,0,0,1,0-.29h.526a.145.145,0,0,1,0,.29Zm2.537,0a.145.145,0,0,1,0-.29h.527a.145.145,0,1,1,0,.29Zm2.537,0a.145.145,0,0,1,0-.29h.527a.145.145,0,1,1,0,.29Zm2.538,0a.145.145,0,0,1,0-.29h.526a.145.145,0,1,1,0,.29Zm2.537,0a.145.145,0,1,1,0-.29h.527a.145.145,0,1,1,0,.29Zm2.537,0a.145.145,0,0,1,0-.29h.527a.145.145,0,0,1,0,.29Zm1.277-.886a.145.145,0,0,1-.145-.145v-.527a.145.145,0,0,1,.29,0v.527A.145.145,0,0,1,475.313,167.723Zm-27.363-.712a.145.145,0,0,1-.145-.145v-.526a.145.145,0,1,1,.29,0v.526A.145.145,0,0,1,447.95,167.011Zm27.363-1.826a.145.145,0,0,1-.145-.145v-.526a.145.145,0,1,1,.29,0v.526A.145.145,0,0,1,475.313,165.185Zm-27.363-.711a.145.145,0,0,1-.145-.145V163.8a.145.145,0,1,1,.29,0v.527A.145.145,0,0,1,447.95,164.474Zm27.363-1.826a.145.145,0,0,1-.145-.145v-.527a.145.145,0,0,1,.29,0v.527A.145.145,0,0,1,475.313,162.648Zm-27.363-.711a.145.145,0,0,1-.145-.145v-.527a.145.145,0,1,1,.29,0v.527A.145.145,0,0,1,447.95,161.937Zm27.363-1.826a.145.145,0,0,1-.145-.145v-.527a.145.145,0,1,1,.29,0v.527A.145.145,0,0,1,475.313,160.111ZM447.95,159.4a.145.145,0,0,1-.145-.145v-.526a.145.145,0,1,1,.29,0v.526A.145.145,0,0,1,447.95,159.4Zm27.363-1.826a.145.145,0,0,1-.145-.145V156.9a.145.145,0,0,1,.29,0v.526A.145.145,0,0,1,475.313,157.573Zm-27.363-.711a.145.145,0,0,1-.145-.145v-.527a.145.145,0,1,1,.29,0v.527A.145.145,0,0,1,447.95,156.862Zm27.363-1.826a.145.145,0,0,1-.145-.145v-.527a.145.145,0,1,1,.29,0v.527A.145.145,0,0,1,475.313,155.036Zm-27.363-.711a.145.145,0,0,1-.145-.145v-.527a.145.145,0,1,1,.29,0v.527A.145.145,0,0,1,447.95,154.324Zm27.363-1.826a.145.145,0,0,1-.145-.145v-.526a.145.145,0,0,1,.29,0v.526A.145.145,0,0,1,475.313,152.5Zm-27.363-.711a.145.145,0,0,1-.145-.145v-.526a.145.145,0,1,1,.29,0v.526A.145.145,0,0,1,447.95,151.787Zm27.363-1.826a.145.145,0,0,1-.145-.145v-.526a.145.145,0,1,1,.29,0v.526A.145.145,0,0,1,475.313,149.961Zm-27.363-.711a.145.145,0,0,1-.145-.145v-.526a.145.145,0,1,1,.29,0v.526A.145.145,0,0,1,447.95,149.249Zm27.363-1.826a.145.145,0,0,1-.145-.145v-.527a.145.145,0,0,1,.29,0v.527A.145.145,0,0,1,475.313,147.423Zm-27.363-.711a.145.145,0,0,1-.145-.145v-.527a.145.145,0,1,1,.29,0v.527A.145.145,0,0,1,447.95,146.712Zm27.363-1.826a.145.145,0,0,1-.145-.145v-.526a.145.145,0,1,1,.29,0v.526A.145.145,0,0,1,475.313,144.886Zm-27.363-.711a.145.145,0,0,1-.145-.145v-.247a1.037,1.037,0,0,1,.05-.319.145.145,0,0,1,.276.089.746.746,0,0,0-.036.23v.247A.145.145,0,0,1,447.95,144.174Zm1.8-1.119a.145.145,0,0,1-.008-.29l.525-.028a.144.144,0,0,1,.153.137.146.146,0,0,1-.137.153l-.526.028Zm2.534-.136a.145.145,0,0,1-.008-.29l.526-.028a.145.145,0,0,1,.015.29l-.526.028Zm2.534-.136a.145.145,0,0,1-.008-.29l.526-.028a.148.148,0,0,1,.153.137.146.146,0,0,1-.137.153l-.526.028Zm2.534-.136a.145.145,0,0,1-.008-.29l.526-.028a.147.147,0,0,1,.152.137.145.145,0,0,1-.137.153l-.526.028Zm2.534-.136a.145.145,0,0,1-.008-.29l.526-.028a.145.145,0,0,1,.015.29l-.525.028Zm2.534-.136a.145.145,0,0,1-.008-.29l.525-.028a.145.145,0,0,1,.015.29l-.526.028Zm12.876-.028a.145.145,0,0,1-.143-.119.644.644,0,0,0-.2-.369.145.145,0,0,1,.192-.218.933.933,0,0,1,.3.536.145.145,0,0,1-.117.168Zm-10.343-.108a.145.145,0,0,1-.008-.29l.526-.028a.145.145,0,0,1,.015.29l-.526.028Zm2.534-.136a.145.145,0,0,1-.008-.29l.526-.028a.145.145,0,0,1,.015.29l-.526.028Zm2.534-.136a.145.145,0,0,1-.008-.29l.525-.028a.145.145,0,0,1,.015.29l-.526.028Zm2.534-.136a.145.145,0,0,1-.008-.29l.526-.028a.145.145,0,0,1,.015.29l-.526.028Z" transform="translate(-447.805 -141.515)"/></g><path class="e" d="M353.98,151.927l-4.133.214v-.758l4.133-.221Z" transform="translate(-312.575 -133.35)"/><path class="e" d="M353.98,157.06l-4.133.2v-1.515l4.133-.21Z" transform="translate(-312.575 -136.45)"/><path class="e" d="M353.98,164.06l-4.133.177v-1.515l4.133-.191Z" transform="translate(-312.575 -141.417)"/><path class="f" d="M382.392,147.071l-11.117.578v-1.659l11.117-.619Z" transform="translate(-327.78 -129.242)"/><path class="f" d="M382.392,157.9l-11.117.5V156.74l11.117-.544Z" transform="translate(-327.78 -136.922)"/><path class="f" d="M382.392,168.719l-11.117.429V167.49l11.117-.469Z" transform="translate(-327.78 -144.602)"/><path class="f" d="M382.392,179.543l-11.117.354v-1.659l11.117-.395Z" transform="translate(-327.78 -152.282)"/><path class="f" d="M382.392,190.367l-11.117.28v-1.659l11.117-.32Z" transform="translate(-327.78 -159.962)"/><path class="f" d="M382.392,201.191l-11.117.205v-1.659l11.117-.245Z" transform="translate(-327.78 -167.642)"/><path class="f" d="M382.392,212.014l-11.117.13v-1.659l11.117-.171Z" transform="translate(-327.78 -175.322)"/><path class="f" d="M390.626,222.623l-19.351.1v-1.659l19.351-.167Z" transform="translate(-327.78 -182.829)"/><path class="f" d="M390.626,233.637l-19.351-.033v-1.659l19.351-.037Z" transform="translate(-327.78 -190.644)"/><path class="f" d="M390.626,244.425l-19.351-.163V242.6l19.351.093Z" transform="translate(-327.78 -198.232)"/><path class="f" d="M390.626,255.122l-19.351-.293v-1.659l19.351.223Z" transform="translate(-327.78 -205.73)"/><path class="f" d="M386.535,265.729l-15.26-.333v-1.659l15.26.278Z" transform="translate(-327.78 -213.228)"/><path class="f" d="M386.535,276.4l-15.26-.436V274.3l15.26.38Z" transform="translate(-327.78 -220.726)"/><path class="f" d="M386.535,287.068l-15.26-.538v-1.659l15.26.483Z" transform="translate(-327.78 -228.223)"/><path class="f" d="M386.535,297.737l-15.26-.641v-1.659l15.26.586Z" transform="translate(-327.78 -235.721)"/><path class="f" d="M386.535,308.406l-15.26-.743V306l15.26.688Z" transform="translate(-327.78 -243.219)"/><path class="f" d="M386.535,319.076l-15.26-.846v-1.659l15.26.79Z" transform="translate(-327.78 -250.716)"/><path class="f" d="M386.535,329.745l-15.26-.948v-1.659l15.26.893Z" transform="translate(-327.78 -258.214)"/><path class="f" d="M386.535,340.414l-15.26-1.051V337.7l15.26,1Z" transform="translate(-327.78 -265.712)"/><path class="f" d="M446.478,337.257l-1.125-.08c0-3-2.137-5.564-4.738-5.72-2.573-.155-4.647,2.112-4.647,5.052l-1.077-.077c0-3.621,2.551-6.42,5.724-6.238C443.83,330.378,446.478,333.548,446.478,337.257Z" transform="translate(-372.919 -260.376)"/><path class="e" d="M435.968,337.7l-1.077-.077a6.28,6.28,0,0,1,3.282-5.757l.463,1.166A5.084,5.084,0,0,0,435.968,337.7Z" transform="translate(-372.919 -261.572)"/><path class="e" d="M451.644,345.512h0l-1.578-2.451,0,0a.188.188,0,0,0-.248-.08.229.229,0,0,0-.092.266l0,0,.807,2.864h0a.823.823,0,0,0,.041.119.637.637,0,0,0,.868.367.758.758,0,0,0,.266-.979A.865.865,0,0,0,451.644,345.512Zm-.366.73a.3.3,0,0,1-.408-.172.356.356,0,0,1,.125-.459.3.3,0,0,1,.408.172A.356.356,0,0,1,451.279,346.242Z" transform="translate(-383.436 -269.442)"/><path class="e" d="M522.633,155.522l-2.373.109a.042.042,0,0,0-.037.043v1.167a.037.037,0,0,0,.037.039l.9-.039a.035.035,0,0,1,.033.019l.216.4a.036.036,0,0,0,.065,0l.217-.422a.039.039,0,0,1,.033-.022l.907-.039a.042.042,0,0,0,.038-.043v-1.173A.037.037,0,0,0,522.633,155.522Z" transform="translate(-433.466 -136.443)"/><path class="g" d="M526.848,211.878l-2.384.032a.04.04,0,0,0-.038.042v1.17a.039.039,0,0,0,.038.041l.906-.01a.036.036,0,0,1,.033.02l.218.412a.036.036,0,0,0,.065,0l.218-.416a.038.038,0,0,1,.033-.021l.912-.01a.04.04,0,0,0,.038-.042v-1.176A.039.039,0,0,0,526.848,211.878Z" transform="translate(-436.449 -176.431)"/><path class="e" d="M455.172,208.428l-2.191.035a.038.038,0,0,0-.035.04v1.121a.037.037,0,0,0,.035.039l.833-.011a.033.033,0,0,1,.03.019l.2.394a.033.033,0,0,0,.06,0l.2-.4a.036.036,0,0,1,.03-.02l.838-.011a.038.038,0,0,0,.035-.04v-1.127A.037.037,0,0,0,455.172,208.428Z" transform="translate(-385.73 -173.983)"/><path class="g" d="M456.828,161.4l-2.195.1a.039.039,0,0,0-.035.041v1.123a.035.035,0,0,0,.035.038l.834-.035a.032.032,0,0,1,.03.019l.2.389a.033.033,0,0,0,.06,0l.2-.405a.036.036,0,0,1,.03-.021l.839-.035a.039.039,0,0,0,.035-.041v-1.128A.036.036,0,0,0,456.828,161.4Z" transform="translate(-386.902 -140.613)"/><path class="f" d="M419.879,164.718l-7.377.086v-20.6l7.377-.411Z" transform="translate(-357.033 -128.122)"/><path class="f" d="M665.664,163.373l-11.553.411v-1.731l11.553-.448Z" transform="translate(-528.467 -140.76)"/><path class="f" d="M665.664,173.31l-11.553.35v-1.731l11.553-.387Z" transform="translate(-528.467 -147.811)"/><path class="f" d="M665.664,183.247l-11.553.289v-1.731l11.553-.327Z" transform="translate(-528.467 -154.861)"/><path class="f" d="M665.664,193.183l-11.553.229v-1.731l11.553-.266Z" transform="translate(-528.467 -161.912)"/><path class="f" d="M665.664,203.12l-11.553.168v-1.731l11.553-.205Z" transform="translate(-528.467 -168.963)"/><path class="f" d="M665.664,213.057l-11.553.108v-1.731l11.553-.145Z" transform="translate(-528.467 -176.013)"/><path class="f" d="M665.664,222.994l-11.553.047v-1.731l11.553-.084Z" transform="translate(-528.467 -183.064)"/><path class="f" d="M665.664,232.931l-11.553-.013v-1.731l11.553-.024Z" transform="translate(-528.467 -190.115)"/><path class="f" d="M665.664,242.778l-11.553-.074v-1.731l11.553.037Z" transform="translate(-528.467 -197.076)"/><path class="f" d="M665.664,252.567l-11.553-.134V250.7l11.553.1Z" transform="translate(-528.467 -203.978)"/><path class="f" d="M665.664,262.356l-11.553-.195V260.43l11.553.158Z" transform="translate(-528.467 -210.881)"/><path class="f" d="M665.664,272.144l-11.553-.255v-1.731l11.553.218Z" transform="translate(-528.467 -217.784)"/><path class="f" d="M665.664,281.933l-11.553-.316v-1.731l11.553.279Z" transform="translate(-528.467 -224.687)"/><path class="f" d="M665.664,291.722l-11.553-.377v-1.731l11.553.339Z" transform="translate(-528.467 -231.59)"/><path class="f" d="M665.664,301.511l-11.553-.437v-1.731l11.553.4Z" transform="translate(-528.467 -238.492)"/><path class="f" d="M665.664,311.3l-11.553-.5v-1.731l11.553.461Z" transform="translate(-528.467 -245.395)"/><path class="f" d="M665.664,321.089l-11.553-.558V318.8l11.553.521Z" transform="translate(-528.467 -252.298)"/><path class="f" d="M665.664,330.878l-11.553-.619v-1.731l11.553.582Z" transform="translate(-528.467 -259.201)"/><path class="f" d="M665.664,340.667l-11.553-.679v-1.731l11.553.642Z" transform="translate(-528.467 -266.104)"/><path class="f" d="M665.664,350.456l-11.553-.74v-1.731l11.553.7Z" transform="translate(-528.467 -273.006)"/><path class="f" d="M665.664,360.245l-11.553-.8v-1.731l11.553.763Z" transform="translate(-528.467 -279.909)"/><path class="f" d="M665.664,370.034l-11.553-.861v-1.731l11.553.824Z" transform="translate(-528.467 -286.812)"/><g transform="translate(101.137 25.044)"><path class="g" d="M579.007,176.062v9.955l-9.264.128a9.447,9.447,0,0,0,9.184,9.594,9.743,9.743,0,0,0,9.488-9.97A9.425,9.425,0,0,0,579.007,176.062Z" transform="translate(-569.74 -176.059)"/><path class="e" d="M569.734,186.034c0,.011,0,.021,0,.033l9.186-.128v-9.871A9.781,9.781,0,0,0,569.734,186.034Z" transform="translate(-569.734 -176.066)"/></g><g transform="translate(99.327 22.785)"><path class="e" d="M584.854,192.279l-.527,0a.145.145,0,0,1,0-.29h0l.527,0a.754.754,0,0,0,.416-.125.145.145,0,1,1,.159.243A1.044,1.044,0,0,1,584.854,192.279Zm-2.537-.016h0l-.527,0a.145.145,0,0,1,0-.29h0l.527,0a.145.145,0,0,1,0,.29Zm-2.538-.016h0l-.526,0a.145.145,0,0,1-.144-.146.149.149,0,0,1,.146-.144l.526,0a.145.145,0,0,1,0,.29Zm-2.537-.016h0l-.527,0a.145.145,0,0,1,0-.29h0l.527,0a.145.145,0,0,1,0,.29Zm-2.537-.016h0l-.527,0a.145.145,0,0,1,0-.29h0l.527,0a.145.145,0,0,1,0,.29Zm-2.538-.016h0l-.526,0a.145.145,0,0,1,0-.29h0l.526,0a.145.145,0,0,1,0,.29Zm-2.537-.016h0l-.526,0a.145.145,0,0,1,0-.29h0l.527,0a.145.145,0,0,1,0,.29Zm-2.537-.016h0l-.527,0a.145.145,0,0,1,0-.29h0l.527,0a.145.145,0,0,1,0,.29Zm-2.538-.016H564.5a.961.961,0,0,1-.527-.163.145.145,0,0,1,.161-.242.669.669,0,0,0,.368.114h.051a.145.145,0,0,1,0,.29Zm21.219-1.888a.145.145,0,0,1-.145-.145v-.526a.145.145,0,1,1,.29,0v.526A.145.145,0,0,1,585.773,190.264Zm-22.125-.125a.145.145,0,0,1-.145-.145v-.526a.145.145,0,0,1,.29,0v.526A.145.145,0,0,1,563.648,190.139Zm22.125-2.412a.145.145,0,0,1-.145-.145v-.527a.145.145,0,1,1,.29,0v.527A.145.145,0,0,1,585.773,187.727Zm-22.125-.125a.145.145,0,0,1-.145-.145v-.527a.145.145,0,1,1,.29,0v.527A.145.145,0,0,1,563.648,187.6Zm22.125-2.412a.145.145,0,0,1-.145-.145v-.527a.145.145,0,1,1,.29,0v.527A.145.145,0,0,1,585.773,185.189Zm-22.125-.125a.145.145,0,0,1-.145-.145v-.526a.145.145,0,1,1,.29,0v.526A.145.145,0,0,1,563.648,185.064Zm22.125-2.412a.145.145,0,0,1-.145-.145v-.526a.145.145,0,1,1,.29,0v.526A.145.145,0,0,1,585.773,182.652Zm-22.125-.125a.145.145,0,0,1-.145-.145v-.526a.145.145,0,0,1,.29,0v.526A.145.145,0,0,1,563.648,182.527Zm22.125-2.412a.145.145,0,0,1-.145-.145v-.527a.145.145,0,1,1,.29,0v.527A.145.145,0,0,1,585.773,180.114Zm-22.125-.125a.145.145,0,0,1-.145-.145v-.527a.145.145,0,1,1,.29,0v.527A.145.145,0,0,1,563.648,179.989Zm22.125-2.412a.145.145,0,0,1-.145-.145v-.527a.145.145,0,1,1,.29,0v.527A.145.145,0,0,1,585.773,177.577Zm-22.125-.125a.145.145,0,0,1-.145-.145v-.526a.145.145,0,1,1,.29,0v.526A.145.145,0,0,1,563.648,177.452Zm22.125-2.412a.145.145,0,0,1-.145-.145v-.526a.145.145,0,1,1,.29,0v.526A.145.145,0,0,1,585.773,175.039Zm-22.125-.125a.145.145,0,0,1-.145-.145v-.526a.145.145,0,0,1,.29,0v.526A.145.145,0,0,1,563.648,174.914Zm22.125-2.412a.145.145,0,0,1-.145-.145v-.527a.145.145,0,1,1,.29,0v.527A.145.145,0,0,1,585.773,172.5Zm-22.125-.125a.145.145,0,0,1-.145-.145v-.527a.145.145,0,0,1,.29,0v.527A.145.145,0,0,1,563.648,172.377Zm22.125-2.412a.145.145,0,0,1-.145-.145v-.491a.159.159,0,0,1,.138-.166.132.132,0,0,1,.152.123c0,.015,0,.031,0,.046v.487A.145.145,0,0,1,585.773,169.965Zm-22.063-.118a.141.141,0,0,1-.051-.009.146.146,0,0,1-.086-.187,1.1,1.1,0,0,1,.352-.484.145.145,0,1,1,.179.229.8.8,0,0,0-.259.357A.145.145,0,0,1,563.71,169.847Zm2.274-.651a.145.145,0,0,1,0-.29l.526-.018a.143.143,0,0,1,.15.14.146.146,0,0,1-.141.15l-.526.018Zm2.536-.087a.145.145,0,0,1-.005-.29l.526-.018a.145.145,0,1,1,.01.29l-.526.018Zm2.536-.086a.145.145,0,0,1,0-.29l.526-.018a.145.145,0,1,1,.01.29l-.526.018Zm2.536-.086a.145.145,0,0,1,0-.29l.526-.018a.145.145,0,1,1,.01.29l-.526.018Zm2.536-.087a.145.145,0,0,1,0-.29l.526-.018a.143.143,0,0,1,.15.14.145.145,0,0,1-.14.15l-.526.018Zm2.536-.086a.145.145,0,0,1,0-.29l.526-.018a.143.143,0,0,1,.15.14.145.145,0,0,1-.141.15l-.526.018Zm2.536-.087a.145.145,0,0,1,0-.29l.526-.018a.142.142,0,0,1,.15.14.146.146,0,0,1-.14.15l-.526.018Zm2.536-.086a.145.145,0,0,1,0-.29l.526-.018a.142.142,0,0,1,.15.14.145.145,0,0,1-.141.15l-.526.018Z" transform="translate(-563.503 -168.282)"/></g><path class="b" d="M229.388,287.145h-4.409a.07.07,0,0,0-.07.07v1.975a.07.07,0,0,0,.07.07h1.681a.07.07,0,0,1,.061.035l.4.7a.07.07,0,0,0,.121,0l.4-.7a.069.069,0,0,1,.06-.035h1.681a.07.07,0,0,0,.07-.07v-1.975A.07.07,0,0,0,229.388,287.145Z" transform="translate(-223.926 -229.837)"/><path class="d" d="M255.205,260.507H250.8a.07.07,0,0,0-.07.07v1.975a.07.07,0,0,0,.07.07h1.681a.07.07,0,0,1,.06.035l.4.7a.07.07,0,0,0,.121,0l.4-.7a.07.07,0,0,1,.06-.035h1.681a.07.07,0,0,0,.07-.07v-1.975A.07.07,0,0,0,255.205,260.507Z" transform="translate(-242.244 -210.936)"/><path class="b" d="M279.833,233.8h-4.409a.07.07,0,0,0-.07.07v1.975a.07.07,0,0,0,.07.07h1.681a.07.07,0,0,1,.06.035l.4.7a.07.07,0,0,0,.121,0l.4-.7a.07.07,0,0,1,.06-.035h1.681a.07.07,0,0,0,.07-.07v-1.975A.07.07,0,0,0,279.833,233.8Z" transform="translate(-259.719 -191.985)"/><path class="d" d="M304.629,208.7H300.22a.07.07,0,0,0-.07.07v1.975a.07.07,0,0,0,.07.07H301.9a.07.07,0,0,1,.06.035l.4.7a.07.07,0,0,0,.121,0l.4-.7a.07.07,0,0,1,.06-.035h1.681a.07.07,0,0,0,.07-.07v-1.975A.07.07,0,0,0,304.629,208.7Z" transform="translate(-277.313 -174.172)"/><ellipse class="d" cx="3.258" cy="1.412" rx="3.258" ry="1.412" transform="translate(0 63.294)"/><path class="f" d="M224.781,314.03c-1.8,0-3.258-.632-3.258-1.412v6.515c0,.78,1.459,1.412,3.258,1.412s3.258-.632,3.258-1.412v-6.515C228.038,313.4,226.58,314.03,224.781,314.03Z" transform="translate(-221.523 -247.911)"/><ellipse class="d" cx="3.258" cy="1.412" rx="3.258" ry="1.412" transform="translate(14.652 48.193)"/><path class="f" d="M275.227,262.037c-1.8,0-3.258-.632-3.258-1.412v13.031c0,.78,1.458,1.412,3.258,1.412s3.258-.632,3.258-1.412V260.625C278.484,261.4,277.026,262.037,275.227,262.037Z" transform="translate(-257.317 -211.02)"/><ellipse class="d" cx="3.258" cy="1.412" rx="3.258" ry="1.412" transform="translate(21.854 40.996)"/><path class="f" d="M300.022,237.257c-1.8,0-3.258-.632-3.258-1.412v16.289c0,.78,1.459,1.412,3.258,1.412s3.258-.632,3.258-1.412V235.845C303.279,236.625,301.821,237.257,300.022,237.257Z" transform="translate(-274.91 -193.437)"/><ellipse class="d" cx="3.258" cy="1.412" rx="3.258" ry="1.412" transform="translate(7.499 55.71)"/><path class="f" d="M250.6,287.918c-1.8,0-3.258-.632-3.258-1.412v9.773c0,.78,1.458,1.412,3.258,1.412s3.258-.632,3.258-1.412v-9.773C253.856,287.286,252.4,287.918,250.6,287.918Z" transform="translate(-239.842 -229.383)"/><path class="j" d="M441.587,204.267c-.287.245-1.1,1.2-1.1,1.2s1.08-1.8,1.181-1.963-.059-.368-.2-.317a1.138,1.138,0,0,1,.1-.216c.139-.158-.152-.41-.491-.058a15.974,15.974,0,0,1-1.575,1.775c-.17-.013.682-1.772.8-2.1s-.273-.387-.854.529a27.261,27.261,0,0,1-1.562,2.519c-.3.272-.5-.127-.579-.391s-.667-1.132-.956-.836.183.6.173.906a3.073,3.073,0,0,0,.224,1.616c.122.287.255.55.374.77a1.516,1.516,0,0,0-.209.227l-.143.195a.6.6,0,0,0-.37.247h0l0,.005-.01.013-3.673,5.008-9.132.094v0h-.045a2.935,2.935,0,0,0-.453.051,9.985,9.985,0,0,0-4.181-1.417,1.983,1.983,0,0,0-1.048-1.259l-.2-.846a3.907,3.907,0,0,0,2.054-4.653l-.736-2.435a3.889,3.889,0,0,0-1.2-1.831l-.046-.13.6-.213-.006-.017a1.822,1.822,0,0,0-2.328-1.105l-2.229.794-1.21.431a3.164,3.164,0,0,0-1.919,4.042l1.292,3.629a1.646,1.646,0,0,0,1.1,1.031l.326,1.4a1.063,1.063,0,0,0-.925,1.14l.045.545a9.628,9.628,0,0,0-5.1,3.26.194.194,0,0,0-.011.051,2.913,2.913,0,0,0-.337.857s-.961,4.385-1.727,7.9a2.3,2.3,0,0,0-.082.51s0,.009,0,.013a2.293,2.293,0,0,0,1.441,2.251l4.221,2.553c-.062,2.51-.134,5.527-.163,7.074a.837.837,0,0,0,.128.458c-.4,3.058-.77,5.85-1.1,8.4l6.669.509c.628-2.868,1.144-5.232,1.433-6.554.007,1.649.018,3.991.029,6.665l6.483.5c.472-5.039.828-8.833.828-8.833l.019-.234.025-.271c.01-.113.018-.227.018-.343a3.711,3.711,0,0,0-.076-.746.7.7,0,0,0,.064-.3c-.036-1.675-.825-10.894-1.362-17.031.042,0,.086,0,.128-.01h0l10.254-1.371h.014a5.363,5.363,0,0,0,2.242-2.035h0c1.617-3.281,2.865-5.888,2.973-6.139a.527.527,0,0,0-.067-.484,1.275,1.275,0,0,0,.1-.546,2.063,2.063,0,0,0,.108-.2c.985-1.844,2.23-4.172,2.268-4.226C441.97,204.232,441.874,204.022,441.587,204.267Zm-31.3,20.289.068-.176.135.333Z" transform="translate(-351.87 -167.671)"/><path class="f" d="M695.486,438.066a9.243,9.243,0,0,0-9-5.878c-5.175,0-7.844,3.382-9.273,3.473s-2.468-1.589-4.611-1.344-2.663,1.889-4.287,2.385-2.728.094-5.586,0a8.3,8.3,0,0,0-4.614,1.362Z" transform="translate(-531.309 -332.752)"/><path class="k" d="M475.339,455l20.218.762,7.491-6.72-15.6-.479Z" transform="translate(-401.618 -344.375)"/><path class="f" d="M476.1,450.987l20.218.762,7.491-6.72-15.226-.634Z" transform="translate(-402.158 -341.414)"/><path class="k" d="M437.72,464.266l20.218.762,7.491-6.72-15.6-.479Z" transform="translate(-374.926 -350.946)"/><path class="f" d="M438.48,460.248l20.218.762,7.491-6.72-15.226-.634Z" transform="translate(-375.465 -347.986)"/></g><g transform="translate(258.328 118.715)"><ellipse class="f" cx="16.168" cy="3.875" rx="16.168" ry="3.875" transform="translate(0 70.507)"/><path class="l" d="M398.811,438.314v-1.32a.446.446,0,0,1,.446-.446l2.873-.012-.028-.613a.211.211,0,0,1,.322-.2l1.471.931a1.462,1.462,0,0,0,.9.242l1.49-.073a.606.606,0,0,1,.634.564l.064.931Z" transform="translate(-392.461 -364.114)"/><path class="m" d="M501.647,203.608a9.609,9.609,0,0,0,.628,1.21c-.275.458-.946,1.721-.7,1.261l1.889,1.07c.1-.3,1.033-1.824,1.064-1.928.985-1.844,2.23-4.172,2.268-4.226.063-.089-.034-.3-.321-.055s-1.1,1.2-1.1,1.2,1.08-1.8,1.181-1.963-.059-.368-.2-.317a1.156,1.156,0,0,1,.1-.216c.139-.158-.152-.41-.491-.058a15.967,15.967,0,0,1-1.575,1.775c-.17-.013.682-1.772.8-2.1s-.274-.387-.854.529a27.263,27.263,0,0,1-1.562,2.519c-.3.272-.5-.127-.58-.391s-.667-1.132-.956-.836.183.6.173.906A3.073,3.073,0,0,0,501.647,203.608Z" transform="translate(-465.08 -196.206)"/><ellipse class="f" cx="5.712" cy="1.369" rx="5.712" ry="1.369" transform="translate(32.911 69.653)"/><path class="m" d="M422.448,209.66a2.2,2.2,0,0,0-2.531,2.664h0l1.4,6.007,0,.02v0h0a2.2,2.2,0,1,0,4.283-1h0l-1.4-6.008,0-.02v0h0A2.2,2.2,0,0,0,422.448,209.66Z" transform="translate(-407.396 -203.712)"/><path class="m" d="M420.9,201.5l-.076.023a3.91,3.91,0,0,1-4.874-2.612l-.736-2.435a3.911,3.911,0,0,1,2.612-4.874l.076-.023a3.91,3.91,0,0,1,4.874,2.612l.736,2.435A3.911,3.911,0,0,1,420.9,201.5Z" transform="translate(-403.978 -190.787)"/><path class="l" d="M414.43,190.6l1.21-.431,2.229-.794a1.822,1.822,0,0,1,2.328,1.105l.006.017-.6.213.665,1.866a1.564,1.564,0,0,1-.665,1.864l-.028-.078a.863.863,0,0,0-1.1-.524l-.017.006a.864.864,0,0,0-.524,1.1l.586,1.644a1.649,1.649,0,0,1-1,2.107l-1.607.572a1.649,1.649,0,0,1-2.107-1l-1.292-3.629A3.164,3.164,0,0,1,414.43,190.6Z" transform="translate(-402.051 -189.267)"/><path class="b" d="M425.727,230.242l-6.457.529-.142-1.73a1.065,1.065,0,0,1,.975-1.149l3.418-.28a1.985,1.985,0,0,1,2.14,1.816Z" transform="translate(-406.875 -216.47)"/><path class="n" d="M440.469,406.031a1.511,1.511,0,0,1-.92-1.6l1.647-12.393a1.511,1.511,0,1,1,2.995.4l-1.647,12.392a1.512,1.512,0,0,1-2.074,1.2Z" transform="translate(-421.357 -332.217)"/><path class="l" d="M438.178,438.314v-1.32a.446.446,0,0,1,.446-.446l2.873-.012-.028-.613a.211.211,0,0,1,.322-.2l1.471.931a1.463,1.463,0,0,0,.9.242l1.49-.073a.606.606,0,0,1,.634.564l.064.931Z" transform="translate(-420.394 -364.114)"/><path class="c" d="M405.918,276.751h0l-7.943-6.115h0a2.293,2.293,0,1,0-2.585,3.778h0l8.578,5.189h0a1.73,1.73,0,0,0,1.951-2.851Z" transform="translate(-389.247 -246.664)"/><path class="c" d="M401.681,244.82h0a2.928,2.928,0,1,0-5.591-1.68s-.989,4.516-1.761,8.052h0a2.292,2.292,0,0,0,4.377,1.315h0l.008-.02.006-.016Z" transform="translate(-389.243 -225.856)"/><path class="n" d="M400.574,404.559a1.511,1.511,0,0,1-.92-1.6l1.647-12.392a1.511,1.511,0,0,1,2.995.4l-1.647,12.393a1.512,1.512,0,0,1-2.075,1.2Z" transform="translate(-393.049 -331.173)"/><path class="o" d="M441.937,345.022c.143-1.632,3.134-33.547,3.134-33.547l.019-.234.024-.271c.01-.113.018-.227.018-.343a3.706,3.706,0,0,0-7.413,0s.15,33.214.133,34.471S441.794,346.654,441.937,345.022Z" transform="translate(-420.069 -272.748)"/><path class="o" d="M403.045,345.408c.5-2,7.359-33.413,7.359-33.413l.124-.574a3.7,3.7,0,0,0-3.619-4.5,3.708,3.708,0,0,0-3.674,3.242l-.043.315c-3.615,27.354-4.239,33.875-4.338,35.042C398.746,346.8,402.7,346.789,403.045,345.408Z" transform="translate(-392.49 -272.748)"/><path class="b" d="M490.612,224.994a2,2,0,0,1-1.169-3.133l.205-.279,3.577-4.879a1.438,1.438,0,0,1,2.575,1.151,1.476,1.476,0,0,1-.113.317l-.114.232-2.582,5.238-.143.286A1.991,1.991,0,0,1,490.612,224.994Z" transform="translate(-456.494 -208.304)"/><path class="c" d="M463.105,239.2a2.293,2.293,0,0,0-2.317-2.234h0l-10.359.107v0h-.045a2.93,2.93,0,0,0,.15,5.857,3,3,0,0,0,.313-.025h0l10.254-1.371h.014A2.294,2.294,0,0,0,463.105,239.2Z" transform="translate(-427.03 -223.112)"/><path class="c" d="M494.371,220.423c.378-.878-2.516-2.3-3.085-1.408h0l0,.005-.01.013-3.782,5.158h0a2.293,2.293,0,1,0,3.905,2.369h0C493.015,223.281,494.263,220.674,494.371,220.423Z" transform="translate(-455.069 -210.175)"/><path class="c" d="M401.677,236.116c.27-.488,2.77-3.369,8.124-3.836s7.876,1.685,7.876,1.685,1.8,20.059,1.857,22.61-14.574,3.683-14.519.746.267-11.175.267-11.175S401.36,236.689,401.677,236.116Z" transform="translate(-394.481 -219.74)"/></g><g transform="translate(209.773 152.879)"><ellipse class="p" cx="8.843" cy="2.889" rx="8.843" ry="2.889" transform="translate(13.037 47.571)"/><ellipse class="f" cx="8.843" cy="2.889" rx="8.843" ry="2.889" transform="translate(12.479 46.919)"/><g transform="translate(13.83 47.263)"><path class="g" d="M264.881,474.711c-4.2,0-7.492-1.118-7.492-2.546s3.291-2.546,7.492-2.546,7.492,1.118,7.492,2.546S269.082,474.711,264.881,474.711Zm0-4.8c-4.308,0-7.2,1.166-7.2,2.255s2.893,2.255,7.2,2.255,7.2-1.166,7.2-2.255S269.188,469.909,264.881,469.909Z" transform="translate(-257.389 -469.619)"/></g><ellipse class="k" cx="4.509" cy="1.473" rx="4.509" ry="1.473" transform="translate(16.812 48.335)"/><path class="f" d="M264.03,440.539h-.165a8.05,8.05,0,0,1-8.179-7.914v-8.841h16.524v8.841A8.05,8.05,0,0,1,264.03,440.539Z" transform="translate(-242.35 -389.834)"/><ellipse class="e" cx="8.262" cy="1.974" rx="8.262" ry="1.974" transform="translate(13.335 31.976)"/><path class="c" d="M272.6,419.609c0,.456-1.237,1.028-3.421,1.38l-.218.035c-.424.064-.883.119-1.371.163-.076.009-.154.017-.232.023-.671.055-1.4.093-2.184.1-.073,0-.145,0-.221,0-.113,0-.227,0-.343,0a30.714,30.714,0,0,1-3.52-.189c-.078-.006-.154-.017-.229-.026-2.69-.331-4.241-.985-4.241-1.5,0-.465,1.284-1.049,3.541-1.4l.218-.032a29.688,29.688,0,0,1,4.232-.279c.317,0,.627,0,.929.012l.215.009a27.9,27.9,0,0,1,2.814.221.731.731,0,0,1,.078.012c.052.006.1.015.154.02a.531.531,0,0,1,.067.012C271.245,418.528,272.6,419.132,272.6,419.609Z" transform="translate(-243.014 -385.657)"/><path class="d" d="M297.362,385.194c.509.6,5.036-.057,7.5-1.649s2.319-2.748,3.322-3.827,2.582-1.39,3.493-2.825c1.319-2.08,1.158-6.044.128-6.3-.76-.188-1.411,2.189-3.706,2.664s-5.01.137-7.758,2.594C297.878,378.056,296.38,384.04,297.362,385.194Z" transform="translate(-271.706 -352.086)"/><g transform="translate(24.345 18.401)"><path class="e" d="M293.823,387.375c.116-.381.235-.749.36-1.092a15.662,15.662,0,0,1,.72-1.667c.041-.087.084-.171.131-.256.017-.038.038-.076.058-.11,3.006-5.681,8.7-8.414,11.275-9.654.319-.154.587-.282.784-.386a4.156,4.156,0,0,0,2.3-3.863.11.11,0,0,0-.119-.1.108.108,0,0,0-.1.119,3.941,3.941,0,0,1-2.187,3.651c-.2.1-.459.229-.778.383-2.553,1.226-8.13,3.9-11.208,9.442q-.1.174-.192.357c-.023.041-.046.084-.07.128a16.723,16.723,0,0,0-.822,1.882c-.137.372-.267.773-.389,1.188Z" transform="translate(-293.591 -370.247)"/></g><g transform="translate(38.534 21.167)"><path class="e" d="M343.025,380.486a4.355,4.355,0,0,1-.486-.025.109.109,0,1,1,.026-.216,3.436,3.436,0,0,0,2.185-.446.109.109,0,0,1,.139.167A3.032,3.032,0,0,1,343.025,380.486Z" transform="translate(-342.443 -379.773)"/></g><g transform="translate(35.414 21.154)"><path class="e" d="M331.978,382.014a.108.108,0,0,1-.1-.057,2.572,2.572,0,0,1,.212-2.175.109.109,0,0,1,.19.107,2.4,2.4,0,0,0-.211,1.963.109.109,0,0,1-.1.161Z" transform="translate(-331.703 -379.727)"/></g><g transform="translate(36.658 22.69)"><path class="e" d="M338.949,386.1a6.516,6.516,0,0,1-2.912-.886.109.109,0,1,1,.112-.186c.021.012,2.127,1.259,3.686.715a.109.109,0,1,1,.072.205A2.891,2.891,0,0,1,338.949,386.1Z" transform="translate(-335.984 -385.014)"/></g><g transform="translate(30.566 21.892)"><path class="e" d="M315.411,386.781a.109.109,0,0,1-.1-.057c-.956-1.767.634-4.3.7-4.405a.109.109,0,0,1,.184.117c-.016.025-1.589,2.531-.694,4.185a.109.109,0,0,1-.044.148A.111.111,0,0,1,315.411,386.781Z" transform="translate(-315.01 -382.268)"/></g><g transform="translate(32.911 24.741)"><path class="e" d="M327.644,393.913a7.23,7.23,0,0,1-4.525-1.647.109.109,0,0,1,.148-.16,6.968,6.968,0,0,0,5.019,1.558.109.109,0,0,1,.021.217C328.081,393.9,327.859,393.913,327.644,393.913Z" transform="translate(-323.084 -392.078)"/></g><g transform="translate(28.979 27.83)"><path class="e" d="M313.87,404.331a6.229,6.229,0,0,1-4.295-1.436.109.109,0,1,1,.156-.152c.021.021,2.106,2.091,6.345,1.1a.109.109,0,1,1,.049.212A9.925,9.925,0,0,1,313.87,404.331Z" transform="translate(-309.545 -402.711)"/></g><g transform="translate(27.053 24.445)"><path class="e" d="M303.694,396.01a.108.108,0,0,1-.082-.038c-1.572-1.816,0-4.735.065-4.859a.109.109,0,0,1,.191.1c-.016.029-1.564,2.91-.092,4.612a.109.109,0,0,1-.082.18Z" transform="translate(-302.915 -391.057)"/></g><g transform="translate(26.738 30.933)"><path class="e" d="M305.935,414.5a9.317,9.317,0,0,1-4.047-.9.109.109,0,1,1,.1-.191,9.21,9.21,0,0,0,6.229.576.109.109,0,0,1,.057.211A9.047,9.047,0,0,1,305.935,414.5Z" transform="translate(-301.831 -413.396)"/></g><path class="d" d="M225.017,366.069s.193-5.047-2.2-7.4c-1.961-1.926-4.777-2.745-6.119-3.28-2.061-.821-5.839-2.946-6.352-4.63-.209-.687-1.29,2.14.209,6.141C214.172,366.558,224.034,367.008,225.017,366.069Z" transform="translate(-209.773 -337.947)"/><g transform="translate(0.329 12.724)"><path class="e" d="M228.653,373.452c-.078-.006-.154-.017-.229-.026-.081-.389-.171-.793-.27-1.2-.134-.555-.267-1.118-.43-1.693-.871-3.111-2.518-6.532-8.676-10.122a18.1,18.1,0,0,1-8.138-9.567.109.109,0,0,1,.209-.061,17.87,17.87,0,0,0,8.04,9.44c6.25,3.642,7.9,7.119,8.783,10.279.16.569.293,1.127.424,1.676C228.47,372.61,228.566,373.037,228.653,373.452Z" transform="translate(-210.905 -350.702)"/></g><g transform="translate(4.668 16.46)"><path class="e" d="M226.3,367.037a.109.109,0,0,1-.1-.06,4.711,4.711,0,0,1-.071-3.339.109.109,0,1,1,.2.075,4.575,4.575,0,0,0,.061,3.166.109.109,0,0,1-.1.158Z" transform="translate(-225.846 -363.567)"/></g><g transform="translate(2.604 15.063)"><path class="e" d="M219.1,361.265a.109.109,0,0,1-.1-.068,5.247,5.247,0,0,1-.212-2.349.107.107,0,0,1,.123-.092.109.109,0,0,1,.092.123,5.129,5.129,0,0,0,.2,2.236.109.109,0,0,1-.06.142A.107.107,0,0,1,219.1,361.265Z" transform="translate(-218.738 -358.754)"/></g><g transform="translate(7.83 17.817)"><path class="e" d="M237.428,372.864a.109.109,0,0,1-.093-.053c-1.108-1.832-.361-4.387-.328-4.495a.109.109,0,0,1,.209.062c-.008.026-.751,2.572.306,4.32a.109.109,0,0,1-.093.166Z" transform="translate(-236.73 -368.239)"/></g><g transform="translate(10.883 19.668)"><path class="e" d="M247.732,379.25a.109.109,0,0,1-.1-.066,4.453,4.453,0,0,1,.546-4.537.108.108,0,0,1,.154-.01.11.11,0,0,1,.01.154,4.232,4.232,0,0,0-.51,4.307.109.109,0,0,1-.057.143A.107.107,0,0,1,247.732,379.25Z" transform="translate(-247.243 -374.61)"/></g><g transform="translate(13.695 23.637)"><path class="e" d="M257.1,391.142a.109.109,0,0,1-.107-.087,3.006,3.006,0,0,1,.863-2.752.109.109,0,0,1,.145.162,2.837,2.837,0,0,0-.795,2.545.109.109,0,0,1-.084.129Z" transform="translate(-256.924 -388.276)"/></g><g transform="translate(0.302 17.555)"><path class="e" d="M214.229,368.272a.107.107,0,0,1-.073-.028,3.789,3.789,0,0,0-3.2-.546.109.109,0,1,1-.06-.209,3.945,3.945,0,0,1,3.409.593.109.109,0,0,1-.073.19Z" transform="translate(-210.814 -367.336)"/></g><g transform="translate(1.775 20.472)"><path class="e" d="M215.994,378.331a.109.109,0,0,1-.053-.2,6.6,6.6,0,0,1,4.376-.6.108.108,0,0,1,.08.131.107.107,0,0,1-.131.08,6.506,6.506,0,0,0-4.218.575A.11.11,0,0,1,215.994,378.331Z" transform="translate(-215.885 -377.377)"/></g><g transform="translate(4.045 22.714)"><path class="e" d="M223.809,386.815a.109.109,0,0,1-.068-.194,7.6,7.6,0,0,1,5.4-1.446.109.109,0,0,1,.09.125.111.111,0,0,1-.125.09,7.359,7.359,0,0,0-5.224,1.4A.107.107,0,0,1,223.809,386.815Z" transform="translate(-223.7 -385.098)"/></g><g transform="translate(8.384 25.374)"><path class="e" d="M238.746,396.289a.109.109,0,0,1-.079-.184c.087-.092,2.159-2.252,4.612-1.784a.109.109,0,1,1-.041.214c-2.338-.442-4.393,1.7-4.414,1.721A.107.107,0,0,1,238.746,396.289Z" transform="translate(-238.637 -394.255)"/></g><path class="d" d="M299.637,341.809s-1.426-4.858.323-7.692c1.433-2.322,3.967-3.763,5.14-4.591,1.8-1.271,4.95-4.2,5.034-5.957.035-.716,1.778,1.783,1.3,6.014C310.292,339.792,300.822,342.5,299.637,341.809Z" transform="translate(-273.147 -318.639)"/><g transform="translate(25.498 4.808)"><path class="e" d="M298.23,353.97c-.113-.77-.227-1.719-.311-2.806l-.009-.122c-.012-.134-.02-.267-.029-.407v0c-.049-.729-.081-1.513-.093-2.341-.046-3.639-.1-7.764,5.945-13.57a17.725,17.725,0,0,0,5.559-11.165.105.105,0,0,0-.1-.11.1.1,0,0,0-.113.1,17.505,17.505,0,0,1-5.492,11.014c-6.111,5.87-6.059,10.047-6.012,13.729.012.961.055,1.868.119,2.7,0,0,0,0,0,0,0,.046.006.09.009.137.006.093.015.186.023.276v0c.081,1,.189,1.873.29,2.594Z" transform="translate(-297.563 -323.446)"/></g><g transform="translate(33.445 9.497)"><path class="e" d="M325.766,342.986l-.024,0a.109.109,0,0,1-.082-.13,4.605,4.605,0,0,0-.718-3.091.109.109,0,0,1,.18-.122,4.739,4.739,0,0,1,.75,3.26A.109.109,0,0,1,325.766,342.986Z" transform="translate(-324.923 -339.593)"/></g><g transform="translate(35.331 7.613)"><path class="e" d="M331.889,335.6h-.015a.109.109,0,0,1-.093-.123,5.126,5.126,0,0,0-.356-2.217.109.109,0,1,1,.2-.083A5.25,5.25,0,0,1,332,335.5.109.109,0,0,1,331.889,335.6Z" transform="translate(-331.417 -333.106)"/></g><g transform="translate(30.712 11.541)"><path class="e" d="M316.4,351.2a.1.1,0,0,1-.032,0,.109.109,0,0,1-.072-.136c.6-1.941-.749-4.243-.762-4.266a.109.109,0,1,1,.187-.111c.058.1,1.41,2.408.784,4.442A.109.109,0,0,1,316.4,351.2Z" transform="translate(-315.514 -346.629)"/></g><g transform="translate(27.582 14.186)"><path class="e" d="M306.443,360.128h-.017a.109.109,0,0,1-.09-.125,4.275,4.275,0,0,0-1.553-4.068.109.109,0,0,1,.125-.178,4.507,4.507,0,0,1,1.643,4.281A.109.109,0,0,1,306.443,360.128Z" transform="translate(-304.736 -355.735)"/></g><g transform="translate(25.841 18.684)"><path class="e" d="M300.305,373.822a.109.109,0,0,1-.109-.1,2.89,2.89,0,0,0-1.4-2.29.109.109,0,1,1,.1-.192,3.056,3.056,0,0,1,1.512,2.474.109.109,0,0,1-.1.113Z" transform="translate(-298.741 -371.222)"/></g><g transform="translate(35.188 9.638)"><path class="e" d="M331.033,341.608a.109.109,0,0,1-.09-.17,3.91,3.91,0,0,1,3.167-1.36.109.109,0,0,1,.1.114.113.113,0,0,1-.114.1,3.748,3.748,0,0,0-2.977,1.265A.11.11,0,0,1,331.033,341.608Z" transform="translate(-330.925 -340.077)"/></g><g transform="translate(33.371 13.188)"><path class="e" d="M324.778,353.13a.11.11,0,0,1-.1-.06.109.109,0,0,1,.048-.146,6.619,6.619,0,0,1,4.4-.426.109.109,0,0,1,.075.134.111.111,0,0,1-.134.076,6.519,6.519,0,0,0-4.239.41A.108.108,0,0,1,324.778,353.13Z" transform="translate(-324.669 -352.301)"/></g><g transform="translate(30.715 16.197)"><path class="e" d="M321.138,363.5a.112.112,0,0,1-.046-.01,7.432,7.432,0,0,0-5.419-.161.109.109,0,1,1-.084-.2,7.663,7.663,0,0,1,5.6.165.109.109,0,0,1-.046.208Z" transform="translate(-315.522 -362.659)"/></g><g transform="translate(27.924 19.72)"><path class="e" d="M310.835,376a.108.108,0,0,1-.059-.018c-.026-.016-2.552-1.624-4.71-.658a.109.109,0,1,1-.089-.2c2.268-1.016,4.811.6,4.918.674a.109.109,0,0,1-.06.2Z" transform="translate(-305.912 -374.791)"/></g><path class="d" d="M257.7,328.941s2.848,5.159,5.15,7.089c3.044,2.551,6.289,8.305,4.9,14.406-.738,3.239-2.422,3.954-2.422,3.954s-1.558-4.568-3.133-6.234-3.3-3.137-3.8-7.224S257.7,328.941,257.7,328.941Z" transform="translate(-243.776 -322.538)"/><g transform="translate(13.56 1.85)"><path class="e" d="M264.019,347.166a33.44,33.44,0,0,0,.581-3.4,21.653,21.653,0,0,0-.18-6.817c-.691-3.343-2.4-5.876-4.049-8.324a31.662,31.662,0,0,1-2.4-3.956c-1.786-3.724-1.2-11.217-1.194-11.293a.108.108,0,0,0-.215-.017c-.009.076-.6,7.627,1.211,11.4a31.84,31.84,0,0,0,2.422,3.985c1.638,2.431,3.331,4.943,4.014,8.249a21.472,21.472,0,0,1,.18,6.762,33.664,33.664,0,0,1-.587,3.407Z" transform="translate(-256.459 -313.264)"/></g><g transform="translate(16.084 11.092)"><path class="e" d="M265.591,350.1a.109.109,0,0,1-.1-.068,6.977,6.977,0,0,1,.294-4.881.109.109,0,0,1,.2.09,6.889,6.889,0,0,0-.291,4.709.109.109,0,0,1-.06.142A.115.115,0,0,1,265.591,350.1Z" transform="translate(-265.148 -345.083)"/></g><g transform="translate(18.096 13.383)"><path class="e" d="M272.454,358.62a.109.109,0,0,1-.1-.074,8.2,8.2,0,0,1,.6-5.513.109.109,0,1,1,.2.1c-.014.029-1.41,2.889-.59,5.347a.109.109,0,0,1-.069.138A.1.1,0,0,1,272.454,358.62Z" transform="translate(-272.076 -352.973)"/></g><g transform="translate(20.019 16.793)"><path class="e" d="M279,370.279a.108.108,0,0,1-.1-.072c-.913-2.552,1.528-5.341,1.633-5.459a.109.109,0,0,1,.163.145c-.025.028-2.46,2.81-1.59,5.241a.109.109,0,0,1-.066.139A.115.115,0,0,1,279,370.279Z" transform="translate(-278.697 -364.711)"/></g><g transform="translate(21.278 21.54)"><path class="e" d="M283.167,385.187a.109.109,0,0,1-.108-.1c-.34-2.68,2.53-4.013,2.559-4.027a.109.109,0,0,1,.09.2c-.027.013-2.752,1.281-2.433,3.8a.109.109,0,0,1-.094.122Z" transform="translate(-283.031 -381.055)"/></g><g transform="translate(21.705 26.386)"><path class="e" d="M284.613,400.634h-.006a.108.108,0,0,1-.1-.114,3.258,3.258,0,0,1,2.479-2.777.109.109,0,0,1,.05.212,2.985,2.985,0,0,0-2.311,2.576A.109.109,0,0,1,284.613,400.634Z" transform="translate(-284.504 -397.739)"/></g><g transform="translate(14.057 18.058)"><path class="e" d="M262.906,370.546a.109.109,0,0,1-.089-.046c-1.288-1.827-4.48-1.038-4.512-1.03a.109.109,0,0,1-.054-.211c.137-.035,3.37-.832,4.744,1.116a.109.109,0,0,1-.089.172Z" transform="translate(-258.169 -369.068)"/></g><g transform="translate(15.437 21.7)"><path class="e" d="M268.141,383.046a.109.109,0,0,1-.1-.056c-1.182-2.091-4.938-.712-4.976-.7a.109.109,0,0,1-.077-.2c.162-.06,3.97-1.457,5.242.794a.109.109,0,0,1-.095.163Z" transform="translate(-262.923 -381.606)"/></g><g transform="translate(18.456 25.575)"><path class="e" d="M276.492,396.375a.108.108,0,0,1-.1-.067c-.679-1.618-2.916-1.048-2.939-1.043a.109.109,0,1,1-.056-.21c.025-.007,2.442-.624,3.2,1.169a.11.11,0,0,1-.1.151Z" transform="translate(-273.316 -394.947)"/></g><path class="c" d="M253.275,306.894s2.262,5.012,1.847,9.569-.738,11.313.7,13.772a8.266,8.266,0,0,1-2.267-5.706c-.024-3.625.121-5.386-.82-6.724S250.407,309.531,253.275,306.894Z" transform="translate(-239.423 -306.894)"/></g><g transform="translate(309.368 147.239)"><path class="q" d="M653.382,334.653c-.113,0-2.254-1.874-2.254-1.874l.59-2.186s1.837.714,1.9,1.472S654.177,334.664,653.382,334.653Z" transform="translate(-622.532 -318.07)"/><g transform="translate(15.794 8.287)"><path class="c" d="M621.35,324.848H610.212a.9.9,0,0,1-.8-.611l-2.332-7.618a.436.436,0,0,1,.424-.611h11.138a.9.9,0,0,1,.8.611l2.332,7.618A.436.436,0,0,1,621.35,324.848Z" transform="translate(-607.054 -316.009)"/><path class="e" d="M610.9,325.29a.45.45,0,0,1-.4-.306l-2.332-7.618a.218.218,0,0,1,.212-.305h11.138a.449.449,0,0,1,.4.305l2.332,7.618a.218.218,0,0,1-.212.306Z" transform="translate(-607.835 -316.755)"/><path class="e" d="M635.867,345.8h-1.246a.111.111,0,0,1-.1-.076h0a.054.054,0,0,1,.052-.076h1.246a.111.111,0,0,1,.1.076h0A.054.054,0,0,1,635.867,345.8Z" transform="translate(-626.541 -337.036)"/></g><g transform="translate(18.18 11.44)"><path class="g" d="M616.931,329.4a1.8,1.8,0,0,1-1.6-1.225,1.048,1.048,0,0,1,.121-.94.957.957,0,0,1,.8-.37,1.805,1.805,0,0,1,1.6,1.224,1.051,1.051,0,0,1-.121.94A.958.958,0,0,1,616.931,329.4Zm-.687-2.243a.674.674,0,0,0-.563.252.752.752,0,0,0-.076.682,1.5,1.5,0,0,0,1.326,1.019.675.675,0,0,0,.563-.252.755.755,0,0,0,.076-.682A1.5,1.5,0,0,0,616.244,327.154Z" transform="translate(-615.27 -326.864)"/></g><g transform="translate(18.035 11.295)"><path class="c" d="M614.833,327.861a1.192,1.192,0,0,1,.143-1.069,1.1,1.1,0,0,1,.913-.428v.581a.534.534,0,0,0-.446.193.615.615,0,0,0-.054.553Z" transform="translate(-614.77 -326.364)"/></g><g transform="translate(21.85 11.44)"><path class="g" d="M629.567,329.4a1.8,1.8,0,0,1-1.6-1.225,1.05,1.05,0,0,1,.121-.94.958.958,0,0,1,.8-.369,1.8,1.8,0,0,1,1.6,1.224,1.047,1.047,0,0,1-.121.94A.957.957,0,0,1,629.567,329.4Zm-.687-2.243a.676.676,0,0,0-.563.252.753.753,0,0,0-.076.682,1.5,1.5,0,0,0,1.326,1.019.675.675,0,0,0,.564-.252.753.753,0,0,0,.076-.682A1.5,1.5,0,0,0,628.88,327.154Z" transform="translate(-627.905 -326.864)"/></g><g transform="translate(21.705 11.295)"><path class="c" d="M627.469,327.861a1.193,1.193,0,0,1,.143-1.069,1.1,1.1,0,0,1,.914-.428v.581a.534.534,0,0,0-.446.193.613.613,0,0,0-.055.553Z" transform="translate(-627.405 -326.364)"/></g><g transform="translate(25.52 11.44)"><path class="g" d="M642.2,329.4a1.8,1.8,0,0,1-1.6-1.225,1.047,1.047,0,0,1,.121-.94.957.957,0,0,1,.8-.37,1.805,1.805,0,0,1,1.6,1.224,1.05,1.05,0,0,1-.121.94A.958.958,0,0,1,642.2,329.4Zm-.687-2.243a.675.675,0,0,0-.563.252.752.752,0,0,0-.076.682,1.494,1.494,0,0,0,1.326,1.019.674.674,0,0,0,.563-.252.754.754,0,0,0,.076-.682A1.5,1.5,0,0,0,641.515,327.154Z" transform="translate(-640.54 -326.864)"/></g><g transform="translate(25.375 11.295)"><path class="c" d="M640.1,327.861a1.193,1.193,0,0,1,.142-1.069,1.1,1.1,0,0,1,.914-.428v.581a.534.534,0,0,0-.446.193.614.614,0,0,0-.054.553Z" transform="translate(-640.041 -326.364)"/></g><path class="r" d="M618.975,330.892h-1.012l-.142-.464h1.012Z" transform="translate(-598.9 -317.953)"/><path class="r" d="M631.611,330.892H630.6l-.142-.464h1.012Z" transform="translate(-607.866 -317.953)"/><path class="r" d="M644.246,330.892h-1.012l-.142-.464H644.1Z" transform="translate(-616.831 -317.953)"/><path class="m" d="M656.546,333.99c-.685-.409-1.341-.819-1.906-1.217l-.657-.6A26.435,26.435,0,0,0,653,329.38a12.61,12.61,0,0,0-1.945-.9l.271.9c-.306-.132-.731-.375-.758-.388-.079-.04-.525.34-.021.7a11.536,11.536,0,0,0,1.228.728,23.3,23.3,0,0,0,.866,2.852,36.532,36.532,0,0,0,3.9,4.3Z" transform="translate(-621.956 -316.569)"/><ellipse class="f" cx="15.596" cy="3.738" rx="15.596" ry="3.738" transform="translate(0 52.68)"/><ellipse class="f" cx="9.294" cy="2.227" rx="9.294" ry="2.227" transform="translate(30.725 56.525)"/><path class="m" d="M613.729,419.91a1.531,1.531,0,0,1-1.965-.773,1.4,1.4,0,0,1-.078-.24l-.121-.514h0l-3.495-14.957-.147-.641a2.212,2.212,0,0,1,1.385-2.555,2.388,2.388,0,0,1,3.066,1.207,2.172,2.172,0,0,1,.161.589l.078.6h0l1.956,15.219.071.563A1.431,1.431,0,0,1,613.729,419.91Z" transform="translate(-591.836 -367.358)"/><path class="b" d="M615.808,458.622l-.145-.91-2.01.568-.185.732-.572-.519L611.1,459l-.037,3.828a.852.852,0,0,1-.4.708l-1.627,1.036a.444.444,0,0,0-.192.507l0,.007a.477.477,0,0,0,.522.321l3.428-.455a.907.907,0,0,0,.629-.38l1.383-2.01.663,1.788.97-.274.39-3.915Z" transform="translate(-592.516 -408.267)"/><path class="s" d="M629.427,470.632l.663,1.788.97-.274.3-3.061Z" transform="translate(-607.135 -416.338)"/><path class="l" d="M612.6,408.514l-1.506-12.675-.036-.265-.049-.379a2.631,2.631,0,0,0-.194-.711,2.807,2.807,0,0,0-2.593-1.654,2.881,2.881,0,0,0-1.071.205,2.662,2.662,0,0,0-1.662,3.077l.157.685s2.4,10.377,2.9,12.284S612.735,409.654,612.6,408.514Z" transform="translate(-590.1 -362.231)"/><path class="m" d="M674.039,311.23a2.265,2.265,0,0,1,2.9,1.176,2.038,2.038,0,0,1,.162.846h0c-.072,2.988-.072,3-.144,5.97v.024h0a2.133,2.133,0,0,1-1.393,1.925,2.265,2.265,0,0,1-2.9-1.176,2.038,2.038,0,0,1-.162-.847h0l.143-5.97v-.024h0A2.134,2.134,0,0,1,674.039,311.23Z" transform="translate(-637.698 -304.22)"/><path class="m" d="M667.347,299.872l.074.017a3.8,3.8,0,0,0,4.566-2.681l.572-2.29a3.616,3.616,0,0,0-2.806-4.362l-.075-.017a3.8,3.8,0,0,0-4.566,2.681l-.572,2.29A3.617,3.617,0,0,0,667.347,299.872Z" transform="translate(-631.975 -289.578)"/><path class="t" d="M670.471,328.1l5.776-.247-.1-1.421a.535.535,0,0,0-.631-.475l-3.941.7a1.319,1.319,0,0,0-1.109,1.429Z" transform="translate(-636.251 -314.777)"/><path class="m" d="M581.416,425.118a1.472,1.472,0,0,1-1.5-1.436,1.373,1.373,0,0,1,.025-.25l.1-.519h0l2.793-15.091.122-.646a2.355,2.355,0,0,1,4.652.39,2.155,2.155,0,0,1-.089.6l-.17.584h0l-4.319,14.768-.161.546A1.5,1.5,0,0,1,581.416,425.118Z" transform="translate(-572.002 -371.097)"/><path class="b" d="M570.33,464.759l.107-.8-3.838-.454L564.68,467a1.381,1.381,0,0,1-.891.528l-1.919.359a.463.463,0,0,0-.382.4v.007a.455.455,0,0,0,.352.488l3.348.839a.937.937,0,0,0,.733-.12l2.086-1.347-.107,1.894,1.005.1,1.935-3.471Z" transform="translate(-558.926 -412.378)"/><path class="u" d="M583.678,477.764l-.108,1.894,1.005.1,1.513-2.714Z" transform="translate(-574.597 -421.987)"/><path class="l" d="M612.52,390.261v-.089a4.114,4.114,0,0,0-4.507-4.1L586.89,388.1l-.052.009c-.075.009-.148.019-.221.034l-.051.011c-.068.014-.136.03-.2.05l-.058.018c-.062.019-.123.039-.184.063l-.068.027c-.053.022-.107.045-.163.073l-.078.04c-.046.023-.091.048-.136.075l-.09.056c-.037.024-.075.049-.111.075s-.068.049-.1.074-.059.047-.089.072-.073.063-.107.094l-.065.064c-.039.038-.077.078-.112.117l-.043.051c-.04.047-.079.1-.117.145l-.024.034c-.04.056-.079.113-.124.187a2.633,2.633,0,0,0-.336.882l-.06.317c-.367,1.986-.815,4.428-1.258,6.84-.432,2.351-1.069,6-1.31,7.314s3.651,2.081,4,1.037,3.633-12.2,3.633-12.2l18.892.711A4.114,4.114,0,0,0,612.52,390.261Z" transform="translate(-573.284 -357.424)"/><path class="o" d="M658.31,352.3c-.787,1.986-12.941-3.263-11.855-4.565,1.451-1.739,2.519-2.981,2.519-2.981s-.759-10.7-.12-11.458c1-1.18,4.2-1.669,7.592-2.023,2.828-.3,3.932.841,4.22,1.492.7,1.582-2.83,14.385-2.83,14.385S658.75,351.19,658.31,352.3Z" transform="translate(-619.169 -318.519)"/><path class="m" d="M618.905,341.327c-.866-.645-4.622-3.725-6.021-5.017-.42-.475-.678-.8-.69-.816-.053-.073.058-.829.017-1.031s-.062-1.034-.091-1.131-.824-1.164-.913-1.266-.448-.1-.344.3.369.861.225.874-.62-.4-.669-.468-.048-1.73-.052-1.886-.413-.47-.5-.149-.264,1.848-.264,1.848-.545,1-.466,1.2l.054.132a.717.717,0,0,0-.13.28,1.065,1.065,0,0,0,.121.332,3.709,3.709,0,0,0-.007.451,14.519,14.519,0,0,0,1.66,2.025c.013.011,5.642,9.644,8.3,7.916C620.641,343.934,619.874,342.048,618.905,341.327Z" transform="translate(-592.686 -318.07)"/><path class="t" d="M623.88,355.485s-.2-.128-.837-.645-2.61,1.527-2.035,2.278c.433.565,1.023,1.283,1.023,1.283Z" transform="translate(-601.088 -335.216)"/><path class="o" d="M636.756,337.7a2.332,2.332,0,0,0-2.383-2.277,2.4,2.4,0,0,0-2.111,1.223h0l-3.907,7.141c-.839-.637-2.2-1.685-2.534-1.929-.772-.564-2.938,1.8-2.287,2.631.42.539,2.008,2.394,2.613,2.959a6.353,6.353,0,0,0,1.644,1.173,1.934,1.934,0,0,0,.9.218h.022a1.894,1.894,0,0,0,1.555-.822h0l6.114-9.084h0A2.191,2.191,0,0,0,636.756,337.7Z" transform="translate(-602.867 -321.496)"/><path class="v" d="M637.207,348.458H625.769a1.338,1.338,0,0,0-1.276.937l-5.569,17.751h-9.4a.84.84,0,0,0-.84.84V368a.84.84,0,0,0,.84.84h23.107l5.85-18.647A1.338,1.338,0,0,0,637.207,348.458Z" transform="translate(-592.418 -330.746)"/><rect class="w" width="2.074" height="14.358" transform="translate(30.847 38.097)"/><rect class="x" width="3.099" height="2.281" transform="translate(30.35 38.097)"/><rect class="v" width="2.352" height="7.707" transform="translate(30.724 45.738)"/><g transform="translate(21.784 54.322)"><path class="o" d="M627.678,480.7a1.29,1.29,0,1,0,1.29-1.29A1.29,1.29,0,0,0,627.678,480.7Z" transform="translate(-627.678 -477.989)"/><path class="g" d="M629.8,482.21a.674.674,0,1,0,.674-.674A.674.674,0,0,0,629.8,482.21Z" transform="translate(-629.184 -479.494)"/><rect class="o" width="0.457" height="1.661" transform="translate(0.597)"/></g><g transform="translate(39.403 54.322)"><path class="o" d="M690.92,480.7a1.29,1.29,0,1,1-1.29-1.29A1.29,1.29,0,0,1,690.92,480.7Z" transform="translate(-688.34 -477.989)"/><path class="g" d="M691.809,482.21a.674.674,0,1,1-.674-.674A.674.674,0,0,1,691.809,482.21Z" transform="translate(-689.845 -479.494)"/><rect class="o" width="0.457" height="1.661" transform="translate(1.526)"/></g><g transform="translate(30.2 53.445)"><circle class="o" cx="1.29" cy="1.29" r="1.29" transform="translate(0 1.426)"/><path class="g" d="M660.121,479.191a.674.674,0,1,1-.674-.674A.674.674,0,0,1,660.121,479.191Z" transform="translate(-658.157 -476.475)"/><rect class="o" width="0.457" height="1.661" transform="translate(1.526)"/></g><path class="v" d="M629.733,469.506l8.327-1.868v-1.587l-8.327,2.353Z" transform="translate(-607.352 -414.184)"/><path class="v" d="M674.882,469.506l-8.327-1.868v-1.587l8.327,2.353Z" transform="translate(-633.48 -414.184)"/><path class="x" d="M646.283,370.282l.1-.3h14.243l-.1.3Zm1.563-4.982-.1.3h14.243l.1-.3Zm-.734,2.339-.1.3H661.26l.1-.3Zm2.935-9.356-.1.3h14.243l.1-.3Zm.734-2.339-.1.3h14.243l.1-.3Zm-1.468,4.678-.1.3h14.243l.1-.3Zm-.734,2.339-.095.3h14.243l.1-.3Z" transform="translate(-619.095 -336.058)"/><path class="b" d="M676.259,293.3l-.049,0c.032-.288.06-.565.084-.825.226-2.5-.977-3.741-2.591-4.189l-.367-.1-.07-.019-1.35-.375a2.5,2.5,0,0,0-.532-.218,2.468,2.468,0,0,0-3.021,1.557l1.588.441a2.732,2.732,0,0,0,.829,3.194.858.858,0,0,1,.488,1.643c.131.32,1.645,11.011,4.992,11.011a6.06,6.06,0,0,0,0-12.12Z" transform="translate(-634.762 -287.476)"/></g></g></svg>