<svg xmlns="http://www.w3.org/2000/svg" xmlns:xlink="http://www.w3.org/1999/xlink" width="55.518" height="111.518" viewBox="0 0 55.518 111.518"><defs><style>.a{fill:#225ec4;}.b{fill:#feb28b;}.c{fill:#f58d6f;}.d{fill:#333;}.e,.k,.l{fill:#fff;}.f{fill:#4c4b4b;}.g{opacity:0.5;}.h{fill:#1a545d;}.i{fill:#7cb8e1;opacity:0.39;}.j{fill:#4192d4;}.k{opacity:0.2;}.l{opacity:0.3;}.m{clip-path:url(#a);}.n{fill:#610024;opacity:0.15;}</style><clipPath id="a"><path class="a" d="M1734.687,1114.52s3.428,3.023,11.127,3.023,9.82-4.842,9.82-4.842l4.916,59.552a95.808,95.808,0,0,1-15.357.1c-7.952-.524-14.555-11.723-14.555-11.723Z" transform="translate(-1730.637 -1112.701)"/></clipPath></defs><g transform="translate(0 0)"><path class="b" d="M1996.132,583.9c1.378,1,1.406,3.312.061,5.17s-3.552,2.558-4.93,1.561-1.406-3.312-.061-5.171S1994.754,582.905,1996.132,583.9Z" transform="translate(-1960.389 -579.134)"/><path class="b" d="M1689.669,682.217s4.3,6.613,2.057,20.255c-.7,4.244-4.8,14.182-7.066,14.182s-11.5.1-15.028-2.521c-3.318-2.464-7.323-6.094-7.323-10.556a80.816,80.816,0,0,0-2.252-17.229c-1.268-4.2-2.749-7.679-3.423-9.579-.534-1.505,4.075-3.315,8.05,4.026,1.633,3.016,3.95,5.737,9.035,5.439S1689.669,682.217,1689.669,682.217Z" transform="translate(-1656.593 -662.875)"/><rect class="b" width="18.299" height="11.893" transform="translate(11.741 48.608)"/><path class="c" d="M1757.914,936.525s5.166,12.559,7.513,14.576,6.7,3.36,6.7,3.36l6.006,1.894,2.279-26.692Z" transform="translate(-1748.857 -894.401)"/><path class="b" d="M1712.334,690.7l1.985,16.062s3.116-6.084,2.164-10.12A11.741,11.741,0,0,0,1712.334,690.7Z" transform="translate(-1707.351 -676.801)"/><g transform="translate(8.981)"><path class="c" d="M1757.064,773.51c0,1.122,1.5,5.133,3.355,5.133h16.672c1.85,0,3.355-.913,3.355-2.034V753.6c0-1.122-1.506-2.035-3.355-2.035h-16.672c-1.85,0-3.355.913-3.355,2.035Z" transform="translate(-1757.064 -732.224)"/><path class="d" d="M1785.075,579.83a3.358,3.358,0,0,0,3.354-3.355V538.544a3.357,3.357,0,0,0-3.354-3.355H1768.4a3.358,3.358,0,0,0-3.355,3.355v37.931a3.358,3.358,0,0,0,3.355,3.355Z" transform="translate(-1764.334 -535.189)"/><rect class="e" width="20.912" height="36.41" transform="translate(1.949 3.354)"/><path class="f" d="M1867.03,550.1a.392.392,0,0,0,.392.394h4.365a.393.393,0,0,0,.394-.394h0a.392.392,0,0,0-.394-.392h-4.365a.392.392,0,0,0-.392.392Z" transform="translate(-1857.2 -548.407)"/><path class="f" d="M1867.03,999.4a.689.689,0,0,1,.689-.69h3.771a.69.69,0,0,1,.69.69h0a.69.69,0,0,1-.69.69h-3.771a.69.69,0,0,1-.689-.69Z" transform="translate(-1857.2 -957.28)"/><g transform="translate(1.949 3.354)"><rect class="e" width="20.912" height="36.41"/><rect class="g" width="15.205" height="4.675" rx="2.338" transform="translate(2.854 25.703)"/><path class="h" d="M1813.123,853.857h10.529a2.337,2.337,0,0,1,2.338,2.338h0a2.337,2.337,0,0,1-2.338,2.338h-10.529a2.338,2.338,0,0,1-2.338-2.338h0A2.338,2.338,0,0,1,1813.123,853.857Z" transform="translate(-1807.932 -828.726)"/><path class="i" d="M1825.99,727.462c0-2.022-3.4-3.661-7.6-3.661s-7.6,1.639-7.6,3.661,3.4,3.661,7.6,3.661S1825.99,729.484,1825.99,727.462Z" transform="translate(-1807.932 -710.295)"/><path class="j" d="M1870.456,747.371c0-.735-1.237-1.33-2.762-1.33s-2.762.6-2.762,1.33,1.237,1.33,2.762,1.33S1870.456,748.106,1870.456,747.371Z" transform="translate(-1857.237 -730.547)"/><path class="h" d="M7.951,9.537c0-3.205-4.693-2.366-4.693-3.841,0-.407.369-.61.928-.61a6.932,6.932,0,0,1,2.874.954l.878-1.844a6.585,6.585,0,0,0-2.785-.954V1.384H3.461v1.87C1.833,3.521.816,4.5.816,5.912c0,3.154,4.693,2.238,4.693,3.752,0,.471-.432.725-1.119.725A5.692,5.692,0,0,1,1.159,9.041l-.9,1.819A6.571,6.571,0,0,0,3.461,12.22v1.959H5.153V12.233C6.755,12.017,7.951,11.1,7.951,9.537Z" transform="translate(6.512 3.478)"/></g><path class="k" d="M1768.4,535.189a3.358,3.358,0,0,0-3.354,3.355l20.026,41.285a3.358,3.358,0,0,0,3.355-3.355V538.544a3.358,3.358,0,0,0-3.355-3.355Z" transform="translate(-1764.336 -535.189)"/></g><g transform="translate(24.933 19.913)"><g transform="translate(1.918 14.869)"><path class="b" d="M1967.927,928.488a2.788,2.788,0,0,1-3.224,2.275l-5.41-.933a2.788,2.788,0,0,1-2.277-3.223h0a2.788,2.788,0,0,1,3.222-2.274l5.41.932a2.793,2.793,0,0,1,2.278,3.223Z" transform="translate(-1956.975 -924.291)"/><path class="c" d="M1959.293,953.415l5.41.933a2.788,2.788,0,0,0,3.224-2.275l-10.91-1.881A2.788,2.788,0,0,0,1959.293,953.415Z" transform="translate(-1956.975 -947.877)"/><path class="l" d="M1967.889,936.9l-.724-.125a2.037,2.037,0,0,1-1.664-2.354h0a2.036,2.036,0,0,1,2.354-1.66l.724.125c1.109.191,1.3.777,1.05,2.247S1969,937.089,1967.889,936.9Z" transform="translate(-1964.712 -931.975)"/></g><g transform="translate(0.629 8.395)"><path class="b" d="M1956.159,855.027a3.158,3.158,0,0,1-3.158,3.16h-7.284a3.158,3.158,0,0,1-3.159-3.16h0a3.158,3.158,0,0,1,3.159-3.158H1953a3.159,3.159,0,0,1,3.158,3.158Z" transform="translate(-1942.559 -851.869)"/><path class="c" d="M1945.718,890.356H1953a3.158,3.158,0,0,0,3.158-3.16h-13.6A3.158,3.158,0,0,0,1945.718,890.356Z" transform="translate(-1942.559 -884.038)"/><path class="l" d="M1955.715,866.006h-1.22a2.3,2.3,0,0,1-2.307-2.308h0a2.307,2.307,0,0,1,2.307-2.307h1.22c1.275,0,1.6.617,1.6,2.307S1956.989,866.006,1955.715,866.006Z" transform="translate(-1951.328 -860.54)"/></g><path class="b" d="M1950.317,760.68a3.365,3.365,0,0,1-2.659,3.948l-8.13,1.584a3.364,3.364,0,0,1-3.946-2.661h0a3.365,3.365,0,0,1,2.659-3.947l8.129-1.584a3.366,3.366,0,0,1,3.946,2.66Z" transform="translate(-1935.52 -757.957)"/><path class="c" d="M1940.168,793.947l8.13-1.584a3.365,3.365,0,0,0,2.658-3.948l-14.734,2.871A3.364,3.364,0,0,0,1940.168,793.947Z" transform="translate(-1936.159 -785.693)"/><path class="l" d="M1950.169,787.363l-1.462.285a2.453,2.453,0,0,1-2.882-1.941h0a2.457,2.457,0,0,1,1.942-2.882l1.462-.285c1.331-.259,1.8.32,2.145,2.086S1951.5,787.1,1950.169,787.363Z" transform="translate(-1944.862 -780.289)"/></g><g transform="translate(6.619 51.624)"><g class="m"><path class="n" d="M1760.777,1088.352s6.348,19.128,12.073,29.665c7.747,14.26,15.34,27.209,15.34,27.209l.069-12.054-2.036-44.82Z" transform="translate(-1758.083 -1090.529)"/></g></g><g transform="translate(12.637 29.553)"><path class="b" d="M1827.875,883.18a3.738,3.738,0,0,0-1.261.864,3.8,3.8,0,0,0-4.183-.866,3.748,3.748,0,0,0-1.381.994,3.791,3.791,0,0,0-3.9-.6,7.128,7.128,0,0,0-1.49.846l-5.914-12.221c-.812-1.943-2.958-7.474-5.968-6.216s-.289,6.549.524,8.491l9.443,22.594-3.94-.891c-.027-.013-.053-.025-.079-.035a33.275,33.275,0,0,0-6.211-2.644c-2.483-.667-7.462.466-4.774,2.808,2.412,2.1,5.461,3.61,7.276,5.012,2.351,1.813,5.507,4.179,7.632,5.615,1.555,1.051,3.023,2.043,4.151,2.9.306.231.855.7,1.466,1.224a6.466,6.466,0,0,0,6.723,1.075l7.881-3.294c2.677-1.119,3.859-3.866,3.92-6.766a19.576,19.576,0,0,0-.984-7.357,78.024,78.024,0,0,0-3.957-9.468,3.814,3.814,0,0,0-4.976-2.062Z" transform="translate(-1797.967 -865.794)"/><rect class="b" width="16.143" height="10.492" transform="matrix(0.923, -0.386, 0.386, 0.923, 23.941, 43.543)"/><path class="l" d="M1855.421,872.373l-.438-1.047a2.082,2.082,0,0,0-2.728-1.119h0a2.083,2.083,0,0,0-1.118,2.726l.438,1.048c.444,1.062,1.072,1.121,2.48.533S1855.865,873.435,1855.421,872.373Z" transform="translate(-1846.237 -869.664)"/><path class="l" d="M1802.262,1195.422a2.593,2.593,0,0,0-.948-2.358c-.924-.6-2.248-1.379-2.664-1.566s-.636.963-.636.963Z" transform="translate(-1798.011 -1162.365)"/></g></g></svg>