<svg xmlns="http://www.w3.org/2000/svg" width="176.288" height="26.606" viewBox="0 0 176.288 26.606"><defs><style>.a{fill:#fff;}</style></defs><g transform="translate(51.426 6.48)"><path class="a" d="M323.954,743.463v12.387h-6.43V745.317c0-2.216-1.308-3.6-3.343-3.6a3.851,3.851,0,0,0-3.85,3.742v10.389h-6.467V736.2h6.467v3.2a7.221,7.221,0,0,1,6.5-3.452C321.12,735.943,323.954,738.85,323.954,743.463Z" transform="translate(-303.864 -735.943)"/><path class="a" d="M397.006,747.829H383.347a4.4,4.4,0,0,0,4.469,3.451,6.516,6.516,0,0,0,4.614-2l3.378,3.378a11.045,11.045,0,0,1-8.573,3.488c-6.43,0-10.39-3.96-10.39-9.954,0-6.1,4.1-10.136,10.243-10.136C393.955,736.058,397.443,740.672,397.006,747.829Zm-6.248-3.452a3.511,3.511,0,0,0-3.633-3.778c-2.107,0-3.488,1.526-3.924,3.778Z" transform="translate(-353.957 -736.022)"/><path class="a" d="M452.111,736.755l3.16,5.522,3.416-5.522h7.084l-6.213,9.59,6.648,10.063h-7.447l-3.488-5.994-3.886,5.994h-7.121l6.684-10.063-6.248-9.59Z" transform="translate(-400.233 -736.5)"/><path class="a" d="M555.847,743.463v12.387H549.38V745.317c0-2.253-1.235-3.6-3.233-3.6-2.288.036-3.705,1.852-3.705,4.432v9.7h-6.466V745.317c0-2.253-1.236-3.6-3.234-3.6-2.289.036-3.741,1.852-3.741,4.432v9.7H522.57V736.2H529v3.233a7,7,0,0,1,6.393-3.488,6.524,6.524,0,0,1,6.539,4.4,7.009,7.009,0,0,1,6.865-4.4C553.05,735.943,555.847,738.85,555.847,743.463Z" transform="translate(-453.981 -735.943)"/><path class="a" d="M657.763,747.829H644.1a4.4,4.4,0,0,0,4.469,3.451,6.515,6.515,0,0,0,4.614-2l3.379,3.378a11.046,11.046,0,0,1-8.574,3.488c-6.43,0-10.389-3.96-10.389-9.954,0-6.1,4.1-10.136,10.243-10.136C654.712,736.058,658.2,740.672,657.763,747.829Zm-6.247-3.452a3.511,3.511,0,0,0-3.633-3.778c-2.108,0-3.488,1.526-3.924,3.778Z" transform="translate(-532.938 -736.022)"/></g><g transform="translate(13.303)"><path class="a" d="M188.954,741.887H182.3v-3.326l23.28-23.28h6.651v3.326Z" transform="translate(-182.302 -715.281)"/></g><path class="a" d="M263.186,756.445h-6.651v-13.3l6.651-6.651v19.954Z" transform="translate(-219.952 -729.839)"/><path class="a" d="M146.535,741.887h-6.651v-3.326l23.28-23.28h6.651v3.326Z" transform="translate(-139.884 -715.281)"/></svg>