<svg xmlns="http://www.w3.org/2000/svg" xmlns:xlink="http://www.w3.org/1999/xlink" width="183" height="137" viewBox="0 0 183 137"><defs><style>.a{fill:#225ec4;}.b{fill:#ffef98;}.c{fill:none;opacity:0.376;}.d{fill:#57c1a6;}.e,.n,.o{fill:#fff;}.f{fill:#1a545d;}.g{fill:#feb28b;}.h{fill:#f58d6f;}.i{fill:#333;}.j{fill:#4c4b4b;}.k{opacity:0.5;}.l{fill:#7cb8e1;opacity:0.39;}.m{fill:#4192d4;}.n{opacity:0.2;}.o{opacity:0.3;}.p{clip-path:url(#a);}.q{fill:#610024;opacity:0.15;}.r{clip-path:url(#b);}.s{clip-path:url(#d);}</style><clipPath id="a"><path class="a" d="M1734.687,1114.52s3.428,3.023,11.127,3.023,9.82-4.842,9.82-4.842l4.916,59.552a95.808,95.808,0,0,1-15.357.1c-7.952-.524-14.555-11.723-14.555-11.723Z" transform="translate(-1730.637 -1112.701)"/></clipPath><clipPath id="b"><path class="b" d="M41.179-29.344c1.609,9.969-6.311,18.777-7.177,27s5.445,15.777,3.712,28.553C36.105,39.086,26.453,57.186,9.252,63.09s-41.827-.484-58.409-13.26c-16.582-12.873-25-32.134-20.295-47.717,4.826-15.583,22.77-27.488,39.352-37.361S1.7-53.058,14.945-51.606C28.186-50.057,39.447-39.217,41.179-29.344Z" transform="translate(70.746 51.778)"/></clipPath><clipPath id="d"><path class="a" d="M2090.723,1306.9s-3.815,5.84-9.134,8.6a52.984,52.984,0,0,1-8.34,3.074l4.916,31.108s4.572.822,12.773-.758,15.223-9.974,15.223-9.974Z" transform="translate(-2073.249 -1306.902)"/></clipPath></defs><g transform="translate(-1105.57 -2659.787)"><rect class="c" width="183" height="137" transform="translate(1105.57 2659.787)"/><path class="b" d="M41.179-29.344c1.609,9.969-6.311,18.777-7.177,27s5.445,15.777,3.712,28.553C36.105,39.086,26.453,57.186,9.252,63.09s-41.827-.484-58.409-13.26c-16.582-12.873-25-32.134-20.295-47.717,4.826-15.583,22.77-27.488,39.352-37.361S1.7-53.058,14.945-51.606C28.186-50.057,39.447-39.217,41.179-29.344Z" transform="translate(1211.746 2726.13)"/><g transform="translate(1196.517 2702.922)"><g transform="translate(0)"><path class="d" d="M2222.463,930.333c5.7.384,11.417-4.041,14.359-10.088s3.945-12.071-1.158-9.907-5.656-2.776-3.483-6.122c5.9-9.074,6.087-26.976-.24-22.693s-1.113,4.071-5.559-3.242-16.787-11.678-13.936-.889,9.223,20.484,4.394,16.933-13.552-4.652-9.588,2.066,10.46,15.961,6.222,14.958-18.258-8.655-8.748,3.709S2222.463,930.333,2222.463,930.333Z" transform="translate(-2201.484 -870.909)"/><g transform="translate(13.459 5.497)"><g transform="translate(3.515)"><path class="e" d="M2368.716,932.4c.48,1.064.923,2.142,1.352,3.223s.837,2.17,1.226,3.263.767,2.191,1.118,3.294c.181.551.347,1.1.521,1.657s.335,1.108.489,1.665a81.146,81.146,0,0,1,2.74,13.555,51.955,51.955,0,0,1,.308,6.906l-.036.866c-.011.289-.021.578-.045.864l-.119,1.721-.151,1.719c-.05.573-.119,1.145-.177,1.718q-.382,3.433-.985,6.847c-.207,1.137-.423,2.273-.673,3.4-.06.283-.125.566-.19.849s-.131.565-.2.848c-.137.567-.278,1.124-.442,1.7l-1.461-.349c.166-.53.324-1.088.473-1.638.075-.276.149-.552.219-.83s.144-.554.21-.832c.277-1.111.522-2.229.757-3.349q.693-3.363,1.163-6.761c.073-.566.158-1.132.223-1.7l.2-1.7.166-1.705c.031-.285.048-.568.067-.851l.059-.85a51.174,51.174,0,0,0-.117-6.822,80.407,80.407,0,0,0-2.354-13.532c-.138-.559-.3-1.114-.442-1.671s-.308-1.111-.473-1.664c-.321-1.109-.668-2.211-1.026-3.311s-.738-2.195-1.135-3.285S2369.167,933.473,2368.716,932.4Z" transform="translate(-2368.716 -932.399)"/></g><g transform="translate(10.046 11.414)"><path class="e" d="M2433.057,1072.725a26.669,26.669,0,0,1,1.3-3.368c.5-1.1,1.067-2.169,1.671-3.221s1.251-2.084,1.938-3.094,1.413-2,2.2-2.951c-.734.982-1.408,2-2.043,3.027s-1.226,2.083-1.774,3.151-1.052,2.152-1.5,3.252a25.849,25.849,0,0,0-1.113,3.349Z" transform="translate(-2433.057 -1060.091)"/></g><g transform="translate(8.997 42.002)"><path class="e" d="M2422.727,1406.62c.051-.049.093-.085.137-.125s.089-.076.133-.113c.088-.075.177-.146.266-.217.177-.144.362-.276.545-.41.372-.261.749-.513,1.14-.745.2-.116.389-.235.591-.341l.3-.164c.1-.055.2-.109.3-.158l.614-.3.627-.278a20.522,20.522,0,0,1,2.593-.911c.438-.135.89-.227,1.337-.332.222-.057.451-.088.677-.13l.678-.119-.66.181c-.219.063-.44.114-.654.191-.429.145-.861.277-1.275.449a19.542,19.542,0,0,0-2.415,1.12l-.572.323-.554.346c-.093.056-.183.117-.271.178l-.267.182c-.18.119-.35.25-.522.377-.344.254-.671.525-.988.8-.154.141-.312.28-.457.425-.074.072-.147.144-.216.217-.035.036-.072.073-.1.109s-.069.075-.092.1Z" transform="translate(-2422.727 -1402.273)"/></g><g transform="translate(2.373 33.101)"><path class="e" d="M2364.666,1311.86c-.487-.81-1.018-1.623-1.56-2.419s-1.112-1.584-1.7-2.359-1.211-1.529-1.857-2.269a29.167,29.167,0,0,0-2.083-2.119c.806.612,1.569,1.27,2.3,1.953s1.427,1.4,2.1,2.13,1.327,1.478,1.959,2.239,1.246,1.529,1.839,2.33Z" transform="translate(-2357.466 -1302.694)"/></g><g transform="translate(0 22.286)"><path class="e" d="M2344.3,1192.26c-.3-.5-.644-1-.989-1.5s-.706-.982-1.077-1.464c-.742-.963-1.53-1.9-2.371-2.8a31.2,31.2,0,0,0-2.691-2.573c-.477-.405-.977-.79-1.489-1.163s-1.051-.717-1.6-1.046c.572.3,1.132.62,1.673.964s1.066.709,1.574,1.092a32.3,32.3,0,0,1,2.886,2.455c.909.866,1.769,1.773,2.586,2.71q.612.7,1.191,1.43c.386.487.758.972,1.119,1.489Z" transform="translate(-2334.086 -1181.717)"/></g></g></g><g transform="translate(15.04 20.606)"><path class="f" d="M2356.272,1145.2c-4.5-1.857-6.95-7.389-6.58-13.106s2.211-10.685,5.163-7.11,5.625.015,5.3-3.349c-.841-8.63,7.018-22.849,9.988-17.2s3.331,1.749,5.635-.371c5.462-5.025,17.833-2.559,11,4.584s-15.876,12.123-10.662,11.241,12.332,1.573,6.41,5.194-14.863,8.21-11.2,9.046,17.647.3,5.061,6.129S2356.272,1145.2,2356.272,1145.2Z" transform="translate(-2349.656 -1101.423)"/><g transform="translate(3.038 4.209)"><g transform="translate(3.008)"><path class="e" d="M2436.136,1148.508c-1.63,1.314-3.188,2.7-4.7,4.109s-2.982,2.869-4.392,4.365a74.159,74.159,0,0,0-7.673,9.468,44.941,44.941,0,0,0-3.018,5.155c-.439.882-.837,1.789-1.241,2.691l-.583,1.361-.559,1.368q-1.1,2.743-2.018,5.535c-.3.932-.595,1.864-.86,2.8-.134.469-.265.939-.387,1.409s-.242.945-.344,1.406l-1.142-.2c.121-.492.252-.963.389-1.441s.28-.949.428-1.421c.292-.945.614-1.881.94-2.816q1-2.8,2.173-5.541l.6-1.367.621-1.359c.429-.9.851-1.8,1.321-2.693a45.847,45.847,0,0,1,3.184-5.157,75.18,75.18,0,0,1,7.95-9.369c1.45-1.472,2.958-2.9,4.508-4.287S2434.473,1149.79,2436.136,1148.508Z" transform="translate(-2409.216 -1148.508)"/></g><g transform="translate(0 24.619)"><path class="e" d="M2384.383,1432.742c-.115-.38-.253-.777-.4-1.162-.071-.194-.149-.387-.223-.58l-.237-.577q-.486-1.151-1.078-2.267a24.072,24.072,0,0,0-1.3-2.181l-.363-.528c-.124-.174-.257-.344-.385-.516l-.194-.258c-.067-.084-.138-.166-.207-.25l-.417-.5.462.468c.077.078.156.155.23.235l.219.243c.145.163.294.324.436.489l.414.5a25.186,25.186,0,0,1,1.518,2.1q.7,1.085,1.309,2.218l.3.569c.094.192.192.382.282.575.185.387.36.77.525,1.177Z" transform="translate(-2379.583 -1423.923)"/></g><g transform="translate(6.608 27.393)"><path class="e" d="M2444.691,1456.757c.742-.263,1.476-.488,2.224-.7s1.5-.4,2.261-.56,1.53-.293,2.3-.4a20.03,20.03,0,0,1,2.33-.154,19.728,19.728,0,0,0-2.292.33q-1.128.241-2.226.565t-2.163.72c-.708.261-1.417.542-2.091.844Z" transform="translate(-2444.691 -1454.948)"/></g><g transform="translate(9.917 18.174)"><path class="e" d="M2477.285,1355.707c.5-.274,1-.522,1.5-.765s1.018-.472,1.535-.692c1.034-.441,2.091-.839,3.168-1.187a29.088,29.088,0,0,1,3.3-.862c.559-.11,1.124-.2,1.69-.266s1.138-.1,1.708-.118q-.853.06-1.694.194c-.559.094-1.114.2-1.662.339a28.613,28.613,0,0,0-3.209,1c-1.044.391-2.063.831-3.057,1.311q-.745.36-1.471.748c-.481.259-.963.53-1.416.808Z" transform="translate(-2477.285 -1351.818)"/></g></g><g transform="translate(17.722 6.427)"><path class="e" d="M2524.924,1173.321c-.153,1.067-.234,2.139-.291,3.212s-.069,2.147-.074,3.22.019,2.147.051,3.22.081,2.147.149,3.216l-.465.018c-.03-1.079-.038-2.154-.034-3.23s.023-2.152.065-3.228.1-2.15.191-3.223S2524.733,1174.383,2524.924,1173.321Z" transform="translate(-2524.26 -1173.321)"/></g></g></g><g transform="translate(1162.418 2681.574)"><path class="g" d="M1996.132,583.9c1.378,1,1.406,3.312.061,5.17s-3.552,2.558-4.93,1.561-1.406-3.312-.061-5.171S1994.754,582.905,1996.132,583.9Z" transform="translate(-1960.389 -579.134)"/><path class="g" d="M1689.669,682.217s4.3,6.613,2.057,20.255c-.7,4.244-4.8,14.182-7.066,14.182s-11.5.1-15.028-2.521c-3.318-2.464-7.323-6.094-7.323-10.556a80.816,80.816,0,0,0-2.252-17.229c-1.268-4.2-2.749-7.679-3.423-9.579-.534-1.505,4.075-3.315,8.05,4.026,1.633,3.016,3.95,5.737,9.035,5.439S1689.669,682.217,1689.669,682.217Z" transform="translate(-1656.593 -662.875)"/><rect class="g" width="18.299" height="11.893" transform="translate(11.741 48.608)"/><path class="h" d="M1757.914,936.525s5.166,12.559,7.513,14.576,6.7,3.36,6.7,3.36l6.006,1.894,2.279-26.692Z" transform="translate(-1748.857 -894.401)"/><path class="g" d="M1712.334,690.7l1.985,16.062s3.116-6.084,2.164-10.12A11.741,11.741,0,0,0,1712.334,690.7Z" transform="translate(-1707.351 -676.801)"/><g transform="translate(8.981)"><path class="h" d="M1757.064,773.51c0,1.122,1.5,5.133,3.355,5.133h16.672c1.85,0,3.355-.913,3.355-2.034V753.6c0-1.122-1.506-2.035-3.355-2.035h-16.672c-1.85,0-3.355.913-3.355,2.035Z" transform="translate(-1757.064 -732.224)"/><path class="i" d="M1785.075,579.83a3.358,3.358,0,0,0,3.354-3.355V538.544a3.357,3.357,0,0,0-3.354-3.355H1768.4a3.358,3.358,0,0,0-3.355,3.355v37.931a3.358,3.358,0,0,0,3.355,3.355Z" transform="translate(-1764.334 -535.189)"/><rect class="e" width="20.912" height="36.41" transform="translate(1.949 3.354)"/><path class="j" d="M1867.03,550.1a.392.392,0,0,0,.392.394h4.365a.393.393,0,0,0,.394-.394h0a.392.392,0,0,0-.394-.392h-4.365a.392.392,0,0,0-.392.392Z" transform="translate(-1857.2 -548.407)"/><path class="j" d="M1867.03,999.4a.689.689,0,0,1,.689-.69h3.771a.69.69,0,0,1,.69.69h0a.69.69,0,0,1-.69.69h-3.771a.69.69,0,0,1-.689-.69Z" transform="translate(-1857.2 -957.28)"/><g transform="translate(1.949 3.354)"><rect class="e" width="20.912" height="36.41"/><rect class="k" width="15.205" height="4.675" rx="2.338" transform="translate(2.854 25.703)"/><path class="f" d="M1813.123,853.857h10.529a2.337,2.337,0,0,1,2.338,2.338h0a2.337,2.337,0,0,1-2.338,2.338h-10.529a2.338,2.338,0,0,1-2.338-2.338h0A2.338,2.338,0,0,1,1813.123,853.857Z" transform="translate(-1807.932 -828.726)"/><path class="l" d="M1825.99,727.462c0-2.022-3.4-3.661-7.6-3.661s-7.6,1.639-7.6,3.661,3.4,3.661,7.6,3.661S1825.99,729.484,1825.99,727.462Z" transform="translate(-1807.932 -710.295)"/><path class="m" d="M1870.456,747.371c0-.735-1.237-1.33-2.762-1.33s-2.762.6-2.762,1.33,1.237,1.33,2.762,1.33S1870.456,748.106,1870.456,747.371Z" transform="translate(-1857.237 -730.547)"/><path class="f" d="M7.951,9.537c0-3.205-4.693-2.366-4.693-3.841,0-.407.369-.61.928-.61a6.932,6.932,0,0,1,2.874.954l.878-1.844a6.585,6.585,0,0,0-2.785-.954V1.384H3.461v1.87C1.833,3.521.816,4.5.816,5.912c0,3.154,4.693,2.238,4.693,3.752,0,.471-.432.725-1.119.725A5.692,5.692,0,0,1,1.159,9.041l-.9,1.819A6.571,6.571,0,0,0,3.461,12.22v1.959H5.153V12.233C6.755,12.017,7.951,11.1,7.951,9.537Z" transform="translate(6.512 3.478)"/></g><path class="n" d="M1768.4,535.189a3.358,3.358,0,0,0-3.354,3.355l20.026,41.285a3.358,3.358,0,0,0,3.355-3.355V538.544a3.358,3.358,0,0,0-3.355-3.355Z" transform="translate(-1764.336 -535.189)"/></g><g transform="translate(24.933 19.913)"><g transform="translate(1.918 14.869)"><path class="g" d="M1967.927,928.488a2.788,2.788,0,0,1-3.224,2.275l-5.41-.933a2.788,2.788,0,0,1-2.277-3.223h0a2.788,2.788,0,0,1,3.222-2.274l5.41.932a2.793,2.793,0,0,1,2.278,3.223Z" transform="translate(-1956.975 -924.291)"/><path class="h" d="M1959.293,953.415l5.41.933a2.788,2.788,0,0,0,3.224-2.275l-10.91-1.881A2.788,2.788,0,0,0,1959.293,953.415Z" transform="translate(-1956.975 -947.877)"/><path class="o" d="M1967.889,936.9l-.724-.125a2.037,2.037,0,0,1-1.664-2.354h0a2.036,2.036,0,0,1,2.354-1.66l.724.125c1.109.191,1.3.777,1.05,2.247S1969,937.089,1967.889,936.9Z" transform="translate(-1964.712 -931.975)"/></g><g transform="translate(0.629 8.395)"><path class="g" d="M1956.159,855.027a3.158,3.158,0,0,1-3.158,3.16h-7.284a3.158,3.158,0,0,1-3.159-3.16h0a3.158,3.158,0,0,1,3.159-3.158H1953a3.159,3.159,0,0,1,3.158,3.158Z" transform="translate(-1942.559 -851.869)"/><path class="h" d="M1945.718,890.356H1953a3.158,3.158,0,0,0,3.158-3.16h-13.6A3.158,3.158,0,0,0,1945.718,890.356Z" transform="translate(-1942.559 -884.038)"/><path class="o" d="M1955.715,866.006h-1.22a2.3,2.3,0,0,1-2.307-2.308h0a2.307,2.307,0,0,1,2.307-2.307h1.22c1.275,0,1.6.617,1.6,2.307S1956.989,866.006,1955.715,866.006Z" transform="translate(-1951.328 -860.54)"/></g><path class="g" d="M1950.317,760.68a3.365,3.365,0,0,1-2.659,3.948l-8.13,1.584a3.364,3.364,0,0,1-3.946-2.661h0a3.365,3.365,0,0,1,2.659-3.947l8.129-1.584a3.366,3.366,0,0,1,3.946,2.66Z" transform="translate(-1935.52 -757.957)"/><path class="h" d="M1940.168,793.947l8.13-1.584a3.365,3.365,0,0,0,2.658-3.948l-14.734,2.871A3.364,3.364,0,0,0,1940.168,793.947Z" transform="translate(-1936.159 -785.693)"/><path class="o" d="M1950.169,787.363l-1.462.285a2.453,2.453,0,0,1-2.882-1.941h0a2.457,2.457,0,0,1,1.942-2.882l1.462-.285c1.331-.259,1.8.32,2.145,2.086S1951.5,787.1,1950.169,787.363Z" transform="translate(-1944.862 -780.289)"/></g><g transform="translate(6.619 51.624)"><g class="p"><path class="q" d="M1760.777,1088.352s6.348,19.128,12.073,29.665c7.747,14.26,15.34,27.209,15.34,27.209l.069-12.054-2.036-44.82Z" transform="translate(-1758.083 -1090.529)"/></g></g><g transform="translate(12.637 29.553)"><path class="g" d="M1827.875,883.18a3.738,3.738,0,0,0-1.261.864,3.8,3.8,0,0,0-4.183-.866,3.748,3.748,0,0,0-1.381.994,3.791,3.791,0,0,0-3.9-.6,7.128,7.128,0,0,0-1.49.846l-5.914-12.221c-.812-1.943-2.958-7.474-5.968-6.216s-.289,6.549.524,8.491l9.443,22.594-3.94-.891c-.027-.013-.053-.025-.079-.035a33.275,33.275,0,0,0-6.211-2.644c-2.483-.667-7.462.466-4.774,2.808,2.412,2.1,5.461,3.61,7.276,5.012,2.351,1.813,5.507,4.179,7.632,5.615,1.555,1.051,3.023,2.043,4.151,2.9.306.231.855.7,1.466,1.224a6.466,6.466,0,0,0,6.723,1.075l7.881-3.294c2.677-1.119,3.859-3.866,3.92-6.766a19.576,19.576,0,0,0-.984-7.357,78.024,78.024,0,0,0-3.957-9.468,3.814,3.814,0,0,0-4.976-2.062Z" transform="translate(-1797.967 -865.794)"/><rect class="g" width="16.143" height="10.492" transform="matrix(0.923, -0.386, 0.386, 0.923, 23.941, 43.543)"/><path class="o" d="M1855.421,872.373l-.438-1.047a2.082,2.082,0,0,0-2.728-1.119h0a2.083,2.083,0,0,0-1.118,2.726l.438,1.048c.444,1.062,1.072,1.121,2.48.533S1855.865,873.435,1855.421,872.373Z" transform="translate(-1846.237 -869.664)"/><path class="o" d="M1802.262,1195.422a2.593,2.593,0,0,0-.948-2.358c-.924-.6-2.248-1.379-2.664-1.566s-.636.963-.636.963Z" transform="translate(-1798.011 -1162.365)"/></g></g><g class="r" transform="translate(1141 2674.352)"><g transform="translate(28.037 36.775)"><g transform="translate(0 22.07)"><path class="d" d="M1734.687,1114.52s3.428,3.023,11.127,3.023,9.82-4.842,9.82-4.842l4.916,59.552a95.808,95.808,0,0,1-15.357.1c-7.952-.524-14.555-11.723-14.555-11.723Z" transform="translate(-1730.637 -1112.701)"/><g class="p"><path class="q" d="M1760.777,1088.352s6.348,19.128,12.073,29.665c7.747,14.26,15.34,27.209,15.34,27.209l.069-12.054-2.036-44.82Z" transform="translate(-1758.083 -1090.529)"/></g></g><g transform="translate(6.018)"><path class="g" d="M1827.875,883.18a3.738,3.738,0,0,0-1.261.864,3.8,3.8,0,0,0-4.183-.866,3.748,3.748,0,0,0-1.381.994,3.791,3.791,0,0,0-3.9-.6,7.128,7.128,0,0,0-1.49.846l-5.914-12.221c-.812-1.943-2.958-7.474-5.968-6.216s-.289,6.549.524,8.491l9.443,22.594-3.94-.891c-.027-.013-.053-.025-.079-.035a33.275,33.275,0,0,0-6.211-2.644c-2.483-.667-7.462.466-4.774,2.808,2.412,2.1,5.461,3.61,7.276,5.012,2.351,1.813,5.507,4.179,7.632,5.615,1.555,1.051,3.023,2.043,4.151,2.9.306.231.855.7,1.466,1.224a6.466,6.466,0,0,0,6.723,1.075l7.881-3.294c2.677-1.119,3.859-3.866,3.92-6.766a19.576,19.576,0,0,0-.984-7.357,78.024,78.024,0,0,0-3.957-9.468,3.814,3.814,0,0,0-4.976-2.062Z" transform="translate(-1797.967 -865.794)"/><rect class="g" width="16.143" height="10.492" transform="matrix(0.923, -0.386, 0.386, 0.923, 23.941, 43.543)"/><path class="o" d="M1855.421,872.373l-.438-1.047a2.082,2.082,0,0,0-2.728-1.119h0a2.083,2.083,0,0,0-1.118,2.726l.438,1.048c.444,1.062,1.072,1.121,2.48.533S1855.865,873.435,1855.421,872.373Z" transform="translate(-1846.237 -869.664)"/><path class="o" d="M1802.262,1195.422a2.593,2.593,0,0,0-.948-2.358c-.924-.6-2.248-1.379-2.664-1.566s-.636.963-.636.963Z" transform="translate(-1798.011 -1162.365)"/><g transform="translate(24.607 39.431)"><path class="d" d="M2090.723,1306.9s-3.815,5.84-9.134,8.6a52.984,52.984,0,0,1-8.34,3.074l4.916,31.108s4.572.822,12.773-.758,15.223-9.974,15.223-9.974Z" transform="translate(-2073.249 -1306.902)"/><g class="s"><path class="q" d="M2096.6,1268.2s3.654,25.911,2.257,32.083c-2.667,11.777-19.156-15.263-18.5-3.708a154.294,154.294,0,0,1-.41,21.929l41.023-4.443,4.781-13.786Z" transform="translate(-2079.342 -1271.659)"/></g></g></g></g></g></g></svg>