<svg xmlns="http://www.w3.org/2000/svg" xmlns:xlink="http://www.w3.org/1999/xlink" width="181" height="151" viewBox="0 0 181 151"><defs><style>.a,.c{fill:none;}.b{fill:url(#a);}.c{opacity:0.441;}.d{fill:#f5e797;}.e{fill:#1a545d;}.f{clip-path:url(#b);}.g,.n,.o{opacity:0.5;}.g,.n,.q{mix-blend-mode:soft-light;}.g,.n,.q,.s,.u{isolation:isolate;}.h,.m,.n,.q{fill:#fff;}.i{fill:#57c1a6;}.j{clip-path:url(#c);}.k{fill:#351a4a;}.l{fill:#462261;}.m,.p{opacity:0.9;}.r{fill:#ffa7a6;}.s{fill:rgba(53,26,74,0.3);}.s,.u{mix-blend-mode:multiply;}.t{fill:#ffc444;}.u{fill:#feaf37;opacity:0.3;}.v{fill:url(#d);}</style><linearGradient id="a" x1="0.669" y1="-0.1" x2="0.43" y2="0.816" gradientUnits="objectBoundingBox"><stop offset="0.004" stop-color="#e38ddd"/><stop offset="1" stop-color="#9571f6"/></linearGradient><clipPath id="b"><path class="a" d="M1652.293,325.1a6.827,6.827,0,0,1-7.014-10.917,53.545,53.545,0,0,0,5.1-7.352c8.872-15.425,4.286-25.552,12.276-53.474,5.052-17.655,8.755-29.926,19.425-34.255,8.361-3.393,20-1.5,25.66,5.091,4.708,5.482,5.837,14.857,5.286,21.2-.449,5.17-2.037,8.6.149,11.945,2.234,3.42,5.776,2.719,8,5.4,4.507,5.433-2.114,17.887-3.183,19.9-11.9,22.39-38.039,32.835-49.495,37.254A149.94,149.94,0,0,1,1652.293,325.1Z" transform="translate(-1643.709 -217.448)"/></clipPath><clipPath id="c"><path class="b" d="M1684.238,685.773c7.982,4.675,18.816,9.492,31.152,10.71,3.148.311,22.6,2.23,24.826-5.846.785-2.845-1.229-4.527-.245-8.349,1.166-4.528,4.74-5.065,9.243-8.949,2.687-2.318,10.551-9.1,8.175-16.738-1.42-4.564-6.433-9.226-11.423-10.736-7.321-2.215-13.161,2.786-22.9,11.419-8.63,7.653-9.159,10.448-15.47,15.85A66.222,66.222,0,0,1,1684.238,685.773Z" transform="translate(-1684.238 -645.342)"/></clipPath><linearGradient id="d" x1="-88.41" y1="2.628" x2="-89.127" y2="1.041" gradientUnits="objectBoundingBox"><stop offset="0" stop-color="#462261"/><stop offset="0.996" stop-color="#3e4177"/><stop offset="1" stop-color="#3e4177"/></linearGradient></defs><g transform="translate(-133.538 -1542.836)"><rect class="c" width="181" height="151" transform="translate(133.538 1542.836)"/><g transform="translate(161.566 1549.929)"><path class="d" d="M1412.236,214.113s-43.912,1.908-46.4,40.528-14.015,75.366,14.014,77.559,93.742,6.454,103.085-16.554S1496.946,206.011,1412.236,214.113Z" transform="translate(-1361.375 -213.58)"/><g transform="translate(45.445 0.623)"><path class="e" d="M1660.917,324.5a7.557,7.557,0,0,1-8.022-11.873,53.3,53.3,0,0,0,3.859-5.792c8.872-15.425,4.286-25.552,12.277-53.474,5.052-17.655,8.755-29.926,19.424-34.255,8.361-3.393,20-1.5,25.66,5.091,4.708,5.482,5.837,14.857,5.286,21.2-.449,5.17-2.038,8.6.148,11.945,2.234,3.42,5.776,2.719,8,5.4,4.507,5.433-2.114,17.887-3.184,19.9-11.9,22.39-38.039,32.835-49.495,37.254C1671.008,321.377,1666.34,322.995,1660.917,324.5Z" transform="translate(-1650.085 -217.448)"/><g class="f"><g class="g" transform="translate(-25.345 -5.049)"><path class="h" d="M1486.289,305.831l-.036-.32a113.367,113.367,0,0,0,29.654-7.038c12.493-5.04,21.316-12.24,26.223-21.4,3.842-7.173,5.215-15.265,7.116-26.466a153.356,153.356,0,0,0,2.022-21.124c.31-7.451.554-13.336,3.462-21.212a63.578,63.578,0,0,1,14.285-22.193l.231.224a63.257,63.257,0,0,0-14.214,22.08c-2.891,7.829-3.134,13.692-3.442,21.114a153.673,153.673,0,0,1-2.027,21.163c-1.906,11.232-3.282,19.346-7.149,26.565-4.944,9.229-13.821,16.478-26.386,21.547A113.688,113.688,0,0,1,1486.289,305.831Z" transform="translate(-1486.253 -186.078)"/><path class="h" d="M1804.453,315.315l-.144-.112a42.971,42.971,0,0,1-9.464-11.571,43.921,43.921,0,0,1-5.116-13.926,46.29,46.29,0,0,1,.586-18.877l.314.073a45.968,45.968,0,0,0-.583,18.746,44.612,44.612,0,0,0,14.321,25.187,73.459,73.459,0,0,1,13.8-16.811,64.765,64.765,0,0,1,13.845-9.512,49.811,49.811,0,0,1,14.89-5.08l.038.32a49.5,49.5,0,0,0-14.8,5.054,64.453,64.453,0,0,0-13.77,9.464,73.211,73.211,0,0,0-13.825,16.889Z" transform="translate(-1740.287 -257.187)"/><path class="h" d="M1691.181,493.046l-.04-.11a124.7,124.7,0,0,0-9.186-19.158c-5.53-9.159-22.181-16.124-22.349-16.194l.123-.3c.168.07,16.917,7.076,22.5,16.325a125.1,125.1,0,0,1,9.173,19.1c4.482-.185,9.89-2.31,16.074-6.316a116.944,116.944,0,0,0,16.392-13.289,218.792,218.792,0,0,0,17.767-19.138l.251.2a219.039,219.039,0,0,1-17.793,19.168,117.261,117.261,0,0,1-16.44,13.327c-6.288,4.075-11.791,6.219-16.356,6.373Z" transform="translate(-1631.702 -410.852)"/><path class="h" d="M1689.351,672.259a94.1,94.1,0,0,1-11.13-.571l-.318-.043.224-.23a21.617,21.617,0,0,0,6.342-13.088,28.169,28.169,0,0,0-1.868-12.639,48.351,48.351,0,0,0-7.722-13.322l.243-.211a48.7,48.7,0,0,1,7.778,13.414,28.491,28.491,0,0,1,1.889,12.787,21.862,21.862,0,0,1-6.207,13.051,112.465,112.465,0,0,0,21.008.1,111.338,111.338,0,0,0,20.72-3.674,85.794,85.794,0,0,0,22.146-9.587l28.789-17.9.17.273-28.789,17.9a86.141,86.141,0,0,1-22.234,9.625,111.7,111.7,0,0,1-20.783,3.685C1695.817,672.148,1692.344,672.259,1689.351,672.259Z" transform="translate(-1644.517 -560.354)"/></g></g></g><g transform="translate(51.969 69.498)"><path class="i" d="M1684.238,685.773c7.982,4.675,18.816,9.492,31.152,10.71,3.148.311,22.6,2.23,24.826-5.846.785-2.845-1.229-4.527-.245-8.349,1.166-4.528,4.74-5.065,9.243-8.949,2.687-2.318,10.551-9.1,8.175-16.738-1.42-4.564-6.433-9.226-11.423-10.736-7.321-2.215-13.161,2.786-22.9,11.419-8.63,7.653-9.159,10.448-15.47,15.85A66.222,66.222,0,0,1,1684.238,685.773Z" transform="translate(-1684.238 -645.342)"/><g class="j"><g class="g" transform="translate(-35.709 -6.36)"><path class="h" d="M1502.2,652.639a51.549,51.549,0,0,1-14.63-2.1,59.366,59.366,0,0,1-25.181-15.309l.227-.228a59.05,59.05,0,0,0,25.045,15.228c12.242,3.605,25.276,2.544,38.74-3.155,14.021-5.934,25-15.41,31.734-22.314,4.667-4.782,7.972-11.151,9.822-18.929l.313.075c-1.864,7.836-5.2,14.255-9.9,19.079-6.759,6.925-17.769,16.43-31.839,22.385A62.279,62.279,0,0,1,1502.2,652.639Z" transform="translate(-1462.393 -605.829)"/><path class="h" d="M1964.1,663.325l-.023-.143a37.993,37.993,0,0,1,.011-9.457c.6-4.916,2.448-11.918,7.841-17.359l.229.227c-5.329,5.377-7.156,12.306-7.75,17.172a38.352,38.352,0,0,0-.033,9.224c23.407-1.245,30.537-14,32.167-17.889a1.855,1.855,0,0,1,.084-.187l.277.163-.139-.082.139.081c-.011.021-.032.071-.064.15-1.652,3.939-8.883,16.885-32.594,18.094Z" transform="translate(-1883.089 -631.451)"/><path class="h" d="M1884.1,672.2h-.08c-5.223-.016-13.465-1.629-23.073-9.227l-.068-.053.007-.086a58.63,58.63,0,0,1,9.81-25.368l8.786-12.893.266.181-8.786,12.893a58.594,58.594,0,0,0-9.747,25.128c5.261,4.147,13.463,9.068,22.785,9.1h.1a20.54,20.54,0,0,0,8.921-1.778l.152.284A20.856,20.856,0,0,1,1884.1,672.2Z" transform="translate(-1796.738 -621.552)"/></g></g></g><g transform="translate(12.83 7.329)"><path class="k" d="M1501.952,263.863v106.6c0,1.594-1.363,1.988-2.911,2.1l-54.014,4.82-.833.059a2.849,2.849,0,0,1-3.115-2.84V262.071a2.981,2.981,0,0,1,3.115-2.96l1.131.036,54.2,4.135C1501.069,263.331,1501.952,262.269,1501.952,263.863Z" transform="translate(-1441.08 -259.11)"/><path class="l" d="M1512.683,263.86V370.4a3.083,3.083,0,0,1-2.767,3.094l-19.094,1.35-35.742,2.526a2.82,2.82,0,0,1-3.08-2.838V262.07a2.961,2.961,0,0,1,3.09-2.959l21.216.681,33.615,1.082A2.934,2.934,0,0,1,1512.683,263.86Z" transform="translate(-1450.242 -259.11)"/><path class="i" d="M1520.892,303.44V402.2a2.908,2.908,0,0,1-2.626,2.886l-51.609,3.539a2.654,2.654,0,0,1-2.892-2.649V302.066a2.789,2.789,0,0,1,2.892-2.771l51.609,1.369A2.761,2.761,0,0,1,1520.892,303.44Z" transform="translate(-1460.114 -292.826)"/><path class="m" d="M1641.429,279.925a.988.988,0,0,1-1.019,1,1.06,1.06,0,0,1-1.021-1.057.988.988,0,0,1,1.021-1A1.06,1.06,0,0,1,1641.429,279.925Z" transform="translate(-1607.469 -275.688)"/><path class="n" d="M1490.842,374.849l-35.752,2.526a2.828,2.828,0,0,1-3.09-2.838V262.07a2.961,2.961,0,0,1,3.09-2.959l21.216.681c-3.137,14.311-7.44,45.343,8.881,62.965C1501.862,340.758,1503.213,360.647,1490.842,374.849Z" transform="translate(-1450.242 -259.11)"/><g class="o" transform="translate(8.156 12.608)"><path class="m" d="M1540.242,363.457l-48.491.262V337.439l48.491.72Z" transform="translate(-1491.751 -337.439)"/><path class="m" d="M1514.375,675.086l-22.623.919V655.74l22.623-.566Z" transform="translate(-1491.751 -604.031)"/><path class="m" d="M1679.86,670.662l-21.707.882V651.7l21.707-.543Z" transform="translate(-1631.369 -600.658)"/><path class="m" d="M1514.375,827.132l-22.623,1.354V808.221l22.623-1Z" transform="translate(-1491.751 -731.603)"/><path class="m" d="M1679.86,819.622l-21.707,1.3V801.074l21.707-.96Z" transform="translate(-1631.369 -725.641)"/><g class="p" transform="translate(0 31.483)"><path class="h" d="M1506.409,542.056a7.336,7.336,0,0,1-7.287,7.177,7.071,7.071,0,0,1-7.37-6.954,7.335,7.335,0,0,1,7.37-7.179A7.071,7.071,0,0,1,1506.409,542.056Z" transform="translate(-1491.751 -534.767)"/><path class="h" d="M1614.951,540.916a7.186,7.186,0,0,1-7.094,7.08,6.925,6.925,0,0,1-7.173-6.862,7.184,7.184,0,0,1,7.173-7.081A6.927,6.927,0,0,1,1614.951,540.916Z" transform="translate(-1583.151 -533.888)"/><path class="h" d="M1720.6,539.805a7.042,7.042,0,0,1-6.907,6.984,6.786,6.786,0,0,1-6.984-6.773,7.039,7.039,0,0,1,6.984-6.985A6.788,6.788,0,0,1,1720.6,539.805Z" transform="translate(-1672.111 -533.031)"/></g></g></g><g transform="translate(53.097 31.978)"><circle class="n" cx="5.56" cy="5.56" r="5.56" transform="matrix(0.23, -0.973, 0.973, 0.23, 0, 10.822)"/><circle class="q" cx="2.746" cy="2.746" r="2.746" transform="translate(3.942 3.942)"/></g><g transform="translate(59.427 20.375)"><path class="r" d="M1733.226,454.485s.483-1.811.141-2.274-2.435-2.314-2.233-1.71a3.89,3.89,0,0,0,.5,1.006s-1.127.523-.4,1.308.966.966,1.006,1.67S1732.743,455.43,1733.226,454.485Z" transform="translate(-1730.924 -432.64)"/><path class="l" d="M1838.162,961.462a16.159,16.159,0,0,1,.223,2.123c-.033.557-6.218.842-6.28.425s1.022-1.081,1.786-1.316,3-.86,3-.86Z" transform="translate(-1815.76 -861.456)"/><path class="r" d="M1860.42,951.428l.2,1.947a1.407,1.407,0,0,0,1.351.108l.317-2.12Z" transform="translate(-1839.519 -852.983)"/><path class="l" d="M1906.719,977.234a16.159,16.159,0,0,1,.223,2.123c-.033.557-6.218.842-6.28.425s1.022-1.081,1.786-1.316,3-.86,3-.86Z" transform="translate(-1873.282 -874.689)"/><path class="r" d="M1928.976,967.2l.2,1.947a1.406,1.406,0,0,0,1.351.108l.317-2.12Z" transform="translate(-1897.04 -866.217)"/><path class="k" d="M1852.394,631.612l-2.145,4.348c-.575,8.271-.861,17.266-.677,26.885.137,7.156.519,13.936,1.068,20.3l2.908-.133a29.008,29.008,0,0,0,3.209-12.2c.159-5.427-1.487-6.147-1.382-11.343.135-6.734,2.959-8.531,4.464-16.632a43.373,43.373,0,0,0,.5-12.053Z" transform="translate(-1830.371 -584.004)"/><path class="s" d="M1865.524,630.783l-4.292.448c-2.575,4.481-3.294,9.146-2.842,11.209.639,2.919,2.331,3.854,2.238,6.785-.092,2.9-1.8,3.652-2.884,7.07-.75,2.366-.552,4.542-.125,8.8.86,8.571,2.929,11.192,1.2,14a6.329,6.329,0,0,1-3.119,2.475c.042.526.084,1.053.129,1.573l2.908-.133a29.007,29.007,0,0,0,3.208-12.2c.159-5.427-1.486-6.147-1.382-11.343.135-6.734,2.959-8.531,4.464-16.632A43.374,43.374,0,0,0,1865.524,630.783Z" transform="translate(-1835.554 -584.004)"/><path class="l" d="M1891.287,641.46c1.342,7.318,2.528,15.15,3.452,23.456,1.116,10.029,1.713,19.484,1.947,28.263l3.192.09c4.193-8.294,4.449-13.917,3.844-17.578a52.908,52.908,0,0,1-1.01-8.311,58.472,58.472,0,0,1,.313-7.711c.5-5.78,1.115-7.042,1.2-11.464.082-4.15.1-6.249-1.085-7.475C1900.021,637.5,1891.9,641.175,1891.287,641.46Z" transform="translate(-1865.417 -591.243)"/><path class="t" d="M1733.43,448.779l-2.122-.148c-1.669,6.745-.472,13.288,3.3,15.695,5.886,3.759,16.824-3.324,19.2-11.036,1.041-3.385.8-8.271-1.276-9.22-.577-.263-1.473-.3-3.414.785-5.8,3.254-5.948,9.4-8.894,9.924C1738.905,455.01,1736.79,454.175,1733.43,448.779Z" transform="translate(-1730.571 -427.213)"/><path class="t" d="M1832.7,476.937c-1.019-1.691.261-3.323.552-6.527.33-3.632-1.069-4.237-2.453-10.256-.92-4-1.8-7.846-.749-12.344.505-2.156,1.362-5.813,4.388-7.579,1.562-.911,3.694-.82,7.895-.6,5.195.272,7.792.407,9.729,1.427.284.149,6.177,3.355,6.582,8.579.413,5.318-5.379,6.033-6.151,13.124-.347,3.183.271,8.08.672,11.255.385,3.049.65,3.83.048,4.753-1.45,2.225-5.891,1.591-14.771.323C1834.961,478.6,1833.462,478.2,1832.7,476.937Z" transform="translate(-1813.637 -423.497)"/><path class="u" d="M1860.51,494.8c.375,1.382,1.726,2.414,2.666,5.776.2.726,1.648,5.895-.227,7.167-1.083.735-2.055-.657-4.684-.839-4.555-.315-6.725,3.514-9.7,2.468a4.074,4.074,0,0,1-1.878-1.457,3,3,0,0,0,.312,2.2c.761,1.262,2.26,1.659,5.743,2.156,8.881,1.268,13.321,1.9,14.771-.323.6-.923.337-1.7-.048-4.753-.4-3.176-1.019-8.072-.672-11.255.772-7.092,6.564-7.806,6.151-13.124a8.253,8.253,0,0,0-1.333-3.789C1864.264,482,1859.33,490.454,1860.51,494.8Z" transform="translate(-1827.934 -456.673)"/><path class="r" d="M1961.218,640.595l-1.47.938a3.441,3.441,0,0,0-1.829-1.13c-1.075-.236-2.309.1-2.337.446-.023.275.728.552.844.595.938.346,1.633.059,2.013.436a2.866,2.866,0,0,0,.686.611,2.083,2.083,0,0,0,.262.135c.626.243,1.7-.846,1.792-.941Z" transform="translate(-1919.363 -592.01)"/><path class="t" d="M1957.82,458.45c-1.063-2.547-1.8-6.446-.12-12.236,11.066,4.36,16.71,14.7,14.506,22.892-1.817,6.755-8.426,10.046-9.9,10.738l-1.029-2.342c1.709-1.9,3.634-4.716,3.362-7.926C1964.261,465.125,1959.973,463.606,1957.82,458.45Z" transform="translate(-1920.307 -429.143)"/><path class="r" d="M1884.016,407.849a17.858,17.858,0,0,0,1.038,5.1c.819,1.975,5.125,3.217,6,3.658s-1.635,1.73-4.155,1.983-9.712-.319-11.009-1.274,1.042-.883,2.84-1.543,2.837-4.176,2.52-5.772S1884.016,407.849,1884.016,407.849Z" transform="translate(-1854.829 -399.924)"/><path class="v" d="M1888.634,382.058c-1.307-1.284-1.489-1.434-1.632-1.878a4.277,4.277,0,0,1,2.623-4.822c.094-.031,1.31-.42,1.774.107.394.448-.186,1.066.09,1.929.259.808.959.868,2.257,1.928,1.07.872,1.734,1.415,1.887,2.178.316,1.573-1.588,3.853-3.274,3.791C1891.753,385.269,1891.588,384.959,1888.634,382.058Z" transform="translate(-1863.431 -375.19)"/><g transform="translate(24.008 5.73)"><path class="r" d="M1893.964,403.418a3.713,3.713,0,0,1-3.506,1.053c-1.9-.465-1.412-4.815-.025-5.509a2.458,2.458,0,0,1,1.936.092c.374.18.477.367,1.093.649.568.26.748.224.9.407.191.229.273.722-.325,1.912a1.058,1.058,0,0,1,1.181-.167.661.661,0,0,1,.211.294C1895.61,402.688,1895.051,403.235,1893.964,403.418Z" transform="translate(-1889.21 -398.804)"/></g></g></g></g></svg>