<svg xmlns="http://www.w3.org/2000/svg" xmlns:xlink="http://www.w3.org/1999/xlink" width="657.871" height="911.999" viewBox="0 0 657.871 911.999"><defs><style>.a,.h{fill:#393939;}.b,.c,.d{fill:#fff;}.c{stroke:#707070;opacity:0.427;}.d{stroke:rgba(0,0,0,0);stroke-miterlimit:10;}.e{clip-path:url(#e);}.f,.x,.z{fill:#57c1a6;}.g{fill:#d7d7d7;}.h{opacity:0.8;}.i{fill:#fde76c;}.j{fill:url(#f);}.k{clip-path:url(#i);}.l{fill:#1a545d;}.m{fill:#d9c65c;}.n{fill:#388471;}.o{fill:#f1edf1;}.p{fill:#c9c9c9;}.q{fill:#e3e3e3;}.r{fill:#dee0e0;}.s{fill:#9b9b9b;}.ae,.t,.w{fill:none;}.t{stroke:#d7d7d7;stroke-width:0.5px;}.u{clip-path:url(#j);}.v{fill:#f1f1f1;}.w{stroke:#57c1a6;stroke-linecap:round;stroke-linejoin:bevel;}.w,.x{stroke-width:2px;}.x,.z{stroke:#fff;}.y{fill:rgba(26,84,93,0.88);}.aa{fill-rule:evenodd;fill:url(#m);}.ab{fill:#f1c799;}.ac{fill:#fcf0e4;}.ad{fill:#f7d6b5;}.af{stroke:none;}.ag{filter:url(#n);}.ah{filter:url(#k);}.ai{filter:url(#g);}.aj{filter:url(#c);}.ak{filter:url(#a);}</style><filter id="a" x="237.536" y="287.272" width="84.317" height="82.018" filterUnits="userSpaceOnUse"><feOffset dy="3" input="SourceAlpha"/><feGaussianBlur stdDeviation="3" result="b"/><feFlood flood-opacity="0.161"/><feComposite operator="in" in2="b"/><feComposite in="SourceGraphic"/></filter><filter id="c" x="0" y="0" width="657.871" height="911.999" filterUnits="userSpaceOnUse"><feOffset dy="3" input="SourceAlpha"/><feGaussianBlur stdDeviation="18" result="d"/><feFlood flood-opacity="0.102"/><feComposite operator="in" in2="d"/><feComposite in="SourceGraphic"/></filter><clipPath id="e"><path class="a" d="M969.1,353.708H696.311a12.267,12.267,0,0,0-12.231,12.231V935.976a12.267,12.267,0,0,0,12.231,12.231H969.1a12.267,12.267,0,0,0,12.231-12.231V365.939A12.267,12.267,0,0,0,969.1,353.708Z" transform="translate(-684.079 -353.708)"/></clipPath><linearGradient id="f" x1="0.5" x2="0.5" y2="1" gradientUnits="objectBoundingBox"><stop offset="0" stop-color="#fde76c"/><stop offset="0.694" stop-color="#57c1a6"/><stop offset="1" stop-color="#1a545d"/></linearGradient><filter id="g" x="235.957" y="285.748" width="87.475" height="85.066" filterUnits="userSpaceOnUse"><feOffset dy="3" input="SourceAlpha"/><feGaussianBlur stdDeviation="3" result="h"/><feFlood flood-opacity="0.161"/><feComposite operator="in" in2="h"/><feComposite in="SourceGraphic"/></filter><clipPath id="i"><g class="ak" transform="matrix(1, 0, 0, 1, 0, 0)"><ellipse class="b" cx="33.159" cy="32.009" rx="33.159" ry="32.009" transform="translate(0)"/></g></clipPath><clipPath id="j"><rect class="c" width="272.502" height="168.889" rx="5"/></clipPath><filter id="k" x="382.116" y="279.425" width="53.461" height="53.461" filterUnits="userSpaceOnUse"><feOffset dy="3" input="SourceAlpha"/><feGaussianBlur stdDeviation="6" result="l"/><feFlood flood-opacity="0.694"/><feComposite operator="in" in2="l"/><feComposite in="SourceGraphic"/></filter><linearGradient id="m" x1="1.163" x2="0" y2="1" gradientUnits="objectBoundingBox"><stop offset="0" stop-color="#2a7581"/><stop offset="1" stop-color="#1a545d"/></linearGradient><filter id="n" x="210.644" y="448.835" width="40.628" height="46.103" filterUnits="userSpaceOnUse"><feOffset dy="3" input="SourceAlpha"/><feGaussianBlur stdDeviation="2.5" result="o"/><feFlood flood-opacity="0.518"/><feComposite operator="in" in2="o"/><feComposite in="SourceGraphic"/></filter></defs><g transform="translate(54.502 51.5)"><g class="aj" transform="matrix(1, 0, 0, 1, -54.5, -51.5)"><path class="d" d="M494.192,803H385.431v-.1H257.213c-44.887-3.965-86.42-104.41-97.778-134.188H98.843a35.333,35.333,0,0,1-26.5-11.995c-1.481,4.792-2.718,9.231-16.842,11.035-6.135.783-11.44-2.08-16.035-7.071a1.146,1.146,0,0,1-.17-.021c-.53-.106-1.5-1.336-2.617-3.371-4.961-6.7-9.01-15.814-12.322-25-3.133-8.688-.213-19.215,3.834-28.031a10.346,10.346,0,0,1,3.163-.5,10.356,10.356,0,0,0-3.162.5,102.434,102.434,0,0,1,10.678-17.846h0c.185-.244.288-.375.288-.375C29.6,584.8,18.193,542.249,12.642,520.664a42.669,42.669,0,0,1-1.029-12.533h0c1.01-21,12.746-46.361,12.746-46.361s-.42-1.235-1.138-3.406c4.047,9.9,10.937,21.05,21.456,21.049-10.518,0-17.407-11.145-21.455-21.048-.863-2.617-2.159-6.6-3.675-11.428,1.515,4.833,2.811,8.812,3.674,11.427a94.465,94.465,0,0,1-4.27-13.338v0c-.257-1.078-.382-1.7-.382-1.7v0c.009.046.134.662.381,1.7l-.437-1.41h0c-3.059-9.907-6.744-22.512-9.57-34.259C5.556,395.268,21.958,375.926,36.4,362.116a248.261,248.261,0,0,1,20.029-17.21c-.163,0-.319.005-.48.01,2.2-.693,4.291-1.32,6.191-1.867-1.9.547-4,1.173-6.191,1.867C15.136,346.023,5.15,323.9,3,309.877c-1.52-1.408-7.327-7.871,3-16.569,11.717-9.868,32.218-8.839,32.218-8.839l-2.509.87c4.493-1.086,8.473-1.975,11.156-2.72,10.4-2.888,15.927-4.154,16.584-4.3V215.64H62.206a1.429,1.429,0,0,1-1.425-1.425V175.54a1.428,1.428,0,0,1,1.425-1.425h1.247V160.137H62.206a1.429,1.429,0,0,1-1.425-1.425V120.037a1.428,1.428,0,0,1,1.425-1.425h1.247V35.391A35.495,35.495,0,0,1,98.843,0H351.009A35.494,35.494,0,0,1,386.4,35.391V272.844c3.5-5.832,8.206-9.754,14.45-10.8,7.957-1.326,14.008-.643,18.616,1.162,14.682,5.746,14.685,22.89,14.685,22.89a163.879,163.879,0,0,0,4.625,46.635h0c4.741,19.221,16.13,35.26,21.429,54.043,5.239,18.572,4.661,38.126,5.563,57.224,1.535,32.513,6.6,65.028,9.932,97.4,5.457,53.077,8.7,107.723,18.458,160.384q1.087,5.858,2.28,11.686a115.608,115.608,0,0,0,7.531,22.8C519.168,770.945,548.24,803,548.24,803ZM232.616,766.538v0Zm-3.153-17.259A36.438,36.438,0,0,0,232.6,766.51a36.423,36.423,0,0,1-3.14-17.232,87.479,87.479,0,0,1,1.869-12.819A87.5,87.5,0,0,0,229.462,749.279Zm103.475-36.173c-4.443,0-11.9-5.584-32.006-19.163C321.044,707.523,328.494,713.106,332.937,713.105Zm10.3-10.078c10.529-13.162,30.817-32.66,37-49.816C374.055,670.368,353.768,689.866,343.238,703.028Zm-42.55-9.249c-7.755-5.235-15.264-7.584-22.319-7.662C285.422,686.2,292.935,688.545,300.688,693.779ZM63.454,611.818h0c-4.379-1.194-9.488-2.578-14.924-4.03C53.965,609.24,59.075,610.624,63.454,611.818Zm-1.8-26.583q.929-.245,1.8-.494h0Q62.587,584.989,61.657,585.235ZM57.813,477.622c2.011-.482,3.895-1.03,5.64-1.61h0C61.708,476.592,59.824,477.14,57.813,477.622ZM62.17,369.093c-5.2-1.313-11.235-3.249-17.373-5.455C50.934,365.845,56.972,367.781,62.17,369.093Zm-22.336-6.938-.074-.01Zm-.1-.013q-.338-.043-.677-.069Q39.4,362.1,39.737,362.143Zm-1.841-.109h0ZM423.664,334.7c-6-4.4-10.3-15.054-13.156-25.86C413.362,319.652,417.659,330.306,423.664,334.7ZM408.291,275.1l.034-.072Zm.049-.1c2.635-5.5,7.294-9.358,11.126-11.782C415.634,265.635,410.975,269.492,408.34,274.993Z" transform="translate(54.5 51.5)"/></g><path d="M941.113,281.165H688.947a35.494,35.494,0,0,0-35.39,35.39v83.222H652.31a1.429,1.429,0,0,0-1.425,1.424v38.675a1.429,1.429,0,0,0,1.425,1.425h1.248V455.28H652.31a1.429,1.429,0,0,0-1.425,1.425V495.38a1.429,1.429,0,0,0,1.425,1.425h1.248V914.484a35.494,35.494,0,0,0,35.39,35.39H941.113a35.494,35.494,0,0,0,35.39-35.39V316.555A35.494,35.494,0,0,0,941.113,281.165Z" transform="translate(-590.104 -281.165)"/><g transform="translate(76.301 33.918)"><g class="e"><g transform="translate(12.314 31.19)"><rect class="b" width="272.502" height="194.792" rx="2" transform="translate(0 40.409)"/><rect class="f" width="18.65" height="36.265" transform="translate(29.012 167.853)"/><rect class="f" width="16.578" height="43.517" transform="translate(96.36 160.6)"/><rect class="f" width="17.614" height="54.915" transform="translate(62.168 149.203)"/><rect class="f" width="16.578" height="83.926" transform="translate(127.444 120.191)"/><rect class="f" width="16.578" height="115.01" transform="translate(190.648 89.107)"/><rect class="f" width="17.614" height="72.529" transform="translate(158.528 131.588)"/><rect class="f" width="18.65" height="103.613" transform="translate(221.732 100.505)"/><rect class="g" width="79.782" height="11.397" transform="translate(96.36 52.843)"/><rect class="g" width="87.035" height="12.434" transform="translate(54.915 2.072)"/><rect class="f" width="31.084" height="14.506" rx="7.253" transform="translate(12.434 2.072)"/><ellipse class="b" cx="10.361" cy="9.325" rx="10.361" ry="9.325" transform="translate(26.939)"/></g><path class="h" d="M969.1,353.708H696.311a12.267,12.267,0,0,0-12.231,12.231V935.976a12.267,12.267,0,0,0,12.231,12.231H969.1a12.267,12.267,0,0,0,12.231-12.231V365.939A12.267,12.267,0,0,0,969.1,353.708Z" transform="translate(-684.079 -353.708)"/><rect class="b" width="287.008" height="385.44" rx="8" transform="translate(5.061 235.307)"/><rect class="i" width="272.502" height="38.337" rx="19.168" transform="translate(12.314 536.821)"/><path class="a" d="M119.266,11.569h1.812L116.677,1.5h-1.741l-4.445,10.069h1.769l.964-2.273H118.3Zm-5.409-3.783,1.9-4.474,1.9,4.474Zm13.479-1.611.906-1.064a4.037,4.037,0,0,0-3.165-1.251,3.7,3.7,0,0,0-3.855,3.9,3.681,3.681,0,0,0,3.855,3.87,3.893,3.893,0,0,0,3.251-1.424l-.921-.921a2.853,2.853,0,0,1-2.258.921,2.263,2.263,0,0,1-2.273-2.445,2.263,2.263,0,0,1,2.273-2.445A2.891,2.891,0,0,1,127.336,6.175Zm7.811,0,.906-1.064a4.038,4.038,0,0,0-3.165-1.251,3.7,3.7,0,0,0-3.855,3.9,3.681,3.681,0,0,0,3.855,3.87A3.893,3.893,0,0,0,136.14,10.2l-.921-.921a2.853,2.853,0,0,1-2.258.921,2.263,2.263,0,0,1-2.273-2.445,2.263,2.263,0,0,1,2.273-2.445A2.891,2.891,0,0,1,135.147,6.175Zm5.567-2.316a3.716,3.716,0,0,0-3.87,3.9,3.681,3.681,0,0,0,3.913,3.87,4.164,4.164,0,0,0,3.165-1.295l-.877-.935a2.975,2.975,0,0,1-2.158.892,2.33,2.33,0,0,1-2.374-1.913H144.3C144.5,5.614,143.4,3.859,140.714,3.859Zm-2.23,3.309a2.168,2.168,0,0,1,2.244-1.985,1.965,1.965,0,0,1,2.129,1.985Zm11.94-3.309a2.99,2.99,0,0,0-2.676,1.381V3.917h-1.654V14.36h1.654V10.246a3.007,3.007,0,0,0,2.7,1.381,3.546,3.546,0,0,0,3.625-3.855A3.6,3.6,0,0,0,150.424,3.859Zm-.345,6.358a2.315,2.315,0,0,1-2.33-2.5,2.335,2.335,0,1,1,4.661,0A2.323,2.323,0,0,1,150.079,10.217Zm9.638-.4a2.67,2.67,0,0,1-1.151.331c-.518,0-.82-.245-.82-1.036V5.441H160V4.2h-2.258V2.1h-1.64V4.2h-1.079V5.441h1.079v3.97a2.016,2.016,0,0,0,2.143,2.23,3.675,3.675,0,0,0,1.884-.561Zm10.17,0a2.671,2.671,0,0,1-1.151.331c-.518,0-.82-.245-.82-1.036V5.441h2.258V4.2h-2.258V2.1h-1.64V4.2H165.2V5.441h1.079v3.97a2.016,2.016,0,0,0,2.143,2.23,3.674,3.674,0,0,0,1.884-.561Zm5.135-5.955a3.743,3.743,0,0,0-4,3.87,3.993,3.993,0,0,0,7.984,0A3.739,3.739,0,0,0,175.023,3.859Zm0,1.41a2.311,2.311,0,0,1,2.33,2.489,2.342,2.342,0,1,1-4.675,0A2.314,2.314,0,0,1,175.023,5.269Zm11-1.352V7.686a2.162,2.162,0,0,1-2.1,2.388,1.683,1.683,0,0,1-1.784-1.856v-4.3h-1.654V8.678a2.656,2.656,0,0,0,2.805,2.949,2.82,2.82,0,0,0,2.733-1.554v1.5h1.654V3.917Zm5.754,1.525V3.917h-1.654v7.653h1.654v-4a2.318,2.318,0,0,1,2.647-2.129V3.859A2.782,2.782,0,0,0,191.781,5.441Z" transform="translate(-3.555 548.63)"/><path class="j" d="M39.89,79.782A39.9,39.9,0,0,1,24.363,3.135,39.9,39.9,0,0,1,55.416,76.647,39.638,39.638,0,0,1,39.89,79.782Zm0-77.413a37.532,37.532,0,0,0-14.6,72.094A37.531,37.531,0,0,0,54.494,5.318,37.282,37.282,0,0,0,39.89,2.37Z" transform="translate(108.674 199.043)"/><g transform="translate(114.153 206.329)"><g transform="translate(0 0)"><g class="ai" transform="matrix(1, 0, 0, 1, -244.96, -291.75)"><ellipse class="b" cx="34.738" cy="33.533" rx="34.738" ry="33.533" transform="translate(244.96 291.75)"/></g><g class="k" transform="translate(1.579 1.524)"><rect class="l" width="83.433" height="66.171" transform="translate(-9.857 -0.618)"/></g></g><g transform="translate(8.272 12.354)"><g transform="translate(0 0)"><path class="m" d="M516.508,903.116s-.959.7-.959,1.526.137-3.424-1.643-3.972-2.192.821-2.192.821a4.85,4.85,0,0,0,.274,3.013c-.822-.958-.411-1.644-2.466-1.644s0,2.329,0,2.329-2.328-1.1-2.055.822c-1.1,0-1.369.548-1.369.548h10.409Z" transform="translate(-506.099 -873.018)"/><path class="m" d="M551.244,875.751h-20.7v1l20.7,1.17Z" transform="translate(-522.356 -858.782)"/><rect class="n" width="2.602" height="3.15" transform="translate(19.151 0)"/><path class="i" d="M530.549,878.1V893.67h20.7V879.265Z" transform="translate(-522.356 -860.129)"/><rect class="f" width="4.246" height="3.15" transform="translate(15.247 0)"/><path class="n" d="M604.642,842.615l8.492,14.518h-3.013l-6.836-12.159Z" transform="translate(-564.125 -839.753)"/><path class="m" d="M595.889,858.665l-6.985-12.19-10.64,12.874v1.721l17.625,11Z" transform="translate(-549.757 -841.97)"/><path class="i" d="M578.264,880.759V895.2h17.625v-3.44Z" transform="translate(-549.757 -861.658)"/><path class="f" d="M593.927,890.374v10.347h6.437v-6.329Z" transform="translate(-558.751 -867.18)"/><path class="l" d="M600.364,888.941h-6.437v.61l6.437,4.018Z" transform="translate(-558.751 -866.357)"/><path class="f" d="M619.664,905.447s1.1-1.764,2.328-.8,0,2.466,0,2.466,1.918-.822,2.328,0a1.639,1.639,0,0,1,0,1.506s1.78-.274,2.328.274h-6.985Z" transform="translate(-573.531 -875.209)"/><circle class="o" cx="0.411" cy="0.411" r="0.411" transform="translate(40.106 27.652)"/><rect class="b" width="8.081" height="7.259" transform="translate(14.083 20.119)"/><rect class="p" width="3.424" height="6.643" transform="translate(14.494 20.53)"/><rect class="q" width="3.424" height="6.711" transform="translate(18.466 20.53)"/><rect class="r" width="2.191" height="5.889" transform="translate(15.727 21.352)"/><rect class="p" width="3.424" height="0.822" transform="translate(18.466 20.53)"/><rect class="b" width="7.944" height="0.548" transform="translate(14.22 23.132)"/><rect class="f" width="2.876" height="7.259" transform="translate(11.207 20.119)"/><rect class="f" width="2.876" height="7.259" transform="translate(22.164 20.119)"/><path class="f" d="M519.289,857.133h28.763l8.354-14.518H527.644Z" transform="translate(-515.89 -839.753)"/></g></g></g><rect class="l" width="65.276" height="14.506" transform="translate(12.314 478.797)"/><rect class="l" width="65.276" height="9.325" transform="translate(12.314 257.066)"/><rect class="l" width="74.601" height="9.325" transform="translate(202.962 257.066)"/><rect class="g" width="125.372" height="7.253" transform="translate(12.314 500.556)"/><rect class="s" width="14.506" height="14.506" transform="translate(173.95 478.797)"/><rect class="s" width="14.506" height="14.506" transform="translate(210.215 478.797)"/><rect class="s" width="34.192" height="14.506" transform="translate(238.19 478.797)"/><rect class="g" width="69.421" height="9.325" transform="translate(12.314 509.881)"/><rect class="g" width="58.023" height="9.325" transform="translate(214.359 509.881)"/><rect class="g" width="21.759" height="7.253" transform="translate(170.842 498.484)"/><rect class="g" width="19.686" height="7.253" transform="translate(207.106 498.484)"/><rect class="g" width="21.759" height="7.253" transform="translate(245.443 498.484)"/><path class="t" d="M807.813,1875v24.433" transform="translate(-576.241 -1395.356)"/><path class="t" d="M807.813,1875v24.433" transform="translate(-610.765 -1395.356)"/><g class="u" transform="translate(12.314 286.077)"><g transform="translate(-27.245 -100.797)"><rect class="v" width="298.032" height="468.561"/><path class="b" d="M190.721,468.56l-7.767-19.541-14.4,3.485-2.031,16.056H163.3l5.079-40.191-8.784.95L143.46,468.507h-6.751l8.484-20.65-19.359-4.014-10.575,23.924,2.091.792h-5.856l5.258-11.882-21.032-7.13A200.233,200.233,0,0,1,85.263,468.56H77.854c9.56-14.576,16.849-31.054,21.809-44.469l-45.291-3.063,8.962,47.532H56.882L54.014,453.4l-25.991,3.909-.239,3.063,5.437,8.186h-3.7l-2.151-3.221-.239,3.221H23.96l.9-10.773-19,2.851.657,7.87H.12L0,467.041V376.8l5.676-17.144L0,359.233v-5.618l7.469.552,7.409-22.393L0,325.431V315.1l3.944,1.673L17.686,274,4.721,267.552,0,280.372v-9.064L1.733,266.6,0,266.345v-2.83l2.749.392,9.261-25.139L0,234.444v-3.057l12.966,4.688,16.611-45L0,193.568v-5.686l44.574-3.722L12.668,151.785c-2.18.184-8.283.726-12.668,1.073V150.1l11.652-1.012-1.2-15.791L0,134.48v-9.456l9.261-1.018L7.111,112.017c-2.6.361-5.047.7-7.111.985v-2.893l6.633-.891L4.422,97.124,0,97.636V94.8l3.884-.478L.9,77.741l-.9.077V72.2l24.976-2.12L21.032,45.261C14.382,46.476,7.3,47.4,0,48.1V42.463q1.835-.174,3.645-.371L1.792,19.752,0,19.56v-5.7L1.255,14,.12.052H6.513L9.979,41.3c3.7-.528,7.289-1.056,10.755-1.743L23.96.052h3.167L23.96,38.87c9.441-2.007,17.686-4.7,24.02-8.344.418-.264.9-.581,1.374-.845L29.577.052h3.7l8.425,12.623,15.954-8.4L56.882.052h6.453L66.2,15.315A117.2,117.2,0,0,0,77.854.052h7.409q-1.344,2.218-2.868,4.436l23.96,7.341,5.2-11.777h5.855l16.73,6.18,2.569-6.18h6.751l-.538,1.373L162.46,6.76,163.3.052h3.227L165.507,7.6l15.3,4.225c2.091-.528,7.349-1.849,13.265-3.274L190.661,0h3.346c1.255,3.116,2.33,5.915,3.107,7.816,4.9-1.215,9.859-2.43,13.563-3.327L208.228.052h11.831L221.134,1.9,228.364.052h22.765c-10.995,2.8-21.152,5.44-27.186,6.972L234.1,25.35l23.72-3.539L254.773.052h6.393l2.988,20.861,24.259-3.644L292,.052h6.035V22.48l-1.614,7.57,1.614.42v2.895l-1.972-.515,1.972,3.766V50l-4.064-7.748-8.9,42.884A22.212,22.212,0,0,1,292,91.526l6.035-3.209v3.327l-4.541,2.417a19.108,19.108,0,0,1,1.912,8.186c0,.422-.059.792-.059,1.214l2.689.446v9.545l-5.8-.96a23.367,23.367,0,0,1-16.073,9.929l-8.9,24.558,30.771,5.456v2.882l-14.161-2.528c-.358,2.007-1.076,5.862-1.852,10.034l16.013,1.871v2.838l-16.491-1.962c-.717,3.961-1.434,7.869-1.912,10.4l18.4,3.072v5.71l-19.6-3.237-7.29,29.47,26.888-22.206v3.9l-27.366,22.535,10.934,11.83,16.431-8.622v6.5l-12.369,6.506,9.2,9.876,3.167-1.656v3.3l-1.2.625,1.2,1.292v4.412l-15.117-16.373-31.906,16.742,47.023,7.472v9.536L285.664,264.7l-5.975,31.424,18.343,3.859v2.888l-18.881-4-3.526,18.643c7.887,1.315,15.527,2.631,22.407,3.8v5.71l-14.938-2.534-4.78,29.417,14.639,2.641,5.079-18.706v12.19l-1.913,7.044,1.913.342v5.752L277.478,359.5l-2.808,17.27,23.362,4.074v2.815l-23.84-4.142-3.406,21.125,27.246,4.126v5.721l-28.143-4.248L266.544,427l31.489,3.8v5.629l-13.683-1.67-3.466,20.227,14.639-3.749,2.51-11.9v29.172h-6.154l2.33-11.091c-7.648,2.007-20.435,5.281-33.4,8.609l.358,2.482h-6.393l-.119-.9c-1.2.317-2.33.581-3.525.9H228.364l26.171-6.654,2.33-14.577-42.183,11.566,5.377,9.717H208.228l-12.547-22.6L186,448.28c1.374,3.486,5.078,12.833,8.066,20.28Zm70.445-8.45,16.312-4.172,3.645-21.442-15.535-1.9ZM3.944,438.034l1.673,19.8L53.476,450.6,50.25,433.6Zm203.747,8.239,5.556,9.982,15.954-4.436-2.988-10.246Zm-110.716.634,20.972,7.077,4.78-10.774-22.048-4.594C99.544,441.362,98.288,444.107,96.974,446.907Zm132.285-6.074,2.988,10.193,25.095-6.865,1.733-10.88ZM171.6,428l-2.689,21.495,25.334-6.126-9.38-16.9Zm-42.362,10.827,18.164,3.75,5.736-14.048-11.472-4.172ZM196.517,426.1l8.364,15.052,55.209-13.943,1.673-10.246-55.926-7.13Zm-93.628,7.235,23,4.753,13.384-15.579-12.906-19.435-13.145-.317A283.389,283.389,0,0,1,102.889,433.334ZM2.211,417.015l1.255,15.368L49.234,428l-2.689-14.313Zm158.636,9.4,22.586-2.588-7.528-13.52a25.883,25.883,0,0,1-7.349,1.056,13.5,13.5,0,0,1-1.494-.053ZM143.7,422.031l10.575,3.855,6.513-15.791a22.574,22.574,0,0,1-4.96-2.165Zm41.227-16.742,9.8,17.64,14.818-25.773-18.164-2.746A19.7,19.7,0,0,1,184.926,405.29ZM53.835,418.124l46.844,3.169c2.808-7.869,4.84-14.418,6.035-18.7l-56.046-1.426Zm87.594,2.007,11.95-13.89a20.085,20.085,0,0,1-2.809-2.535l-20.434-.528Zm-139.4-5.862,44.035-3.327-1.853-9.876L.837,399.955ZM238.82,411.2l23.362,2.958,1.434-8.873-22.465-3.327Zm-31.489-4.014,28.321,3.592,2.39-9.348-25.274-3.749Zm-51.385-16.372c0,6.179,5.676,11.144,12.608,11.144,6.991,0,12.607-5.017,12.607-11.144,0-6.179-5.676-11.144-12.607-11.144S156.007,384.693,155.947,390.819Zm72.776,3.539,35.79,5.387,1.792-10.932-35.312-5.863Zm-98.647-.529,15.655.37a12.773,12.773,0,0,1-.3-3.38,19.746,19.746,0,0,1,.3-3.274l-13.264-5.651ZM103.188,381l-1.732,12.094,25.334.634,2.629-13.1-20.076-8.556Zm85.86.317a18.14,18.14,0,0,1,2.569,7.447l30.831,4.648,7.111-35.649ZM50.788,391.822l47.5,1.215L99.9,381.629,54.85,373.021ZM2.032,390.608l42.3,1.056,1.554-7.183-40.57-3.75Zm229.5-10.457,35.252,5.915,1.315-8.292-33.041-15.1Zm-203.807-.211,18.762,1.743L53.715,348.3,38.121,341.65Zm-21.45-1.954,18.283,1.69,10.635-39.24-14.519-6.18Zm77.5-2.323,17.088,3.274,5.557-8.133L90.76,364.149Zm100.5.106a22.949,22.949,0,0,1,3.107,3.116l42.96-24.927.538-2.747L195.5,344.871Zm-64.709-9.718,30.174,12.833a22.706,22.706,0,0,1,7.588-5.968l-4.96-17.482Zm-64.111,4.172,25.095,4.806,7.349-12.147L59.631,350.839Zm180.2-10.457,32.923,15.052,2.629-16.425-34.057-6.073Zm-79.288-28.678L167.6,370.327h.956a24.968,24.968,0,0,1,6.334.792l12.487-34.593L181.7,324.116Zm-57.9,25.931,17.148,7.342,21.869-7.077-4.123-13.1Zm31.607-33.642,10.337,32.85,11.173-3.591-9.5-33.325Zm-61.6,20.861,26.171,11.144,12.248-4.489L96.5,334.784Zm169.749,2.535,33.878,6.073,4.78-29.417-32.863-5.6ZM99.484,333.728l10.336,16.055,22.646-8.344-5.377-17.058Zm97.989,5.757,34.536,6.179,5.8-28.889-30.233-5.123ZM45.829,334.573l14.758,6.284,30.831-10.4-35.79-21.706Zm126.61-38.237,16.491,36.019,18.821-51.915ZM9.8,319.257l30.293,12.886L50.011,305.9,18.224,293.009ZM78.69,295.491l-3.764,21.547L95,329.239l12.189-4.12,9.62-43.36c-8.544-2.641-18.463-5.7-27.126-8.4Zm65.127-8.5,11.831,41.405,24.915-6.865L162.58,282.287Zm-33.1,36.916,29.875-10.087-7.767-27.146c-3.227-1-7.767-2.43-12.966-4.014ZM248.26,312.814c7.887,1.32,16.132,2.746,24.2,4.119l10.038-52.76-5.139-.845ZM56.7,306l15.356,9.3,3.286-18.96L60.885,294.8Zm152.84.264c7.111,1.215,20.375,3.433,35.491,6.021l2.211-3.75L217.37,284.611Zm25.035-11.671,14.1,11.354,25.334-43.1-16.132-2.588ZM19.061,290.262,51.026,303.2l3.645-9.665L21.928,281.443Zm146.267-9.454,5.915,12.939,37.224-16.742-33.4-7.552ZM62.02,292.164l14.22,1.479L86.7,272.464c-6.632-2.06-12.249-3.8-15.475-4.806Zm156.425-10.51,13.742,11.038,22.347-32.956-26.648-4.225Zm-179.07.158L56.7,288.2l8.425-22.287-17.208-4.7Zm103.606,2.43,19.538-4.912,9.142-10.668-35.372-7.975Zm-42-10.352,30.831,9.559-7.289-25.509-17.566-4.648ZM23.721,276l12.787,4.7L53.715,239.3l-16.79-4.437Zm48.457-11.038L97.99,272.94l5.915-20.492L79.348,246Zm127.506,4.225,11.173,2.535,5.676-15.58-11.771-3.486ZM33.042,190.762,5.737,264.806l12.846,6.39,26.171-81.385Zm146.745,73.992,16.85,3.8,5.139-16.742-14.281-4.225Zm-20.016-34.7-11.711,5.968,7.409,23.132,18.1,4.067,16.013-35.438ZM49.115,258.521c3.585,1,12.369,3.433,17.089,4.7l7.11-18.8-16.55-4.331Zm82.514-14.1,2.868,10.087,17.328,3.908L145.192,237.5Zm57,.528,28.859,8.5,9.261-25.509-26.29-9.19Zm-93.867-.739,28.022,7.341-6.99-24.4Zm136.408,2.324,10.277,1.638,19.837-10.4c.956-4.013,3.048-12.358,5.318-21.6l-22.7-4.753ZM63.156,202.909,55.03,233.752l36.149,9.506,23.78-19.171-6.393-22.34Zm61.721,17.8,5.975,20.861L156.9,228.312c-3.107-3.7-12.189-14.365-15-17.693Zm140.173,15,13.8-7.236-9.5-10.245ZM38.659,229.474l13.324,3.486,5.2-19.752-12.189-3.433Zm105.876-20.492L160.01,227.2l30.831-2.324.6-1.32-31.547-23.713Zm57.121,7.13,26.11,9.136,5.975-16.531-25.095-8.081Zm-21.212-4.49,12.249,9.19L202.911,198.1l-7.708-4.965Zm-58.614-1.479,2.21,7.658,15.893-9.454-5.556-6.179Zm123.025-1.373,22.406,4.648c3.227-12.886,6.632-26.67,8.006-32.375l-19.24-3.169ZM51.564,189.23l-5.736,17.8,12.07,3.432,5.855-22.234Zm100.917,1.426,25.513,19.118,14.639-18.326-20.674-13.2Zm-15.534,9.824c1.792,2.007,4.3,4.806,5.616,6.284l14.758-8.82-7.529-5.651Zm72.834-2.43,24.916,7.975,3.824-10.616c-5.019-2.218-13.743-6.232-22.7-10.773ZM110.06,168.58l10.157,35.649,28.143-17.9L140.591,163.4ZM67.1,187.963,63.873,200.11l43.856-1.162-4-14.048ZM174.709,176.5l29.457,18.855,6.095-13.573c-7.469-3.909-14.639-8.081-19.539-11.831a28.527,28.527,0,0,1-2.39-2.112Zm18.582-12.147a17.572,17.572,0,0,0,1.554,1.32c11.054,8.4,35.073,19.594,45.649,24.347l7.05-19.435-28.68-25.615ZM46.9,146.452l4.96,37.128,14.818-1.268L61.065,144.6ZM148.12,166.2l5.676,16.689,14.34-9.084-5.915-13.573ZM69.848,182.047l32.325-2.693-1.554-5.492L67.1,163.51ZM13.623,132.984l1.255,16.795,30.174,30.632L38.3,130.29ZM258,172.435l18.463,3.063,4.3-23.238-14.519-2.588ZM154.872,135.519l15.953,36.547,13.683-8.714c-8.306-11.143-15.057-29.628-18.7-40.93Zm-90.641,8.662,2.39,16.213,33.041,10.194-8.545-29.945ZM97.273,123.9l11.95,41.986,30.413-5.229-13.623-39.874ZM223.7,141.275l26.05,23.291,11.233-31.108L244.078,125.8Zm-81.081,8.873,4.541,13.309,13.921-5.915L152.6,138.16Zm36.806-8.978c2.928,6.919,6.334,13.732,10.038,18.749l9.978-7.605L190.6,137.368Zm14.161-4.911,8.364,14.154,12.309-9.4-10.814-8.134ZM132.406,120.15l9.082,26.67,23.243-27.885c-.239-.793-.478-1.532-.657-2.219ZM44.633,129.6l1.912,14.048,43.8-5.7-3.7-12.887Zm167.06-18.062-6.154,19.224,11.173,8.4,35.312-26.777a19.287,19.287,0,0,1-2.33-4.964Zm-41.227,4.489c1.554,5.176,4.362,13.732,7.887,22.446l24.138-8.239,5.856-18.326Zm76.181,7.816,15.3,6.919,3.287-8.978a24.423,24.423,0,0,1-9.321-4.964ZM10.277,111.594l2.151,12.042,24.08-2.588-3.346-12.57C28.442,109.112,18.822,110.433,10.277,111.594Zm32.5,8.767,43.319-4.7-1.673-5.6-44.872-1.849Zm53.476-5.81,26.529-2.852L106.773,88.99Zm163.3-12.358c0,6.18,5.676,11.144,12.607,11.144s12.608-4.964,12.608-11.144S279.091,91.05,272.16,91.05C265.17,91.05,259.553,96.067,259.553,102.193ZM108.864,86.666l17.387,24.664,10.218-1.11.059-27.357ZM91.178,110.485,107.311,71.4,76.958,61.95Zm48.577-28.044L139.7,109.9l33.878-3.644L169.988,78.27ZM7.588,96.754,9.739,108.8l22.705-3.063L29.4,94.166ZM52.4,73.41l6.572,32.8,24.677,1-10.4-35.543Zm-21.511,1.8,7.947,30.156,16.85.687L49.175,73.674Zm144.3,19.013,1.494,11.672,19.06-2.06-2.031-11.619Zm21.869-19.647,5.018,28.572,21.63-2.324-5.079-29.206Zm24.736-3.38,5.138,29.259,22.585-2.43a20.112,20.112,0,0,1,7.051-10.932L245.93,67.865ZM4.063,77.477,7.05,93.955l21.57-2.535L24.5,75.734ZM173.1,77.9l1.732,13.52,18.4-1.954-2.449-14Zm62.5-49.909,30.293,54.5a1.553,1.553,0,0,0,.479-.106l-8.126-57.778Zm28.919-4.33,8.126,58.095c.777.052,1.493.106,2.27.158l12.846-61.686Zm-154.393,57.2,27.186-3.75,11.352-35.913-19.478-6.5Zm30.652-4.225,16.551-2.271,7.708-27.674L151.645,42.2Zm19.9-2.693,24.856-3.433L182.954,52.76l-15-5.017ZM26.111,57.408l1.971,12.411,43.5-3.7-4.72-15.9Zm164.132,1,1.613,11.2,51.086-7.024L236.37,50.7ZM92.791,63.9l15.6,4.859,6.632-16.108-16.73-6.126ZM76,58.623l13.8,4.331L95.361,45.42,69.31,35.807ZM184.268,16.847l5.557,38.765,20.913-3.486c-2.45-6.284-11.532-30.262-14.579-38.184ZM51.445,35.279c-7.23,4.12-16.61,7.183-27.306,9.454l1.554,9.929,40.391-7.13-5.438-18.59A68.96,68.96,0,0,1,51.445,35.279ZM199.265,13.2,213.9,51.652l21.032-3.539L213.605,9.664ZM99.185,43.782l16.909,6.232,10.7-25.984-19.478-5.968Zm53.476-4.225,29.875,10.035-2.45-17.112-20.375-6.549ZM65.845,24.347l2.39,8.133L96.2,42.726l8.126-25.561L78.929,9.4A112.117,112.117,0,0,1,65.845,24.347Zm64.41,7.6L149.733,38.5l7.648-14.894,3.824-11.3-20.494-5.6Zm30.592-8.661,18.821,6.021L177.875,16.9l-13.622-3.75ZM43.319,15.1l8.664,12.939a77.232,77.232,0,0,0,8.843-7.183L58.256,7.235Zm66.024-2.377L129,18.748l4.063-9.876L114.122,1.9ZM63.335,468.56ZM33.221,468.56ZM261.166,468.507ZM6.513,468.507Z" transform="translate(0.795)"/></g></g><path class="w" d="M1521.564,185.386,1503.377,170.8l-33.312,23.748-72.812,45.387" transform="translate(-1296.637 156.344)"/><g class="x" transform="translate(226.793 338.92)"><circle class="af" cx="7.253" cy="7.253" r="7.253"/><circle class="ae" cx="7.253" cy="7.253" r="6.253"/></g><g transform="translate(229.499 341.274)"><g transform="translate(0 0)"><g transform="translate(0 0)"><path class="y" d="M33.7,12.467A1.558,1.558,0,1,0,35.258,10.9,1.558,1.558,0,0,0,33.7,12.467Z" transform="translate(-32.658 -10.9)"/><path class="y" d="M25.4,46.8c-1.433,0-2.6.774-2.6,1.727v.552a7.244,7.244,0,0,0,2.6.406,7.244,7.244,0,0,0,2.6-.406v-.552C28,47.574,26.833,46.8,25.4,46.8Z" transform="translate(-22.8 -43.369)"/></g></g></g><g class="z" transform="translate(224.721 338.92)"><circle class="af" cx="8.289" cy="8.289" r="8.289"/><circle class="ae" cx="8.289" cy="8.289" r="7.789"/></g><g transform="translate(230.499 343.536)"><g transform="translate(0 0)"><path class="y" d="M33.7,12.473A1.564,1.564,0,1,0,35.264,10.9,1.564,1.564,0,0,0,33.7,12.473Z" transform="translate(-32.654 -10.9)"/><path class="y" d="M25.409,46.8c-1.439,0-2.609.777-2.609,1.733v.554a7.272,7.272,0,0,0,2.609.408,7.272,7.272,0,0,0,2.609-.408v-.554C28.018,47.577,26.848,46.8,25.409,46.8Z" transform="translate(-22.8 -43.356)"/></g></g><g class="ah" transform="matrix(1, 0, 0, 1, -130.8, -85.42)"><path class="b" d="M11.967,8.73l7.494,7.494-1.236,1.236L10.73,9.967,3.236,17.461,2,16.225,9.494,8.73,2,1.236,3.236,0,10.73,7.494,18.225,0l1.236,1.236Z" transform="translate(398.12 294.43)"/></g><g transform="translate(-721.659 -674.083)"><g class="ag" transform="matrix(1, 0, 0, 1, 590.86, 588.66)"><path class="aa" d="M3.659,3.729A12.881,12.881,0,1,1,21.875,21.945l-9.108,9.108L3.659,21.945A13.232,13.232,0,0,1,3.659,3.729Z" transform="translate(218.12 453.39)"/></g><g transform="translate(816.01 1049.009)"><path class="b" d="M9.648,18.391V15.285a.47.47,0,0,1,.465-.465h1.765a.47.47,0,0,1,.465.465v3.106a.47.47,0,0,0,.465.465h2.429a.47.47,0,0,0,.465-.465V13.48h.81a.462.462,0,0,0,.305-.81L11.294,7.719a.467.467,0,0,0-.624,0L5.175,12.683a.463.463,0,0,0,.305.81h.81V18.4a.47.47,0,0,0,.465.465H9.183A.491.491,0,0,0,9.648,18.391Z" transform="translate(-5.018 -7.6)"/></g></g></g></g><g transform="translate(159.182 261.358)"><path class="ab" d="M932.59,1772.534c2.776-39.776,34.226-80.476,71.226-55.5s31.45,23.125,42.55,9.25,33.044-34.792,37.876-52.583c0-.007,0-.015,0-.021a35.458,35.458,0,0,1-30.562,17.619H862.309c10.981,28.916,52.8,130.858,98.031,134.853h11.78C953.257,1814.516,930.971,1795.729,932.59,1772.534Z" transform="translate(-862.309 -1284.614)"/><path class="ac" d="M1390.886,869.036c2.013,18.52,11.52,63.842,32.377,46.018a163.892,163.892,0,0,1-4.625-46.636s0-17.143-14.685-22.89C1397.822,849.407,1389.574,856.953,1390.886,869.036Z" transform="translate(-1143.669 -843.675)"/><path class="ad" d="M1287.033,1316.477a115.653,115.653,0,0,1-7.531-22.8q-1.2-5.825-2.279-11.686c-9.761-52.661-13-107.307-18.459-160.383-3.329-32.374-8.4-64.889-9.931-97.4-.9-19.1-.324-38.652-5.564-57.224-5.3-18.783-16.687-34.822-21.428-54.043-20.857,17.823-30.364-27.5-32.377-46.018-1.313-12.083,6.935-19.629,13.067-23.507-4.609-1.8-10.66-2.488-18.617-1.161-33.3,5.55-22.818,93.121-19.734,114.706s4.317,38.235,4.317,46.87c0,1.755.513,20.946.513,46.458v162.571a35.076,35.076,0,0,1-4.828,17.77c0,.007,0,.014,0,.021-4.832,17.792-26.776,38.708-37.876,52.583s-5.55,15.725-42.55-9.25-68.451,15.725-71.225,55.5c-1.619,23.194,20.667,41.982,39.53,53.618H1168.5v.1H1331.3S1302.232,1351.152,1287.033,1316.477Z" transform="translate(-942.246 -841.564)"/></g><g transform="translate(0 278.301)"><g transform="translate(2.467 0)"><path class="ae" d="M565.689,1247.252c-.975-2.954-2.5-7.645-4.272-13.342A94.612,94.612,0,0,0,565.689,1247.252Z" transform="translate(-544.935 -1067.19)"/><path class="ad" d="M575.32,1573.9c-4.047,8.816-6.967,19.343-3.834,28.031,6.784,18.809,16.651,37.31,31.143,35.46s15.417-6.475,16.959-11.409-8.634-35.151-8.634-35.151v-9.267c-7.891-2.153-18.24-4.944-28.61-7.65A12.267,12.267,0,0,0,575.32,1573.9Z" transform="translate(-549.594 -1247.945)"/><path class="ad" d="M587.219,877.338s-5.551,1.233-16.651,4.317-44.4,8.634-44.4,20.351c0,11.678,4.907,43.263,53.483,41.945,2.741-.866,5.328-1.628,7.571-2.261Z" transform="translate(-526.165 -877.338)"/><path class="ad" d="M549.509,1139.406c1.771,5.7,3.3,10.387,4.272,13.342,4.139,10.126,11.249,21.551,22.171,21.031a67.524,67.524,0,0,0,18.719-3.607c.015-1.629.025-2.61.025-2.61s14.184-11.409,14.184-25.593-12.334-46.868-12.334-46.868-2.467-13.26-2.467-17.884v-13.409a193.469,193.469,0,0,1-20.9-6.58,13.716,13.716,0,0,0-6.219-.729c-14.441,13.811-30.844,33.152-27.457,47.236,2.825,11.748,6.511,24.354,9.57,34.262.035-.187.055-.292.055-.292S549.253,1138.328,549.509,1139.406Z" transform="translate(-533.027 -972.686)"/><path class="ad" d="M574.121,1334.048c-10.207,2.65-21.059,9.244-28.471,15.786a42.663,42.663,0,0,0,1.028,12.534c5.55,21.584,16.96,64.137,26.518,65.37,0,0-.1.132-.288.376,7.91,2.285,18.125.214,24.956-1.779v-.138s17.884-12.642,12.951-35.152-12.334-36.694-12.643-41.627c-.115-1.849-.144-7.164-.135-13.087C591.09,1333.742,582.394,1331.9,574.121,1334.048Z" transform="translate(-536.503 -1120.005)"/><path class="ab" d="M604.956,1035.162a193.581,193.581,0,0,0,20.9,6.58v-26.77c-2.243.634-4.83,1.4-7.571,2.261.161,0,.317-.005.479-.01a248.5,248.5,0,0,0-20.029,17.21A13.711,13.711,0,0,1,604.956,1035.162Z" transform="translate(-564.805 -950.62)"/><path class="ab" d="M579.508,1283.476c-10.922.519-18.033-10.905-22.172-21.032.718,2.171,1.138,3.407,1.138,3.407s-11.736,25.361-12.746,46.361c7.412-6.541,18.264-13.137,28.471-15.786,8.272-2.147,16.969-.305,23.916,2.283.011-7.008.074-14.864.11-18.839A67.549,67.549,0,0,1,579.508,1283.476Z" transform="translate(-536.582 -1082.382)"/><path class="ab" d="M560.538,1230.27l-.055.292q.221.714.437,1.41C560.663,1230.894,560.538,1230.27,560.538,1230.27Z" transform="translate(-544.437 -1065.252)"/><path class="ab" d="M591.867,1534.279a102.447,102.447,0,0,0-10.679,17.847,12.262,12.262,0,0,1,7.025.014c10.371,2.7,20.719,5.5,28.61,7.649V1532.5C609.992,1534.494,599.777,1536.565,591.867,1534.279Z" transform="translate(-555.461 -1226.171)"/></g><path class="ac" d="M575,1217.113s-20.968-37.413-6.578-57.559,34.946,31.246,35.358,33.712c0,0-.822,2.879-5.344,3.7S574.176,1210.534,575,1217.113Z" transform="translate(-543.511 -1025.113)"/><path class="ac" d="M577.276,1387.973s-13.156,7.4-9.867,21.79,9.867,34.536,9.867,34.536-.411,3.7,5.756-2.467,13.567-9.868,16.856-10.69,9.045.411,5.756-12.334S593.31,1381.807,577.276,1387.973Z" transform="translate(-545.377 -1148.694)"/><path class="ac" d="M585.36,1616.362s4.154-6.989,11.122-6.578,14.368,25.49,14.368,25.49-4.523,2.878-8.634,6.167-5.756,8.633-7.812,8.223S583.716,1631.985,585.36,1616.362Z" transform="translate(-555.106 -1267.31)"/><path class="ac" d="M553.78,892.343s-31.615,4.934-29.559,23.846c0,0-9.045-6.989,2.672-16.856s32.219-8.839,32.219-8.839Z" transform="translate(-520.89 -884.326)"/></g></g></svg>