<svg xmlns="http://www.w3.org/2000/svg" width="26" height="26" viewBox="0 0 26 26"><defs><style>.a{opacity:0.6;}.b{fill:#fff;}</style></defs><g class="a"><path class="b" d="M22.46,25.065a2.6,2.6,0,1,0-2.6-2.6A2.609,2.609,0,0,0,22.46,25.065Z" transform="translate(-9.461 -9.46)"/><path class="b" d="M33.4,16.468V13.96h-.326l-2.182.007.008,2.509Z" transform="translate(-14.716 -6.65)"/><path class="b" d="M13,0A13,13,0,1,0,26,13,13.015,13.015,0,0,0,13,0Zm7.393,11.483v6.053a2.861,2.861,0,0,1-2.858,2.858H8.464a2.86,2.86,0,0,1-2.858-2.858V8.465A2.86,2.86,0,0,1,8.464,5.607h9.071a2.861,2.861,0,0,1,2.858,2.858Z"/><path class="b" d="M23.462,23.447a4.047,4.047,0,1,1-7.8-1.518H13.457v6.058A1.418,1.418,0,0,0,14.875,29.4h9.078a1.418,1.418,0,0,0,1.418-1.417V21.929h-2.21A3.992,3.992,0,0,1,23.462,23.447Z" transform="translate(-6.415 -10.449)"/></g></svg>