<svg xmlns="http://www.w3.org/2000/svg" width="26" height="26" viewBox="0 0 26 26"><defs><style>.a{fill:#fff;opacity:0.6;}</style></defs><path class="a" d="M13,0A13,13,0,1,0,26,13,13,13,0,0,0,13,0ZM9.222,19.652H6.056V10.127H9.222ZM7.639,8.826H7.619A1.65,1.65,0,1,1,7.66,5.535a1.651,1.651,0,1,1-.021,3.291Zm13,10.826H17.473v-5.1c0-1.281-.458-2.154-1.6-2.154a1.733,1.733,0,0,0-1.624,1.158,2.168,2.168,0,0,0-.1.773v5.319H10.975s.041-8.632,0-9.525H14.14v1.349A3.143,3.143,0,0,1,16.994,9.9c2.083,0,3.645,1.361,3.645,4.287Zm0,0"/></svg>