<svg xmlns="http://www.w3.org/2000/svg" width="148" height="22.337" viewBox="0 0 148 22.337"><defs><style>.a{fill:#fff;}</style></defs><g transform="translate(-139.884 -715.281)"><g transform="translate(182.828 720.684)"><path class="a" d="M320.767,742.271v10.422h-5.41V743.83a2.726,2.726,0,0,0-2.813-3.026,3.24,3.24,0,0,0-3.239,3.148v8.741h-5.441V736.157h5.441v2.69a6.075,6.075,0,0,1,5.471-2.9C318.383,735.943,320.767,738.389,320.767,742.271Z" transform="translate(-303.864 -735.943)"/><path class="a" d="M393.808,745.962H382.316a3.7,3.7,0,0,0,3.76,2.9,5.482,5.482,0,0,0,3.882-1.681l2.842,2.842a9.293,9.293,0,0,1-7.214,2.935c-5.41,0-8.742-3.332-8.742-8.375,0-5.135,3.454-8.528,8.619-8.528C391.241,736.058,394.176,739.94,393.808,745.962Zm-5.257-2.9a2.954,2.954,0,0,0-3.057-3.179c-1.773,0-2.935,1.284-3.3,3.179Z" transform="translate(-357.588 -736.028)"/><path class="a" d="M450.866,736.755l2.659,4.646,2.874-4.646h5.96l-5.227,8.069,5.594,8.466H456.46l-2.935-5.043-3.27,5.043h-5.991l5.624-8.466-5.257-8.069Z" transform="translate(-407.217 -736.541)"/><path class="a" d="M550.569,742.271v10.422h-5.441V743.83c0-1.9-1.039-3.026-2.72-3.026-1.925.031-3.118,1.558-3.118,3.729v8.161h-5.44V743.83c0-1.9-1.04-3.026-2.721-3.026-1.926.031-3.148,1.558-3.148,3.729v8.161H522.57V736.157h5.411v2.72a5.892,5.892,0,0,1,5.379-2.935,5.489,5.489,0,0,1,5.5,3.7,5.9,5.9,0,0,1,5.776-3.7C548.215,735.943,550.569,738.389,550.569,742.271Z" transform="translate(-464.861 -735.943)"/><path class="a" d="M654.565,745.962H643.073a3.7,3.7,0,0,0,3.76,2.9,5.482,5.482,0,0,0,3.882-1.681l2.843,2.842a9.293,9.293,0,0,1-7.214,2.935c-5.41,0-8.741-3.332-8.741-8.375,0-5.135,3.453-8.528,8.619-8.528C652,736.058,654.933,739.94,654.565,745.962Zm-5.256-2.9a2.954,2.954,0,0,0-3.057-3.179c-1.773,0-2.935,1.284-3.3,3.179Z" transform="translate(-549.54 -736.028)"/></g><g transform="translate(139.884 715.281)"><g transform="translate(11.193)"><path class="a" d="M187.9,737.618h-5.6v-2.792l19.587-19.545h5.6v2.792Z" transform="translate(-182.302 -715.281)"/></g><path class="a" d="M262.131,753.28h-5.6V742.087l5.6-5.6V753.28Z" transform="translate(-225.755 -730.943)"/><path class="a" d="M145.48,737.618h-5.6v-2.792l19.587-19.545h5.6v2.792Z" transform="translate(-139.884 -715.281)"/></g></g></svg>