<svg xmlns="http://www.w3.org/2000/svg" width="41.214" height="36" viewBox="0 0 41.214 36"><defs><style>.a{fill:#57c1a6;}</style></defs><g transform="translate(-6 -9.036)"><path class="a" d="M28.685,45.3a4.691,4.691,0,0,0,1.205.158,4.827,4.827,0,0,0,2.441-.667l13.13-8.408a3.592,3.592,0,0,0,1.633-2.14l0-.013a3.527,3.527,0,0,0-.28-2.521,3.412,3.412,0,0,0-2.117-1.73,3.763,3.763,0,0,0-2.972.387l-8.7,5.673a3.536,3.536,0,0,0-2.642-3.251l-7.655-2.011a6.943,6.943,0,0,0-5.284.735L12.3,34.52l-.5-.849a.859.859,0,0,0-1.175-.308l-4.205,2.46a.859.859,0,0,0-.25,1.261L14.2,47.638a.859.859,0,0,0,1.117.221l2.823-1.651a.859.859,0,0,0,.308-1.175l-.682-1.165,1.681-.984Zm-13.574.692L8.129,36.816l2.627-1.537.491.839s0,.008,0,.011l4.6,7.865.005.006.678,1.158Zm3.78-4.77L16.9,42.386,13.168,36l5.149-3.01a5.232,5.232,0,0,1,3.983-.553l7.654,2.01a1.8,1.8,0,0,1,.9,2.95,1.842,1.842,0,0,1-.6.032,2.51,2.51,0,0,1-.315-.06l-6.494-1.029a.859.859,0,1,0-.268,1.7l6.411,1.011a3.2,3.2,0,0,0,.475.087,3.728,3.728,0,0,0,.435.026,3.438,3.438,0,0,0,.967-.145c.02,0,.04-.01.06-.015s.043-.009.065-.016.042-.027.065-.037a.818.818,0,0,0,.134-.055l10.846-7.072a2.011,2.011,0,0,1,1.586-.2,1.714,1.714,0,0,1,1.071.867,1.819,1.819,0,0,1,.147,1.3,1.928,1.928,0,0,1-.878,1.131L31.434,43.327a3.042,3.042,0,0,1-2.31.314l-9.582-2.507a.848.848,0,0,0-.217-.028A.859.859,0,0,0,18.891,41.223Z" transform="translate(0 -2.94)"/><path class="a" d="M35.763,9.036a9.786,9.786,0,1,0,9.786,9.786A9.8,9.8,0,0,0,35.763,9.036Zm0,17.855a8.069,8.069,0,1,1,8.069-8.069A8.078,8.078,0,0,1,35.763,26.891Z" transform="translate(-2.824)"/><path class="a" d="M36.9,16.326a1.141,1.141,0,0,1,1.14,1.14.859.859,0,1,0,1.717,0,2.851,2.851,0,0,0-2-2.711v-.317a.859.859,0,0,0-1.717,0v.317a2.849,2.849,0,0,0,.859,5.568,1.14,1.14,0,1,1-1.14,1.14.859.859,0,1,0-1.717,0,2.851,2.851,0,0,0,2,2.711v.317a.859.859,0,0,0,1.717,0v-.317a2.849,2.849,0,0,0-.859-5.568,1.14,1.14,0,1,1,0-2.28Z" transform="translate(-3.965 -0.642)"/></g></svg>