<svg xmlns="http://www.w3.org/2000/svg" width="32" height="28.968" viewBox="0 0 32 28.968"><defs><style>.a{fill:#57c1a6;}</style></defs><g transform="translate(-2.5 -7)"><g transform="translate(2.5 7)"><path class="a" d="M26.945,33.138V34.25H10.409V20.776a6.943,6.943,0,0,0,3.7-1.617h9.449a.9.9,0,0,0,.89-.876.877.877,0,0,0-.89-.876H15.613a7.055,7.055,0,0,0,.924-2.661H26.945v9.566l1.746-1.92V14.41a1.363,1.363,0,0,0-1.369-1.347H16.5A6.961,6.961,0,0,0,9.553,7a6.909,6.909,0,0,0-.89,13.776V34.62a1.363,1.363,0,0,0,1.369,1.347H27.287a1.363,1.363,0,0,0,1.369-1.347V31.454l-1.13,1.213A1.136,1.136,0,0,1,26.945,33.138Zm-22.7-19.2A5.269,5.269,0,0,1,9.553,8.718a5.222,5.222,0,1,1,0,10.442A5.269,5.269,0,0,1,4.246,13.939Z" transform="translate(-2.5 -7)"/><path class="a" d="M33.716,51.833h8.948a.811.811,0,0,0,.816-.816.792.792,0,0,0-.816-.816H33.716a.816.816,0,0,0,0,1.633Z" transform="translate(-22.278 -35.585)"/><path class="a" d="M43.48,63.416a.811.811,0,0,0-.816-.816H33.716a.816.816,0,1,0,0,1.633h8.948A.853.853,0,0,0,43.48,63.416Z" transform="translate(-22.278 -43.79)"/><path class="a" d="M32.9,75.781a.811.811,0,0,0,.816.816H41.44l.283-1.6H33.716A.766.766,0,0,0,32.9,75.781Z" transform="translate(-22.368 -51.679)"/><rect class="a" width="7.158" height="3.045" transform="matrix(0.667, -0.745, 0.745, 0.667, 23.193, 21.085)"/><path class="a" d="M64.591,75.428l1.915-.534a.506.506,0,0,0,.22-.126l.565-.628L65.031,72.1l-.565.628a.787.787,0,0,0-.126.22l-.345,1.978A.469.469,0,0,0,64.591,75.428Z" transform="translate(-43.105 -49.694)"/><path class="a" d="M90.071,47.864,88.5,46.451a.486.486,0,0,0-.659.031L86.9,47.55l2.26,2.041.942-1.067A.455.455,0,0,0,90.071,47.864Z" transform="translate(-58.229 -32.964)"/><path class="a" d="M19.3,22.107A.8.8,0,0,0,18.1,21.04l-1.947,2.229-.942-.942a.8.8,0,0,0-1.13,1.13L15.624,25a.757.757,0,0,0,.565.22h.031a.671.671,0,0,0,.565-.283Z" transform="translate(-10.287 -16.079)"/></g></g></svg>