<svg xmlns="http://www.w3.org/2000/svg" width="35.78" height="35.78" viewBox="0 0 35.78 35.78"><defs><style>.a{fill:#57c1a6;}</style></defs><g transform="translate(-1.5 -1.3)"><path class="a" d="M35.122,31.81l1.3.743.037-.074a14.783,14.783,0,0,0,2.787-8.694A14.907,14.907,0,0,0,24.31,8.7a15.01,15.01,0,1,0,0,30.021,13.671,13.671,0,0,0,4.124-.594l.074-.037-.3-1.486-.037.074a13.733,13.733,0,0,1-3.864.594A13.5,13.5,0,1,1,35.2,31.736Z" transform="translate(-4.902 -4.651)"/><path class="a" d="M32.115,6.576A17.755,17.755,0,0,0,19.408,1.3a16.977,16.977,0,0,0-4.793.669l-.074.037.26,1.375.111-.037a17.049,17.049,0,0,1,4.5-.632,16.515,16.515,0,1,1-16.5,16.459A16.315,16.315,0,0,1,5.959,9.623l.074-.074L4.807,8.842l-.037.074A17.881,17.881,0,1,0,37.28,19.208,17.542,17.542,0,0,0,32.115,6.576Z" transform="translate(0 0)"/><path class="a" d="M45.737,64.7a1.264,1.264,0,0,0-.037.372,1.486,1.486,0,1,0,2.972,0c0-.149-.037-.26-.037-.372Z" transform="translate(-27.778 -39.844)"/><path class="a" d="M45.638,40.278a.668.668,0,0,0-.149-.334s-1.3-1.412-1.3-5.09A4.293,4.293,0,0,0,40.7,30.432v-.855a1.077,1.077,0,1,0-2.155,0v.855a4.261,4.261,0,0,0-3.493,4.421c0,3.678-1.3,5.053-1.3,5.09a.553.553,0,0,0-.149.334h0v1H45.638v-1Z" transform="translate(-20.173 -17.094)"/></g></svg>