<svg xmlns="http://www.w3.org/2000/svg" width="366" height="262.537" viewBox="0 0 366 262.537"><defs><style>.a{fill:#fff;opacity:0.2;}</style></defs><path class="a" d="M119.748,165.808,46.031,277.031c-14.226,20.693-23.279,42.678-23.279,68.544,0,51.731,37.505,82.77,78.89,82.77,46.558,0,80.184-34.919,80.184-82.77,0-27.159-11.64-51.731-34.919-67.251l49.145-112.516ZM339.607,278.324l49.145-112.516h-76.3L238.731,277.031c-14.226,20.693-23.279,42.678-23.279,68.544,0,51.731,37.505,82.77,78.89,82.77,46.558,0,80.184-34.919,80.184-82.77C374.526,318.416,362.886,293.843,339.607,278.324Z" transform="translate(-22.752 -165.808)"/></svg>