<svg xmlns="http://www.w3.org/2000/svg" width="29.175" height="34.637" viewBox="0 0 29.175 34.637"><defs><style>.a{fill:#fff;}</style></defs><path class="a" d="M28.564,26.993A18.831,18.831,0,0,1,26.7,30.341a17.011,17.011,0,0,1-2.4,2.9A4.653,4.653,0,0,1,21.22,34.6a7.727,7.727,0,0,1-2.848-.68,8.171,8.171,0,0,0-3.066-.678,8.449,8.449,0,0,0-3.153.678,8.483,8.483,0,0,1-2.724.716A4.381,4.381,0,0,1,6.276,33.24a17.862,17.862,0,0,1-2.509-3,20.76,20.76,0,0,1-2.653-5.27A19.3,19.3,0,0,1,0,18.687a11.47,11.47,0,0,1,1.506-6A8.836,8.836,0,0,1,4.661,9.5a8.486,8.486,0,0,1,4.265-1.2,10.042,10.042,0,0,1,3.3.768,10.6,10.6,0,0,0,2.616.769,15.656,15.656,0,0,0,2.9-.906,9.59,9.59,0,0,1,3.944-.7,8.373,8.373,0,0,1,6.559,3.454,7.3,7.3,0,0,0-3.87,6.628,7.312,7.312,0,0,0,2.4,5.509,7.89,7.89,0,0,0,2.4,1.574q-.289.837-.611,1.606ZM21.88.693A7.389,7.389,0,0,1,19.986,5.54a6.454,6.454,0,0,1-5.36,2.646,5.393,5.393,0,0,1-.04-.656,7.592,7.592,0,0,1,2.01-4.9A7.737,7.737,0,0,1,19.043.794,7.3,7.3,0,0,1,21.844,0a6.291,6.291,0,0,1,.036.693Z" transform="translate(0 0)"/></svg>