<svg xmlns="http://www.w3.org/2000/svg" width="12.517" height="14.233" viewBox="0 0 12.517 14.233"><defs><style>.a{fill:#a0a0a0;stroke:#a0a0a0;stroke-linecap:round;stroke-linejoin:round;stroke-width:0.5px;}</style></defs><path class="a" d="M25.5,8.067a5.745,5.745,0,0,1,1.646.882,5.824,5.824,0,0,1,1.247,1.311,5.977,5.977,0,0,1,.788,1.629,6.181,6.181,0,0,1,.275,1.844H28.6a5.259,5.259,0,0,0-.392-2.042,4.937,4.937,0,0,0-2.716-2.716,5.449,5.449,0,0,0-3.423-.211,5.175,5.175,0,0,0-1.237.513,5.03,5.03,0,0,0-1.837,1.837,5.174,5.174,0,0,0-.513,1.237,5.227,5.227,0,0,0-.181,1.381h-.858a6.016,6.016,0,0,1,1.08-3.467,5.892,5.892,0,0,1,1.251-1.3,6.086,6.086,0,0,1,1.64-.892,4.217,4.217,0,0,1-.939-.684,4.261,4.261,0,0,1-.707-.9,4.4,4.4,0,0,1-.449-1.053,4.315,4.315,0,0,1,.178-2.823A4.291,4.291,0,0,1,21.773.335a4.342,4.342,0,0,1,3.346,0A4.291,4.291,0,0,1,27.4,2.619a4.3,4.3,0,0,1,.178,2.82,4.348,4.348,0,0,1-.449,1.046,4.44,4.44,0,0,1-.7.9A4.152,4.152,0,0,1,25.5,8.067ZM20.012,4.292a3.306,3.306,0,0,0,.272,1.334,3.478,3.478,0,0,0,1.827,1.827,3.414,3.414,0,0,0,2.669,0,3.478,3.478,0,0,0,1.827-1.827,3.306,3.306,0,0,0,.272-1.334,3.306,3.306,0,0,0-.272-1.334A3.478,3.478,0,0,0,24.78,1.13a3.414,3.414,0,0,0-2.669,0,3.478,3.478,0,0,0-1.827,1.827A3.306,3.306,0,0,0,20.012,4.292Z" transform="translate(-17.188 0.25)"/></svg>