<svg xmlns="http://www.w3.org/2000/svg" width="26" height="26" viewBox="0 0 26 26"><defs><style>.a{opacity:0.6;}.b{fill:#fff;}</style></defs><g class="a"><path class="b" d="M13,0A13,13,0,1,0,26,13,13.015,13.015,0,0,0,13,0Zm5.8,10.025c.006.129.009.259.009.389a8.511,8.511,0,0,1-13.1,7.169,6.042,6.042,0,0,0,4.43-1.239,3,3,0,0,1-2.8-2.078,3,3,0,0,0,1.351-.05,2.993,2.993,0,0,1-2.4-2.934c0-.013,0-.026,0-.038a2.98,2.98,0,0,0,1.355.374,3,3,0,0,1-.926-3.995,8.5,8.5,0,0,0,6.167,3.127,2.994,2.994,0,0,1,5.1-2.73,5.973,5.973,0,0,0,1.9-.726,3.006,3.006,0,0,1-1.317,1.656,5.949,5.949,0,0,0,1.719-.471A6.019,6.019,0,0,1,18.8,10.025Z"/></g></svg>