<svg xmlns="http://www.w3.org/2000/svg" width="50" height="50" viewBox="0 0 50 50"><defs><style>.a{fill:none;opacity:0.139;}.b{fill:#57c1a6;}.c{fill:#f2f3f3;}.d{fill:#fde76c;}.e{fill:#1a545d;stroke-miterlimit:10;}.f,.g{stroke:none;}.g{fill:#fff;}</style></defs><g transform="translate(-2 16.579)"><rect class="a" width="50" height="50" transform="translate(2 -16.579)"/><path class="b" d="M114.981,551.53l-10.812,10.793-4.854-1.3-6.573,6.562,2.406,8.962,8.979,2.4,6.572-6.561-1.3-4.846,3.862-3.855v-3.677h3.286v-3.281h3.664v-5.2Z" transform="translate(-68.211 -555.53)"/><path class="c" d="M104.319,586.252a2.244,2.244,0,1,1,0-3.174A2.246,2.246,0,0,1,104.319,586.252Z" transform="translate(-71.27 -567.906)"/><path class="d" d="M65.435,574.917l-10.35-10.352L66.31,553.34l8.437,1.914,1.913,8.437Z" transform="translate(-53.085 -556.253)"/><path class="c" d="M83.206,561.273a1.533,1.533,0,1,1,0-2.168A1.535,1.535,0,0,1,83.206,561.273Z" transform="translate(-63.299 -558.385)"/><g class="e" transform="translate(-63.829 -556.853)"><path class="f" d="M 95.30425262451172 574.900146484375 C 95.18987274169922 574.900146484375 95.07976531982422 574.8854370117188 94.97689819335938 574.8563842773438 C 91.99661254882812 574.0592651367188 90.06442260742188 572.4176635742188 89.07016754150391 569.8379516601562 C 88.2281494140625 567.6532592773438 88.20536804199219 565.1646728515625 88.18525695800781 562.9690551757812 L 88.18521118164062 562.9633178710938 C 88.16545867919922 560.8825073242188 88.14679718017578 558.9171142578125 87.47566986083984 557.7610473632812 C 87.2340087890625 557.3453369140625 86.86203765869141 556.8486938476562 86.46315765380859 556.8449096679688 L 86.45768737792969 556.8449096679688 C 85.57456207275391 556.8449096679688 84.23351287841797 558.4525756835938 83.71177673339844 559.313232421875 C 83.48655700683594 559.6851806640625 83.07604217529297 559.9163818359375 82.64052581787109 559.9163818359375 C 82.41242980957031 559.9163818359375 82.18843078613281 559.853759765625 81.99273681640625 559.7351684570312 C 81.70661926269531 559.5621337890625 81.50496673583984 559.2877807617188 81.42526245117188 558.9627685546875 C 81.3455810546875 558.6378784179688 81.3973388671875 558.301513671875 81.57100677490234 558.0155639648438 C 81.67527008056641 557.8432006835938 82.24057769775391 556.9356079101562 83.08448028564453 556.07568359375 C 84.21408081054688 554.9246826171875 85.34899139404297 554.341064453125 86.45768737792969 554.341064453125 L 86.48232269287109 554.341064453125 C 87.75205993652344 554.352294921875 88.81299591064453 555.0799560546875 89.64010620117188 556.50390625 C 90.64399719238281 558.2327880859375 90.66558074951172 560.52001953125 90.68843078613281 562.9415893554688 L 90.68849182128906 562.9478759765625 C 90.72750854492188 567.1607055664062 90.76436614990234 571.139892578125 95.62676239013672 572.439697265625 C 96.29319000244141 572.6173095703125 96.69113159179688 573.3043212890625 96.51348876953125 573.970947265625 C 96.36691284179688 574.518310546875 95.86972045898438 574.900146484375 95.30425262451172 574.900146484375 Z"/><path class="g" d="M 95.30425262451172 574.400146484375 C 95.63636779785156 574.400146484375 95.94026947021484 574.1785888671875 96.03034973144531 573.8422241210938 C 96.13725280761719 573.4410400390625 95.89882659912109 573.0296630859375 95.49764251708984 572.9227294921875 C 90.26716613769531 571.5245361328125 90.2275390625 567.1661376953125 90.18849182128906 562.95068359375 C 90.16626739501953 560.5957641601562 90.14585113525391 558.37060546875 89.20774841308594 556.7550659179688 C 88.47624206542969 555.4956665039062 87.55974578857422 554.8505859375 86.48232269287109 554.841064453125 L 86.45768737792969 554.841064453125 C 84.14665222167969 554.841064453125 82.21157073974609 557.922607421875 81.99835968017578 558.275146484375 C 81.78274536132812 558.630126953125 81.89627075195312 559.092529296875 82.25181579589844 559.3075561523438 C 82.37352752685547 559.3812866210938 82.5078125 559.4163818359375 82.64048767089844 559.4163818359375 C 82.89474487304688 559.4163818359375 83.14292144775391 559.287353515625 83.28420257568359 559.0540771484375 C 83.71121978759766 558.349609375 85.20787048339844 556.3449096679688 86.45768737792969 556.3449096679688 L 86.4678955078125 556.3449096679688 C 86.97718811035156 556.3497314453125 87.46125793457031 556.7413330078125 87.90808868408203 557.510009765625 C 88.64620208740234 558.781494140625 88.66481781005859 560.8131713867188 88.68524169921875 562.9644775390625 C 88.72487640380859 567.2935180664062 88.77474212646484 572.6819458007812 95.10967254638672 574.3743286132812 C 95.17452239990234 574.3930053710938 95.239990234375 574.400146484375 95.30425262451172 574.400146484375 M 95.30425262451172 575.400146484375 C 95.14516448974609 575.400146484375 94.99056243896484 575.3794555664062 94.84449005126953 575.3385620117188 C 93.20108032226562 574.8985595703125 91.82966613769531 574.1884765625 90.76795959472656 573.2278442382812 C 89.82338714599609 572.3732299804688 89.09519958496094 571.293212890625 88.60363006591797 570.0177612304688 C 87.72899627685547 567.7484741210938 87.70578002929688 565.2117309570312 87.68527984619141 562.9736328125 L 87.68522644042969 562.9680786132812 C 87.66612243652344 560.9552001953125 87.64807891845703 559.053955078125 87.04325103759766 558.0120849609375 C 86.72678375244141 557.4676513671875 86.49538421630859 557.347412109375 86.45938873291016 557.3449096679688 L 86.45768737792969 557.3449096679688 C 86.30985260009766 557.3449096679688 85.89390563964844 557.5121459960938 85.27278900146484 558.1390991210938 C 84.73467254638672 558.6822509765625 84.30713653564453 559.295654296875 84.13935852050781 559.5724487304688 C 83.82422637939453 560.0928344726562 83.24984741210938 560.4163208007812 82.64057159423828 560.4163818359375 C 82.32112121582031 560.4163818359375 82.00752258300781 560.3287353515625 81.73368835449219 560.162841796875 C 81.33344268798828 559.9207763671875 81.05121612548828 559.5367431640625 80.93965148925781 559.0818481445312 C 80.82810974121094 558.6271362304688 80.90056610107422 558.15625 81.14366149902344 557.7560424804688 C 81.53821563720703 557.1036376953125 83.65339660644531 553.841064453125 86.45768737792969 553.841064453125 L 86.48232269287109 553.841064453125 L 86.48674011230469 553.841064453125 L 86.49115753173828 553.8411254882812 C 88.30265808105469 553.8571166992188 89.43855285644531 555.1614379882812 90.07247161865234 556.2528076171875 C 91.14273071289062 558.095947265625 91.16490936279297 560.4473876953125 91.18840026855469 562.9368286132812 L 91.18840026855469 562.9369506835938 L 91.18846130371094 562.9432373046875 C 91.20701599121094 564.9464721679688 91.22621154785156 567.0179443359375 91.83339691162109 568.6441650390625 C 92.47402954101562 570.3599853515625 93.72042846679688 571.4125366210938 95.75588989257812 571.9566650390625 C 96.68834686279297 572.2052001953125 97.24524688720703 573.1666259765625 96.99663543701172 574.0996704101562 C 96.79145050048828 574.8659057617188 96.09564971923828 575.400146484375 95.30425262451172 575.400146484375 Z"/></g></g></svg>